G04 #@! TF.GenerationSoftware,KiCad,Pcbnew,8.0.1*
G04 #@! TF.CreationDate,2024-05-08T20:32:46+02:00*
G04 #@! TF.ProjectId,TGL_Board,54474c5f-426f-4617-9264-2e6b69636164,rev?*
G04 #@! TF.SameCoordinates,Original*
G04 #@! TF.FileFunction,Paste,Top*
G04 #@! TF.FilePolarity,Positive*
%FSLAX46Y46*%
G04 Gerber Fmt 4.6, Leading zero omitted, Abs format (unit mm)*
G04 Created by KiCad (PCBNEW 8.0.1) date 2024-05-08 20:32:46*
%MOMM*%
%LPD*%
G01*
G04 APERTURE LIST*
G04 Aperture macros list*
%AMRoundRect*
0 Rectangle with rounded corners*
0 $1 Rounding radius*
0 $2 $3 $4 $5 $6 $7 $8 $9 X,Y pos of 4 corners*
0 Add a 4 corners polygon primitive as box body*
4,1,4,$2,$3,$4,$5,$6,$7,$8,$9,$2,$3,0*
0 Add four circle primitives for the rounded corners*
1,1,$1+$1,$2,$3*
1,1,$1+$1,$4,$5*
1,1,$1+$1,$6,$7*
1,1,$1+$1,$8,$9*
0 Add four rect primitives between the rounded corners*
20,1,$1+$1,$2,$3,$4,$5,0*
20,1,$1+$1,$4,$5,$6,$7,0*
20,1,$1+$1,$6,$7,$8,$9,0*
20,1,$1+$1,$8,$9,$2,$3,0*%
G04 Aperture macros list end*
%ADD10RoundRect,0.162500X-0.162500X0.237500X-0.162500X-0.237500X0.162500X-0.237500X0.162500X0.237500X0*%
%ADD11RoundRect,0.250000X-0.475000X0.250000X-0.475000X-0.250000X0.475000X-0.250000X0.475000X0.250000X0*%
%ADD12RoundRect,0.140000X0.170000X-0.140000X0.170000X0.140000X-0.170000X0.140000X-0.170000X-0.140000X0*%
%ADD13R,1.000000X0.700000*%
%ADD14RoundRect,0.140000X0.140000X0.170000X-0.140000X0.170000X-0.140000X-0.170000X0.140000X-0.170000X0*%
%ADD15RoundRect,0.140000X-0.170000X0.140000X-0.170000X-0.140000X0.170000X-0.140000X0.170000X0.140000X0*%
%ADD16RoundRect,0.225000X0.225000X0.250000X-0.225000X0.250000X-0.225000X-0.250000X0.225000X-0.250000X0*%
%ADD17RoundRect,0.135000X0.185000X-0.135000X0.185000X0.135000X-0.185000X0.135000X-0.185000X-0.135000X0*%
%ADD18RoundRect,0.135000X0.135000X0.185000X-0.135000X0.185000X-0.135000X-0.185000X0.135000X-0.185000X0*%
%ADD19RoundRect,0.135000X-0.135000X-0.185000X0.135000X-0.185000X0.135000X0.185000X-0.135000X0.185000X0*%
%ADD20RoundRect,0.140000X-0.140000X-0.170000X0.140000X-0.170000X0.140000X0.170000X-0.140000X0.170000X0*%
%ADD21RoundRect,0.150000X0.512500X0.150000X-0.512500X0.150000X-0.512500X-0.150000X0.512500X-0.150000X0*%
%ADD22R,1.400000X1.200000*%
%ADD23R,0.800000X0.300000*%
%ADD24R,0.250000X1.650000*%
%ADD25RoundRect,0.150000X0.425000X-0.150000X0.425000X0.150000X-0.425000X0.150000X-0.425000X-0.150000X0*%
%ADD26RoundRect,0.075000X0.500000X-0.075000X0.500000X0.075000X-0.500000X0.075000X-0.500000X-0.075000X0*%
%ADD27O,2.100000X1.000000*%
%ADD28O,1.800000X1.000000*%
%ADD29RoundRect,0.249999X-0.395001X-0.395001X0.395001X-0.395001X0.395001X0.395001X-0.395001X0.395001X0*%
%ADD30RoundRect,0.050000X-0.387500X-0.050000X0.387500X-0.050000X0.387500X0.050000X-0.387500X0.050000X0*%
%ADD31RoundRect,0.050000X-0.050000X-0.387500X0.050000X-0.387500X0.050000X0.387500X-0.050000X0.387500X0*%
%ADD32RoundRect,0.225000X-0.250000X0.225000X-0.250000X-0.225000X0.250000X-0.225000X0.250000X0.225000X0*%
G04 APERTURE END LIST*
D10*
X134706800Y-43031700D03*
X134706800Y-41531700D03*
X133856800Y-41531700D03*
X133856800Y-43031700D03*
X102588800Y-33506700D03*
X102588800Y-32006700D03*
X101738800Y-32006700D03*
X101738800Y-33506700D03*
D11*
X155168600Y-20436800D03*
X155168600Y-22336800D03*
D10*
X109012400Y-39856700D03*
X109012400Y-38356700D03*
X108162400Y-38356700D03*
X108162400Y-39856700D03*
X147554000Y-39856700D03*
X147554000Y-38356700D03*
X146704000Y-38356700D03*
X146704000Y-39856700D03*
X128283200Y-46206700D03*
X128283200Y-44706700D03*
X127433200Y-44706700D03*
X127433200Y-46206700D03*
X121859600Y-43031700D03*
X121859600Y-41531700D03*
X121009600Y-41531700D03*
X121009600Y-43031700D03*
X121859600Y-36681700D03*
X121859600Y-35181700D03*
X121009600Y-35181700D03*
X121009600Y-36681700D03*
X121859600Y-27156700D03*
X121859600Y-25656700D03*
X121009600Y-25656700D03*
X121009600Y-27156700D03*
X147554000Y-46206700D03*
X147554000Y-44706700D03*
X146704000Y-44706700D03*
X146704000Y-46206700D03*
D12*
X164902000Y-38767400D03*
X164902000Y-37807400D03*
D10*
X137918600Y-46206700D03*
X137918600Y-44706700D03*
X137068600Y-44706700D03*
X137068600Y-46206700D03*
X141130400Y-33506700D03*
X141130400Y-32006700D03*
X140280400Y-32006700D03*
X140280400Y-33506700D03*
X150765800Y-30331700D03*
X150765800Y-28831700D03*
X149915800Y-28831700D03*
X149915800Y-30331700D03*
X147554000Y-23981700D03*
X147554000Y-22481700D03*
X146704000Y-22481700D03*
X146704000Y-23981700D03*
X144342200Y-36681700D03*
X144342200Y-35181700D03*
X143492200Y-35181700D03*
X143492200Y-36681700D03*
D13*
X158792400Y-42830000D03*
X164792400Y-42830000D03*
X158792400Y-46530000D03*
X164792400Y-46530000D03*
D10*
X128283200Y-27156700D03*
X128283200Y-25656700D03*
X127433200Y-25656700D03*
X127433200Y-27156700D03*
X144342200Y-33506700D03*
X144342200Y-32006700D03*
X143492200Y-32006700D03*
X143492200Y-33506700D03*
X102588800Y-46206700D03*
X102588800Y-44706700D03*
X101738800Y-44706700D03*
X101738800Y-46206700D03*
D14*
X169237600Y-19685000D03*
X168277600Y-19685000D03*
D10*
X128283200Y-23981700D03*
X128283200Y-22481700D03*
X127433200Y-22481700D03*
X127433200Y-23981700D03*
X105800600Y-46206700D03*
X105800600Y-44706700D03*
X104950600Y-44706700D03*
X104950600Y-46206700D03*
D15*
X161617600Y-21771600D03*
X161617600Y-22731600D03*
D10*
X137918600Y-36681700D03*
X137918600Y-35181700D03*
X137068600Y-35181700D03*
X137068600Y-36681700D03*
X137918600Y-33506700D03*
X137918600Y-32006700D03*
X137068600Y-32006700D03*
X137068600Y-33506700D03*
D16*
X154896200Y-46206700D03*
X153346200Y-46206700D03*
D10*
X125071400Y-23981700D03*
X125071400Y-22481700D03*
X124221400Y-22481700D03*
X124221400Y-23981700D03*
D17*
X165125400Y-24943400D03*
X165125400Y-23923400D03*
D10*
X131495000Y-23981700D03*
X131495000Y-22481700D03*
X130645000Y-22481700D03*
X130645000Y-23981700D03*
X141130400Y-43031700D03*
X141130400Y-41531700D03*
X140280400Y-41531700D03*
X140280400Y-43031700D03*
X115436000Y-46206700D03*
X115436000Y-44706700D03*
X114586000Y-44706700D03*
X114586000Y-46206700D03*
D17*
X165963600Y-38797400D03*
X165963600Y-37777400D03*
D10*
X137918600Y-27156700D03*
X137918600Y-25656700D03*
X137068600Y-25656700D03*
X137068600Y-27156700D03*
D18*
X169112600Y-32893000D03*
X168092600Y-32893000D03*
D19*
X162177000Y-19659600D03*
X163197000Y-19659600D03*
D10*
X131495000Y-43031700D03*
X131495000Y-41531700D03*
X130645000Y-41531700D03*
X130645000Y-43031700D03*
X144342200Y-27156700D03*
X144342200Y-25656700D03*
X143492200Y-25656700D03*
X143492200Y-27156700D03*
X134706800Y-33506700D03*
X134706800Y-32006700D03*
X133856800Y-32006700D03*
X133856800Y-33506700D03*
X141130400Y-30331700D03*
X141130400Y-28831700D03*
X140280400Y-28831700D03*
X140280400Y-30331700D03*
X128283200Y-43031700D03*
X128283200Y-41531700D03*
X127433200Y-41531700D03*
X127433200Y-43031700D03*
X144342200Y-30331700D03*
X144342200Y-28831700D03*
X143492200Y-28831700D03*
X143492200Y-30331700D03*
X102588800Y-39856700D03*
X102588800Y-38356700D03*
X101738800Y-38356700D03*
X101738800Y-39856700D03*
X128283200Y-39856700D03*
X128283200Y-38356700D03*
X127433200Y-38356700D03*
X127433200Y-39856700D03*
D16*
X154896200Y-23981700D03*
X153346200Y-23981700D03*
D10*
X137918600Y-30331700D03*
X137918600Y-28831700D03*
X137068600Y-28831700D03*
X137068600Y-30331700D03*
X137918600Y-23981700D03*
X137918600Y-22481700D03*
X137068600Y-22481700D03*
X137068600Y-23981700D03*
X125071400Y-43031700D03*
X125071400Y-41531700D03*
X124221400Y-41531700D03*
X124221400Y-43031700D03*
D17*
X162836800Y-36802600D03*
X162836800Y-35782600D03*
D10*
X115436000Y-39856700D03*
X115436000Y-38356700D03*
X114586000Y-38356700D03*
X114586000Y-39856700D03*
X147554000Y-36681700D03*
X147554000Y-35181700D03*
X146704000Y-35181700D03*
X146704000Y-36681700D03*
X150765800Y-27156700D03*
X150765800Y-25656700D03*
X149915800Y-25656700D03*
X149915800Y-27156700D03*
X102588800Y-23981700D03*
X102588800Y-22481700D03*
X101738800Y-22481700D03*
X101738800Y-23981700D03*
D12*
X157426600Y-38756400D03*
X157426600Y-37796400D03*
D10*
X150765800Y-46206700D03*
X150765800Y-44706700D03*
X149915800Y-44706700D03*
X149915800Y-46206700D03*
X141130400Y-27156700D03*
X141130400Y-25656700D03*
X140280400Y-25656700D03*
X140280400Y-27156700D03*
X118647800Y-46206700D03*
X118647800Y-44706700D03*
X117797800Y-44706700D03*
X117797800Y-46206700D03*
D20*
X157480000Y-31877000D03*
X158440000Y-31877000D03*
D21*
X166869900Y-22411600D03*
X166869900Y-21461600D03*
X166869900Y-20511600D03*
X164594900Y-20511600D03*
X164594900Y-22411600D03*
D10*
X144342200Y-39856700D03*
X144342200Y-38356700D03*
X143492200Y-38356700D03*
X143492200Y-39856700D03*
D22*
X161219000Y-36636400D03*
X159019000Y-36636400D03*
X159019000Y-38336400D03*
X161219000Y-38336400D03*
D10*
X118647800Y-30331700D03*
X118647800Y-28831700D03*
X117797800Y-28831700D03*
X117797800Y-30331700D03*
X112224200Y-33506700D03*
X112224200Y-32006700D03*
X111374200Y-32006700D03*
X111374200Y-33506700D03*
X102588800Y-27156700D03*
X102588800Y-25656700D03*
X101738800Y-25656700D03*
X101738800Y-27156700D03*
X137918600Y-43031700D03*
X137918600Y-41531700D03*
X137068600Y-41531700D03*
X137068600Y-43031700D03*
X121859600Y-39856700D03*
X121859600Y-38356700D03*
X121009600Y-38356700D03*
X121009600Y-39856700D03*
D12*
X163860600Y-38767400D03*
X163860600Y-37807400D03*
D10*
X150765800Y-23981700D03*
X150765800Y-22481700D03*
X149915800Y-22481700D03*
X149915800Y-23981700D03*
X147554000Y-33506700D03*
X147554000Y-32006700D03*
X146704000Y-32006700D03*
X146704000Y-33506700D03*
X115436000Y-33506700D03*
X115436000Y-32006700D03*
X114586000Y-32006700D03*
X114586000Y-33506700D03*
D15*
X164106800Y-23953400D03*
X164106800Y-24913400D03*
D10*
X134706800Y-36681700D03*
X134706800Y-35181700D03*
X133856800Y-35181700D03*
X133856800Y-36681700D03*
X105800600Y-43031700D03*
X105800600Y-41531700D03*
X104950600Y-41531700D03*
X104950600Y-43031700D03*
X109012400Y-30331700D03*
X109012400Y-28831700D03*
X108162400Y-28831700D03*
X108162400Y-30331700D03*
X141130400Y-23981700D03*
X141130400Y-22481700D03*
X140280400Y-22481700D03*
X140280400Y-23981700D03*
X144342200Y-23981700D03*
X144342200Y-22481700D03*
X143492200Y-22481700D03*
X143492200Y-23981700D03*
X141130400Y-39856700D03*
X141130400Y-38356700D03*
X140280400Y-38356700D03*
X140280400Y-39856700D03*
X141130400Y-46206700D03*
X141130400Y-44706700D03*
X140280400Y-44706700D03*
X140280400Y-46206700D03*
X105800600Y-30331700D03*
X105800600Y-28831700D03*
X104950600Y-28831700D03*
X104950600Y-30331700D03*
X105800600Y-23981700D03*
X105800600Y-22481700D03*
X104950600Y-22481700D03*
X104950600Y-23981700D03*
D20*
X168122600Y-29286200D03*
X169082600Y-29286200D03*
D10*
X109012400Y-27156700D03*
X109012400Y-25656700D03*
X108162400Y-25656700D03*
X108162400Y-27156700D03*
X112224200Y-27156700D03*
X112224200Y-25656700D03*
X111374200Y-25656700D03*
X111374200Y-27156700D03*
D23*
X157914300Y-23658000D03*
X157914300Y-24158000D03*
X157914300Y-24658000D03*
X157914300Y-25158000D03*
X160614300Y-25158000D03*
X160614300Y-24658000D03*
X160614300Y-24158000D03*
X160614300Y-23658000D03*
D24*
X159264300Y-24408000D03*
D10*
X147554000Y-30331700D03*
X147554000Y-28831700D03*
X146704000Y-28831700D03*
X146704000Y-30331700D03*
D15*
X162836800Y-37796400D03*
X162836800Y-38756400D03*
D10*
X144342200Y-43031700D03*
X144342200Y-41531700D03*
X143492200Y-41531700D03*
X143492200Y-43031700D03*
X134706800Y-23981700D03*
X134706800Y-22481700D03*
X133856800Y-22481700D03*
X133856800Y-23981700D03*
D15*
X163090300Y-23953400D03*
X163090300Y-24913400D03*
D10*
X112224200Y-43031700D03*
X112224200Y-41531700D03*
X111374200Y-41531700D03*
X111374200Y-43031700D03*
X102588800Y-36681700D03*
X102588800Y-35181700D03*
X101738800Y-35181700D03*
X101738800Y-36681700D03*
D16*
X154896200Y-39856700D03*
X153346200Y-39856700D03*
D10*
X125071400Y-46206700D03*
X125071400Y-44706700D03*
X124221400Y-44706700D03*
X124221400Y-46206700D03*
D18*
X169112600Y-24160000D03*
X168092600Y-24160000D03*
D25*
X171207000Y-29110000D03*
X171207000Y-28310000D03*
D26*
X171207000Y-27160000D03*
X171207000Y-26160000D03*
X171207000Y-25660000D03*
X171207000Y-24660000D03*
D25*
X171207000Y-23510000D03*
X171207000Y-22710000D03*
X171207000Y-22710000D03*
X171207000Y-23510000D03*
D26*
X171207000Y-24160000D03*
X171207000Y-25160000D03*
X171207000Y-26660000D03*
X171207000Y-27660000D03*
D25*
X171207000Y-28310000D03*
X171207000Y-29110000D03*
D27*
X171782000Y-30230000D03*
D28*
X175962000Y-30230000D03*
D27*
X171782000Y-21590000D03*
D28*
X175962000Y-21590000D03*
D10*
X137918600Y-39856700D03*
X137918600Y-38356700D03*
X137068600Y-38356700D03*
X137068600Y-39856700D03*
X112224200Y-39856700D03*
X112224200Y-38356700D03*
X111374200Y-38356700D03*
X111374200Y-39856700D03*
D29*
X162490300Y-30077000D03*
X162490300Y-31677000D03*
X164090300Y-30077000D03*
X164090300Y-31677000D03*
D30*
X159852800Y-28277000D03*
X159852800Y-28677000D03*
X159852800Y-29077000D03*
X159852800Y-29477000D03*
X159852800Y-29877000D03*
X159852800Y-30277000D03*
X159852800Y-30677000D03*
X159852800Y-31077000D03*
X159852800Y-31477000D03*
X159852800Y-31877000D03*
X159852800Y-32277000D03*
X159852800Y-32677000D03*
X159852800Y-33077000D03*
X159852800Y-33477000D03*
D31*
X160690300Y-34314500D03*
X161090300Y-34314500D03*
X161490300Y-34314500D03*
X161890300Y-34314500D03*
X162290300Y-34314500D03*
X162690300Y-34314500D03*
X163090300Y-34314500D03*
X163490300Y-34314500D03*
X163890300Y-34314500D03*
X164290300Y-34314500D03*
X164690300Y-34314500D03*
X165090300Y-34314500D03*
X165490300Y-34314500D03*
X165890300Y-34314500D03*
D30*
X166727800Y-33477000D03*
X166727800Y-33077000D03*
X166727800Y-32677000D03*
X166727800Y-32277000D03*
X166727800Y-31877000D03*
X166727800Y-31477000D03*
X166727800Y-31077000D03*
X166727800Y-30677000D03*
X166727800Y-30277000D03*
X166727800Y-29877000D03*
X166727800Y-29477000D03*
X166727800Y-29077000D03*
X166727800Y-28677000D03*
X166727800Y-28277000D03*
D31*
X165890300Y-27439500D03*
X165490300Y-27439500D03*
X165090300Y-27439500D03*
X164690300Y-27439500D03*
X164290300Y-27439500D03*
X163890300Y-27439500D03*
X163490300Y-27439500D03*
X163090300Y-27439500D03*
X162690300Y-27439500D03*
X162290300Y-27439500D03*
X161890300Y-27439500D03*
X161490300Y-27439500D03*
X161090300Y-27439500D03*
X160690300Y-27439500D03*
D10*
X131495000Y-27156700D03*
X131495000Y-25656700D03*
X130645000Y-25656700D03*
X130645000Y-27156700D03*
D16*
X154896200Y-36681700D03*
X153346200Y-36681700D03*
D10*
X150765800Y-39856700D03*
X150765800Y-38356700D03*
X149915800Y-38356700D03*
X149915800Y-39856700D03*
X121859600Y-23981700D03*
X121859600Y-22481700D03*
X121009600Y-22481700D03*
X121009600Y-23981700D03*
X115436000Y-36681700D03*
X115436000Y-35181700D03*
X114586000Y-35181700D03*
X114586000Y-36681700D03*
D16*
X154896200Y-43031700D03*
X153346200Y-43031700D03*
D18*
X169112600Y-27160000D03*
X168092600Y-27160000D03*
D10*
X115436000Y-43031700D03*
X115436000Y-41531700D03*
X114586000Y-41531700D03*
X114586000Y-43031700D03*
X150765800Y-43031700D03*
X150765800Y-41531700D03*
X149915800Y-41531700D03*
X149915800Y-43031700D03*
X128283200Y-33506700D03*
X128283200Y-32006700D03*
X127433200Y-32006700D03*
X127433200Y-33506700D03*
X134706800Y-30331700D03*
X134706800Y-28831700D03*
X133856800Y-28831700D03*
X133856800Y-30331700D03*
X131495000Y-33506700D03*
X131495000Y-32006700D03*
X130645000Y-32006700D03*
X130645000Y-33506700D03*
X112224200Y-36681700D03*
X112224200Y-35181700D03*
X111374200Y-35181700D03*
X111374200Y-36681700D03*
X134706800Y-27156700D03*
X134706800Y-25656700D03*
X133856800Y-25656700D03*
X133856800Y-27156700D03*
X131495000Y-30331700D03*
X131495000Y-28831700D03*
X130645000Y-28831700D03*
X130645000Y-30331700D03*
X102588800Y-43031700D03*
X102588800Y-41531700D03*
X101738800Y-41531700D03*
X101738800Y-43031700D03*
X105800600Y-39856700D03*
X105800600Y-38356700D03*
X104950600Y-38356700D03*
X104950600Y-39856700D03*
X109012400Y-36681700D03*
X109012400Y-35181700D03*
X108162400Y-35181700D03*
X108162400Y-36681700D03*
D14*
X169082600Y-33909000D03*
X168122600Y-33909000D03*
D10*
X112224200Y-30331700D03*
X112224200Y-28831700D03*
X111374200Y-28831700D03*
X111374200Y-30331700D03*
D14*
X169082600Y-28277000D03*
X168122600Y-28277000D03*
D10*
X121859600Y-33506700D03*
X121859600Y-32006700D03*
X121009600Y-32006700D03*
X121009600Y-33506700D03*
X134706800Y-46206700D03*
X134706800Y-44706700D03*
X133856800Y-44706700D03*
X133856800Y-46206700D03*
X112224200Y-46206700D03*
X112224200Y-44706700D03*
X111374200Y-44706700D03*
X111374200Y-46206700D03*
D16*
X154896200Y-33506700D03*
X153346200Y-33506700D03*
D10*
X128283200Y-30331700D03*
X128283200Y-28831700D03*
X127433200Y-28831700D03*
X127433200Y-30331700D03*
D13*
X169968400Y-42830000D03*
X175968400Y-42830000D03*
X169968400Y-46530000D03*
X175968400Y-46530000D03*
D10*
X115436000Y-30331700D03*
X115436000Y-28831700D03*
X114586000Y-28831700D03*
X114586000Y-30331700D03*
X105800600Y-27156700D03*
X105800600Y-25656700D03*
X104950600Y-25656700D03*
X104950600Y-27156700D03*
X121859600Y-46206700D03*
X121859600Y-44706700D03*
X121009600Y-44706700D03*
X121009600Y-46206700D03*
X105800600Y-36681700D03*
X105800600Y-35181700D03*
X104950600Y-35181700D03*
X104950600Y-36681700D03*
X131495000Y-39856700D03*
X131495000Y-38356700D03*
X130645000Y-38356700D03*
X130645000Y-39856700D03*
X105800600Y-33506700D03*
X105800600Y-32006700D03*
X104950600Y-32006700D03*
X104950600Y-33506700D03*
X118647800Y-33506700D03*
X118647800Y-32006700D03*
X117797800Y-32006700D03*
X117797800Y-33506700D03*
D16*
X154896200Y-27156700D03*
X153346200Y-27156700D03*
D14*
X169082600Y-31877000D03*
X168122600Y-31877000D03*
D32*
X162887600Y-20906600D03*
X162887600Y-22456600D03*
D12*
X167027800Y-38767400D03*
X167027800Y-37807400D03*
D10*
X109012400Y-46206700D03*
X109012400Y-44706700D03*
X108162400Y-44706700D03*
X108162400Y-46206700D03*
D14*
X160614300Y-22706200D03*
X159654300Y-22706200D03*
D10*
X134706800Y-39856700D03*
X134706800Y-38356700D03*
X133856800Y-38356700D03*
X133856800Y-39856700D03*
X102588800Y-30331700D03*
X102588800Y-28831700D03*
X101738800Y-28831700D03*
X101738800Y-30331700D03*
D20*
X157480000Y-28277000D03*
X158440000Y-28277000D03*
D10*
X125071400Y-39856700D03*
X125071400Y-38356700D03*
X124221400Y-38356700D03*
X124221400Y-39856700D03*
X131495000Y-46206700D03*
X131495000Y-44706700D03*
X130645000Y-44706700D03*
X130645000Y-46206700D03*
X115436000Y-27156700D03*
X115436000Y-25656700D03*
X114586000Y-25656700D03*
X114586000Y-27156700D03*
X144342200Y-46206700D03*
X144342200Y-44706700D03*
X143492200Y-44706700D03*
X143492200Y-46206700D03*
X112224200Y-23981700D03*
X112224200Y-22481700D03*
X111374200Y-22481700D03*
X111374200Y-23981700D03*
X141130400Y-36681700D03*
X141130400Y-35181700D03*
X140280400Y-35181700D03*
X140280400Y-36681700D03*
X125071400Y-27156700D03*
X125071400Y-25656700D03*
X124221400Y-25656700D03*
X124221400Y-27156700D03*
D32*
X153365200Y-20831800D03*
X153365200Y-22381800D03*
D10*
X150765800Y-33506700D03*
X150765800Y-32006700D03*
X149915800Y-32006700D03*
X149915800Y-33506700D03*
D17*
X166166800Y-24943400D03*
X166166800Y-23923400D03*
D10*
X118647800Y-27156700D03*
X118647800Y-25656700D03*
X117797800Y-25656700D03*
X117797800Y-27156700D03*
X125071400Y-30331700D03*
X125071400Y-28831700D03*
X124221400Y-28831700D03*
X124221400Y-30331700D03*
X150765800Y-36681700D03*
X150765800Y-35181700D03*
X149915800Y-35181700D03*
X149915800Y-36681700D03*
X115436000Y-23981700D03*
X115436000Y-22481700D03*
X114586000Y-22481700D03*
X114586000Y-23981700D03*
X118647800Y-23981700D03*
X118647800Y-22481700D03*
X117797800Y-22481700D03*
X117797800Y-23981700D03*
X118647800Y-39856700D03*
X118647800Y-38356700D03*
X117797800Y-38356700D03*
X117797800Y-39856700D03*
X121859600Y-30331700D03*
X121859600Y-28831700D03*
X121009600Y-28831700D03*
X121009600Y-30331700D03*
D32*
X168579800Y-20916600D03*
X168579800Y-22466600D03*
D10*
X125071400Y-33506700D03*
X125071400Y-32006700D03*
X124221400Y-32006700D03*
X124221400Y-33506700D03*
X109012400Y-43031700D03*
X109012400Y-41531700D03*
X108162400Y-41531700D03*
X108162400Y-43031700D03*
X118647800Y-36681700D03*
X118647800Y-35181700D03*
X117797800Y-35181700D03*
X117797800Y-36681700D03*
X131495000Y-36681700D03*
X131495000Y-35181700D03*
X130645000Y-35181700D03*
X130645000Y-36681700D03*
X147554000Y-43031700D03*
X147554000Y-41531700D03*
X146704000Y-41531700D03*
X146704000Y-43031700D03*
X125071400Y-36681700D03*
X125071400Y-35181700D03*
X124221400Y-35181700D03*
X124221400Y-36681700D03*
D16*
X154896200Y-30331700D03*
X153346200Y-30331700D03*
D19*
X157704000Y-22706200D03*
X158724000Y-22706200D03*
D10*
X109012400Y-23981700D03*
X109012400Y-22481700D03*
X108162400Y-22481700D03*
X108162400Y-23981700D03*
X128283200Y-36681700D03*
X128283200Y-35181700D03*
X127433200Y-35181700D03*
X127433200Y-36681700D03*
D14*
X169082600Y-30861000D03*
X168122600Y-30861000D03*
D10*
X109012400Y-33506700D03*
X109012400Y-32006700D03*
X108162400Y-32006700D03*
X108162400Y-33506700D03*
X118647800Y-43031700D03*
X118647800Y-41531700D03*
X117797800Y-41531700D03*
X117797800Y-43031700D03*
X147554000Y-27156700D03*
X147554000Y-25656700D03*
X146704000Y-25656700D03*
X146704000Y-27156700D03*
M02*
