G04 #@! TF.GenerationSoftware,KiCad,Pcbnew,8.0.1*
G04 #@! TF.CreationDate,2024-05-08T20:32:46+02:00*
G04 #@! TF.ProjectId,TGL_Board,54474c5f-426f-4617-9264-2e6b69636164,rev?*
G04 #@! TF.SameCoordinates,Original*
G04 #@! TF.FileFunction,Legend,Top*
G04 #@! TF.FilePolarity,Positive*
%FSLAX46Y46*%
G04 Gerber Fmt 4.6, Leading zero omitted, Abs format (unit mm)*
G04 Created by KiCad (PCBNEW 8.0.1) date 2024-05-08 20:32:46*
%MOMM*%
%LPD*%
G01*
G04 APERTURE LIST*
G04 Aperture macros list*
%AMRoundRect*
0 Rectangle with rounded corners*
0 $1 Rounding radius*
0 $2 $3 $4 $5 $6 $7 $8 $9 X,Y pos of 4 corners*
0 Add a 4 corners polygon primitive as box body*
4,1,4,$2,$3,$4,$5,$6,$7,$8,$9,$2,$3,0*
0 Add four circle primitives for the rounded corners*
1,1,$1+$1,$2,$3*
1,1,$1+$1,$4,$5*
1,1,$1+$1,$6,$7*
1,1,$1+$1,$8,$9*
0 Add four rect primitives between the rounded corners*
20,1,$1+$1,$2,$3,$4,$5,0*
20,1,$1+$1,$4,$5,$6,$7,0*
20,1,$1+$1,$6,$7,$8,$9,0*
20,1,$1+$1,$8,$9,$2,$3,0*%
G04 Aperture macros list end*
%ADD10C,0.153000*%
%ADD11C,0.200000*%
%ADD12C,0.120000*%
%ADD13C,0.250000*%
%ADD14RoundRect,0.162500X-0.162500X0.237500X-0.162500X-0.237500X0.162500X-0.237500X0.162500X0.237500X0*%
%ADD15RoundRect,0.250000X-0.475000X0.250000X-0.475000X-0.250000X0.475000X-0.250000X0.475000X0.250000X0*%
%ADD16RoundRect,0.140000X0.170000X-0.140000X0.170000X0.140000X-0.170000X0.140000X-0.170000X-0.140000X0*%
%ADD17R,1.000000X0.700000*%
%ADD18RoundRect,0.140000X0.140000X0.170000X-0.140000X0.170000X-0.140000X-0.170000X0.140000X-0.170000X0*%
%ADD19RoundRect,0.140000X-0.170000X0.140000X-0.170000X-0.140000X0.170000X-0.140000X0.170000X0.140000X0*%
%ADD20RoundRect,0.225000X0.225000X0.250000X-0.225000X0.250000X-0.225000X-0.250000X0.225000X-0.250000X0*%
%ADD21RoundRect,0.135000X0.185000X-0.135000X0.185000X0.135000X-0.185000X0.135000X-0.185000X-0.135000X0*%
%ADD22RoundRect,0.135000X0.135000X0.185000X-0.135000X0.185000X-0.135000X-0.185000X0.135000X-0.185000X0*%
%ADD23RoundRect,0.135000X-0.135000X-0.185000X0.135000X-0.185000X0.135000X0.185000X-0.135000X0.185000X0*%
%ADD24RoundRect,0.140000X-0.140000X-0.170000X0.140000X-0.170000X0.140000X0.170000X-0.140000X0.170000X0*%
%ADD25RoundRect,0.150000X0.512500X0.150000X-0.512500X0.150000X-0.512500X-0.150000X0.512500X-0.150000X0*%
%ADD26R,1.400000X1.200000*%
%ADD27R,0.800000X0.300000*%
%ADD28R,0.250000X1.650000*%
%ADD29C,0.650000*%
%ADD30RoundRect,0.150000X0.425000X-0.150000X0.425000X0.150000X-0.425000X0.150000X-0.425000X-0.150000X0*%
%ADD31RoundRect,0.075000X0.500000X-0.075000X0.500000X0.075000X-0.500000X0.075000X-0.500000X-0.075000X0*%
%ADD32O,2.100000X1.000000*%
%ADD33O,1.800000X1.000000*%
%ADD34RoundRect,0.050000X-0.387500X-0.050000X0.387500X-0.050000X0.387500X0.050000X-0.387500X0.050000X0*%
%ADD35RoundRect,0.050000X-0.050000X-0.387500X0.050000X-0.387500X0.050000X0.387500X-0.050000X0.387500X0*%
%ADD36R,3.200000X3.200000*%
%ADD37RoundRect,0.225000X-0.250000X0.225000X-0.250000X-0.225000X0.250000X-0.225000X0.250000X0.225000X0*%
%ADD38C,0.990600*%
G04 APERTURE END LIST*
D10*
G36*
X160996998Y-48226806D02*
G01*
X161025638Y-48282393D01*
X161025858Y-48298875D01*
X160701184Y-48364802D01*
X160700893Y-48286573D01*
X160729143Y-48228320D01*
X160784534Y-48199781D01*
X160938992Y-48198676D01*
X160996998Y-48226806D01*
G37*
G36*
X162377951Y-48226806D02*
G01*
X162406591Y-48282393D01*
X162406811Y-48298875D01*
X162082137Y-48364802D01*
X162081846Y-48286573D01*
X162110096Y-48228320D01*
X162165487Y-48199781D01*
X162319945Y-48198676D01*
X162377951Y-48226806D01*
G37*
G36*
X164192827Y-48977674D02*
G01*
X159485741Y-48977674D01*
X159485741Y-47980539D01*
X159596852Y-47980539D01*
X159597974Y-48064645D01*
X159597453Y-48066209D01*
X159598120Y-48075601D01*
X159598322Y-48090701D01*
X159599374Y-48093241D01*
X159599569Y-48095983D01*
X159604928Y-48109989D01*
X159653656Y-48204566D01*
X159657364Y-48213516D01*
X159659793Y-48216476D01*
X159660536Y-48217918D01*
X159662062Y-48219242D01*
X159666877Y-48225109D01*
X159715976Y-48272484D01*
X159721687Y-48279069D01*
X159724890Y-48281085D01*
X159726088Y-48282241D01*
X159727953Y-48283013D01*
X159734378Y-48287058D01*
X159825548Y-48331271D01*
X159831152Y-48335423D01*
X159842389Y-48339438D01*
X159843622Y-48340036D01*
X159844171Y-48340075D01*
X159845274Y-48340469D01*
X160022513Y-48383470D01*
X160102230Y-48422128D01*
X160133227Y-48452038D01*
X160168495Y-48520488D01*
X160169288Y-48579947D01*
X160136522Y-48647514D01*
X160106613Y-48678510D01*
X160038402Y-48713655D01*
X159832251Y-48714853D01*
X159682920Y-48666545D01*
X159653146Y-48668661D01*
X159626449Y-48682010D01*
X159606892Y-48704559D01*
X159597453Y-48732876D01*
X159599569Y-48762650D01*
X159612918Y-48789347D01*
X159635467Y-48808904D01*
X159649161Y-48815018D01*
X159791769Y-48861151D01*
X159801285Y-48865093D01*
X159805122Y-48865470D01*
X159806640Y-48865962D01*
X159808654Y-48865818D01*
X159816209Y-48866563D01*
X160042593Y-48865247D01*
X160044736Y-48865962D01*
X160055871Y-48865170D01*
X160069228Y-48865093D01*
X160071768Y-48864040D01*
X160074510Y-48863846D01*
X160088516Y-48858487D01*
X160183089Y-48809760D01*
X160192044Y-48806051D01*
X160195004Y-48803621D01*
X160196445Y-48802879D01*
X160197769Y-48801352D01*
X160203636Y-48796537D01*
X160251006Y-48747441D01*
X160257596Y-48741727D01*
X160259614Y-48738520D01*
X160260768Y-48737325D01*
X160261539Y-48735462D01*
X160265585Y-48729036D01*
X160307152Y-48643321D01*
X160308387Y-48642087D01*
X160312111Y-48633095D01*
X160318563Y-48619792D01*
X160318757Y-48617050D01*
X160319810Y-48614510D01*
X160321280Y-48599586D01*
X160320157Y-48515479D01*
X160320679Y-48513916D01*
X160320011Y-48504523D01*
X160319810Y-48489424D01*
X160318757Y-48486883D01*
X160318563Y-48484142D01*
X160313204Y-48470136D01*
X160306338Y-48456809D01*
X160549233Y-48456809D01*
X160549953Y-48460413D01*
X160550603Y-48635328D01*
X160549834Y-48637637D01*
X160550654Y-48649188D01*
X160550703Y-48662129D01*
X160551755Y-48664669D01*
X160551950Y-48667411D01*
X160557309Y-48681417D01*
X160604364Y-48772746D01*
X160606892Y-48780329D01*
X160610289Y-48784246D01*
X160612917Y-48789346D01*
X160620161Y-48795629D01*
X160626449Y-48802879D01*
X160634003Y-48807634D01*
X160635467Y-48808904D01*
X160636642Y-48809295D01*
X160639140Y-48810868D01*
X160724854Y-48852435D01*
X160726089Y-48853670D01*
X160735080Y-48857394D01*
X160748384Y-48863846D01*
X160751125Y-48864040D01*
X160753666Y-48865093D01*
X160768590Y-48866563D01*
X160947460Y-48865282D01*
X160949498Y-48865962D01*
X160960352Y-48865190D01*
X160973990Y-48865093D01*
X160976530Y-48864040D01*
X160979272Y-48863846D01*
X160993278Y-48858487D01*
X161101207Y-48802879D01*
X161120764Y-48780329D01*
X161130203Y-48752012D01*
X161128087Y-48722238D01*
X161114738Y-48695541D01*
X161092189Y-48675984D01*
X161063872Y-48666545D01*
X161034098Y-48668661D01*
X161020092Y-48674020D01*
X160943121Y-48713677D01*
X160788663Y-48714782D01*
X160730657Y-48686652D01*
X160702174Y-48631368D01*
X160701758Y-48519352D01*
X161109681Y-48436521D01*
X161116847Y-48436521D01*
X161123737Y-48433666D01*
X161131271Y-48432137D01*
X161137498Y-48427966D01*
X161144424Y-48425098D01*
X161149779Y-48419742D01*
X161156073Y-48415528D01*
X161160230Y-48409291D01*
X161165530Y-48403992D01*
X161168428Y-48396994D01*
X161172630Y-48390692D01*
X161174084Y-48383341D01*
X161176953Y-48376415D01*
X161178423Y-48361491D01*
X161177300Y-48277384D01*
X161177822Y-48275821D01*
X161177154Y-48266428D01*
X161176953Y-48251329D01*
X161175900Y-48248788D01*
X161175706Y-48246047D01*
X161170347Y-48232041D01*
X161123290Y-48140709D01*
X161120764Y-48133130D01*
X161117367Y-48129213D01*
X161114739Y-48124112D01*
X161107492Y-48117826D01*
X161101207Y-48110580D01*
X161093653Y-48105824D01*
X161092189Y-48104555D01*
X161091013Y-48104163D01*
X161088516Y-48102591D01*
X161002801Y-48061023D01*
X161001567Y-48059789D01*
X160992575Y-48056064D01*
X160979272Y-48049613D01*
X160976530Y-48049418D01*
X160973990Y-48048366D01*
X160959066Y-48046896D01*
X160780195Y-48048176D01*
X160778158Y-48047497D01*
X160767303Y-48048268D01*
X160753666Y-48048366D01*
X160751125Y-48049418D01*
X160748384Y-48049613D01*
X160734378Y-48054972D01*
X160643046Y-48102028D01*
X160635467Y-48104555D01*
X160631550Y-48107951D01*
X160626449Y-48110580D01*
X160620163Y-48117826D01*
X160612917Y-48124112D01*
X160608161Y-48131665D01*
X160606892Y-48133130D01*
X160606500Y-48134305D01*
X160604928Y-48136803D01*
X160563360Y-48222517D01*
X160562126Y-48223752D01*
X160558401Y-48232743D01*
X160551950Y-48246047D01*
X160551755Y-48248788D01*
X160550703Y-48251329D01*
X160549233Y-48266253D01*
X160549927Y-48453298D01*
X160549233Y-48456809D01*
X160306338Y-48456809D01*
X160264475Y-48375559D01*
X160260768Y-48366608D01*
X160258338Y-48363647D01*
X160257596Y-48362207D01*
X160256069Y-48360882D01*
X160251254Y-48355016D01*
X160202160Y-48307646D01*
X160196445Y-48301056D01*
X160193238Y-48299037D01*
X160192043Y-48297884D01*
X160190180Y-48297112D01*
X160183754Y-48293067D01*
X160092583Y-48248853D01*
X160086980Y-48244702D01*
X160075742Y-48240686D01*
X160074510Y-48240089D01*
X160073960Y-48240049D01*
X160072858Y-48239656D01*
X159895618Y-48196654D01*
X159815899Y-48157995D01*
X159784905Y-48128088D01*
X159749636Y-48059636D01*
X159748843Y-48000177D01*
X159781608Y-47932612D01*
X159811518Y-47901615D01*
X159879729Y-47866470D01*
X160085880Y-47865272D01*
X160235211Y-47913581D01*
X160264985Y-47911465D01*
X160291682Y-47898116D01*
X160311240Y-47875567D01*
X160320679Y-47847250D01*
X160318562Y-47817476D01*
X160305214Y-47790779D01*
X160304388Y-47790063D01*
X161453995Y-47790063D01*
X161455419Y-48635166D01*
X161454596Y-48637637D01*
X161455443Y-48649566D01*
X161455465Y-48662129D01*
X161456517Y-48664669D01*
X161456712Y-48667411D01*
X161462071Y-48681417D01*
X161509126Y-48772746D01*
X161511654Y-48780329D01*
X161515051Y-48784246D01*
X161517679Y-48789346D01*
X161524923Y-48795629D01*
X161531211Y-48802879D01*
X161538765Y-48807634D01*
X161540229Y-48808904D01*
X161541404Y-48809295D01*
X161543902Y-48810868D01*
X161653146Y-48863846D01*
X161682920Y-48865962D01*
X161711237Y-48856523D01*
X161733786Y-48836966D01*
X161747135Y-48810269D01*
X161749251Y-48780495D01*
X161739812Y-48752178D01*
X161720255Y-48729628D01*
X161707564Y-48721639D01*
X161635419Y-48686652D01*
X161606968Y-48631431D01*
X161606674Y-48456809D01*
X161930186Y-48456809D01*
X161930906Y-48460413D01*
X161931556Y-48635328D01*
X161930787Y-48637637D01*
X161931607Y-48649188D01*
X161931656Y-48662129D01*
X161932708Y-48664669D01*
X161932903Y-48667411D01*
X161938262Y-48681417D01*
X161985317Y-48772746D01*
X161987845Y-48780329D01*
X161991242Y-48784246D01*
X161993870Y-48789346D01*
X162001114Y-48795629D01*
X162007402Y-48802879D01*
X162014956Y-48807634D01*
X162016420Y-48808904D01*
X162017595Y-48809295D01*
X162020093Y-48810868D01*
X162105807Y-48852435D01*
X162107042Y-48853670D01*
X162116033Y-48857394D01*
X162129337Y-48863846D01*
X162132078Y-48864040D01*
X162134619Y-48865093D01*
X162149543Y-48866563D01*
X162328413Y-48865282D01*
X162330451Y-48865962D01*
X162341305Y-48865190D01*
X162354943Y-48865093D01*
X162357483Y-48864040D01*
X162360225Y-48863846D01*
X162374231Y-48858487D01*
X162482160Y-48802879D01*
X162501717Y-48780329D01*
X162511156Y-48752012D01*
X162509040Y-48722238D01*
X162495691Y-48695541D01*
X162473142Y-48675984D01*
X162444825Y-48666545D01*
X162415051Y-48668661D01*
X162401045Y-48674020D01*
X162324074Y-48713677D01*
X162169616Y-48714782D01*
X162111610Y-48686652D01*
X162083127Y-48631368D01*
X162082711Y-48519352D01*
X162490634Y-48436521D01*
X162497800Y-48436521D01*
X162504690Y-48433666D01*
X162512224Y-48432137D01*
X162518451Y-48427966D01*
X162525377Y-48425098D01*
X162530732Y-48419742D01*
X162537026Y-48415528D01*
X162541183Y-48409291D01*
X162546483Y-48403992D01*
X162549381Y-48396994D01*
X162553583Y-48390692D01*
X162555037Y-48383341D01*
X162557906Y-48376415D01*
X162559376Y-48361491D01*
X162558740Y-48313872D01*
X162787329Y-48313872D01*
X162788668Y-48587802D01*
X162787930Y-48590018D01*
X162788734Y-48601339D01*
X162788799Y-48614510D01*
X162789851Y-48617050D01*
X162790046Y-48619792D01*
X162795405Y-48633798D01*
X162844131Y-48728369D01*
X162847840Y-48737325D01*
X162850271Y-48740287D01*
X162851013Y-48741727D01*
X162852539Y-48743050D01*
X162857354Y-48748917D01*
X162906451Y-48796292D01*
X162912164Y-48802879D01*
X162915367Y-48804895D01*
X162916565Y-48806051D01*
X162918430Y-48806823D01*
X162924855Y-48810868D01*
X163010569Y-48852435D01*
X163011804Y-48853670D01*
X163020795Y-48857394D01*
X163034099Y-48863846D01*
X163036840Y-48864040D01*
X163039381Y-48865093D01*
X163054305Y-48866563D01*
X163233175Y-48865282D01*
X163235213Y-48865962D01*
X163246067Y-48865190D01*
X163259705Y-48865093D01*
X163262245Y-48864040D01*
X163264987Y-48863846D01*
X163278993Y-48858487D01*
X163386922Y-48802879D01*
X163406479Y-48780329D01*
X163415918Y-48752012D01*
X163413802Y-48722238D01*
X163400453Y-48695541D01*
X163377904Y-48675984D01*
X163349587Y-48666545D01*
X163319813Y-48668661D01*
X163305807Y-48674020D01*
X163228836Y-48713677D01*
X163074378Y-48714782D01*
X163006377Y-48681805D01*
X162975381Y-48651897D01*
X162940251Y-48583712D01*
X162939030Y-48334107D01*
X162972085Y-48265945D01*
X163001995Y-48234948D01*
X163070249Y-48199781D01*
X163224707Y-48198676D01*
X163319813Y-48244798D01*
X163349587Y-48246914D01*
X163377904Y-48237475D01*
X163400453Y-48217918D01*
X163413802Y-48191221D01*
X163415918Y-48161447D01*
X163408209Y-48138320D01*
X163550704Y-48138320D01*
X163562127Y-48165897D01*
X163583233Y-48187003D01*
X163610810Y-48198426D01*
X163625734Y-48199896D01*
X163692781Y-48199647D01*
X163693515Y-48635166D01*
X163692692Y-48637637D01*
X163693539Y-48649566D01*
X163693561Y-48662129D01*
X163694613Y-48664669D01*
X163694808Y-48667411D01*
X163700167Y-48681417D01*
X163747222Y-48772746D01*
X163749750Y-48780329D01*
X163753147Y-48784246D01*
X163755775Y-48789346D01*
X163763019Y-48795629D01*
X163769307Y-48802879D01*
X163776861Y-48807634D01*
X163778325Y-48808904D01*
X163779500Y-48809295D01*
X163781998Y-48810868D01*
X163867712Y-48852435D01*
X163868947Y-48853670D01*
X163877938Y-48857394D01*
X163891242Y-48863846D01*
X163893983Y-48864040D01*
X163896524Y-48865093D01*
X163911448Y-48866563D01*
X164021610Y-48865093D01*
X164049187Y-48853670D01*
X164070293Y-48832564D01*
X164081716Y-48804987D01*
X164081716Y-48775139D01*
X164070293Y-48747562D01*
X164049187Y-48726456D01*
X164021610Y-48715033D01*
X164006686Y-48713563D01*
X163931086Y-48714571D01*
X163873515Y-48686652D01*
X163845064Y-48631431D01*
X163844335Y-48199084D01*
X164021610Y-48198426D01*
X164049187Y-48187003D01*
X164070293Y-48165897D01*
X164081716Y-48138320D01*
X164081716Y-48108472D01*
X164070293Y-48080895D01*
X164049187Y-48059789D01*
X164021610Y-48048366D01*
X164006686Y-48046896D01*
X163844080Y-48047499D01*
X163843621Y-47775139D01*
X163832198Y-47747562D01*
X163811092Y-47726456D01*
X163783515Y-47715033D01*
X163753667Y-47715033D01*
X163726090Y-47726456D01*
X163704984Y-47747562D01*
X163693561Y-47775139D01*
X163692091Y-47790063D01*
X163692525Y-48048062D01*
X163610810Y-48048366D01*
X163583233Y-48059789D01*
X163562127Y-48080895D01*
X163550704Y-48108472D01*
X163550704Y-48138320D01*
X163408209Y-48138320D01*
X163406479Y-48133130D01*
X163386922Y-48110580D01*
X163374231Y-48102591D01*
X163288516Y-48061023D01*
X163287282Y-48059789D01*
X163278290Y-48056064D01*
X163264987Y-48049613D01*
X163262245Y-48049418D01*
X163259705Y-48048366D01*
X163244781Y-48046896D01*
X163065910Y-48048176D01*
X163063873Y-48047497D01*
X163053018Y-48048268D01*
X163039381Y-48048366D01*
X163036840Y-48049418D01*
X163034099Y-48049613D01*
X163020093Y-48054972D01*
X162925516Y-48103700D01*
X162916565Y-48107408D01*
X162913604Y-48109837D01*
X162912164Y-48110580D01*
X162910839Y-48112106D01*
X162904973Y-48116922D01*
X162857603Y-48166015D01*
X162851013Y-48171731D01*
X162848994Y-48174937D01*
X162847841Y-48176133D01*
X162847069Y-48177995D01*
X162843024Y-48184422D01*
X162801456Y-48270136D01*
X162800222Y-48271371D01*
X162796497Y-48280362D01*
X162790046Y-48293666D01*
X162789851Y-48296407D01*
X162788799Y-48298948D01*
X162787329Y-48313872D01*
X162558740Y-48313872D01*
X162558253Y-48277384D01*
X162558775Y-48275821D01*
X162558107Y-48266428D01*
X162557906Y-48251329D01*
X162556853Y-48248788D01*
X162556659Y-48246047D01*
X162551300Y-48232041D01*
X162504243Y-48140709D01*
X162501717Y-48133130D01*
X162498320Y-48129213D01*
X162495692Y-48124112D01*
X162488445Y-48117826D01*
X162482160Y-48110580D01*
X162474606Y-48105824D01*
X162473142Y-48104555D01*
X162471966Y-48104163D01*
X162469469Y-48102591D01*
X162383754Y-48061023D01*
X162382520Y-48059789D01*
X162373528Y-48056064D01*
X162360225Y-48049613D01*
X162357483Y-48049418D01*
X162354943Y-48048366D01*
X162340019Y-48046896D01*
X162161148Y-48048176D01*
X162159111Y-48047497D01*
X162148256Y-48048268D01*
X162134619Y-48048366D01*
X162132078Y-48049418D01*
X162129337Y-48049613D01*
X162115331Y-48054972D01*
X162023999Y-48102028D01*
X162016420Y-48104555D01*
X162012503Y-48107951D01*
X162007402Y-48110580D01*
X162001116Y-48117826D01*
X161993870Y-48124112D01*
X161989114Y-48131665D01*
X161987845Y-48133130D01*
X161987453Y-48134305D01*
X161985881Y-48136803D01*
X161944313Y-48222517D01*
X161943079Y-48223752D01*
X161939354Y-48232743D01*
X161932903Y-48246047D01*
X161932708Y-48248788D01*
X161931656Y-48251329D01*
X161930186Y-48266253D01*
X161930880Y-48453298D01*
X161930186Y-48456809D01*
X161606674Y-48456809D01*
X161605525Y-47775139D01*
X161594102Y-47747562D01*
X161572996Y-47726456D01*
X161545419Y-47715033D01*
X161515571Y-47715033D01*
X161487994Y-47726456D01*
X161466888Y-47747562D01*
X161455465Y-47775139D01*
X161453995Y-47790063D01*
X160304388Y-47790063D01*
X160282664Y-47771222D01*
X160268971Y-47765108D01*
X160126366Y-47718976D01*
X160116847Y-47715033D01*
X160113008Y-47714654D01*
X160111491Y-47714164D01*
X160109477Y-47714307D01*
X160101923Y-47713563D01*
X159875538Y-47714878D01*
X159873396Y-47714164D01*
X159862260Y-47714955D01*
X159848904Y-47715033D01*
X159846363Y-47716085D01*
X159843622Y-47716280D01*
X159829616Y-47721639D01*
X159735039Y-47770367D01*
X159726088Y-47774075D01*
X159723127Y-47776504D01*
X159721687Y-47777247D01*
X159720362Y-47778773D01*
X159714496Y-47783589D01*
X159667126Y-47832682D01*
X159660536Y-47838398D01*
X159658517Y-47841604D01*
X159657364Y-47842800D01*
X159656592Y-47844662D01*
X159652547Y-47851089D01*
X159610979Y-47936803D01*
X159609745Y-47938038D01*
X159606020Y-47947029D01*
X159599569Y-47960333D01*
X159599374Y-47963074D01*
X159598322Y-47965615D01*
X159596852Y-47980539D01*
X159485741Y-47980539D01*
X159485741Y-47602452D01*
X164192827Y-47602452D01*
X164192827Y-48977674D01*
G37*
G36*
X172778230Y-48231652D02*
G01*
X172809227Y-48261562D01*
X172844357Y-48329745D01*
X172845578Y-48579350D01*
X172812522Y-48647514D01*
X172782613Y-48678510D01*
X172714291Y-48713712D01*
X172607367Y-48714708D01*
X172539519Y-48681805D01*
X172508523Y-48651897D01*
X172473393Y-48583712D01*
X172472172Y-48334107D01*
X172505227Y-48265945D01*
X172535137Y-48234948D01*
X172603459Y-48199746D01*
X172710383Y-48198750D01*
X172778230Y-48231652D01*
G37*
G36*
X173702042Y-48217798D02*
G01*
X173702733Y-48695132D01*
X173666740Y-48713677D01*
X173512282Y-48714782D01*
X173444281Y-48681805D01*
X173413285Y-48651897D01*
X173378155Y-48583712D01*
X173376934Y-48334107D01*
X173409989Y-48265945D01*
X173439899Y-48234948D01*
X173508153Y-48199781D01*
X173662611Y-48198676D01*
X173702042Y-48217798D01*
G37*
G36*
X174577760Y-48226806D02*
G01*
X174606400Y-48282393D01*
X174606620Y-48298875D01*
X174281946Y-48364802D01*
X174281655Y-48286573D01*
X174309905Y-48228320D01*
X174365296Y-48199781D01*
X174519754Y-48198676D01*
X174577760Y-48226806D01*
G37*
G36*
X174870296Y-48977674D02*
G01*
X171114122Y-48977674D01*
X171114122Y-47790063D01*
X171225233Y-47790063D01*
X171226703Y-48804987D01*
X171238126Y-48832564D01*
X171259232Y-48853670D01*
X171286809Y-48865093D01*
X171316657Y-48865093D01*
X171344234Y-48853670D01*
X171365340Y-48832564D01*
X171376763Y-48804987D01*
X171378233Y-48790063D01*
X171377278Y-48131370D01*
X171565809Y-48533442D01*
X171569654Y-48544015D01*
X171571934Y-48546505D01*
X171573386Y-48549601D01*
X171581958Y-48557451D01*
X171589813Y-48566028D01*
X171592895Y-48567466D01*
X171595400Y-48569760D01*
X171606321Y-48573731D01*
X171616861Y-48578650D01*
X171620256Y-48578799D01*
X171623451Y-48579961D01*
X171635066Y-48579450D01*
X171646681Y-48579961D01*
X171649875Y-48578799D01*
X171653271Y-48578650D01*
X171663808Y-48573732D01*
X171674733Y-48569760D01*
X171677238Y-48567465D01*
X171680319Y-48566028D01*
X171688171Y-48557453D01*
X171696746Y-48549601D01*
X171699280Y-48545322D01*
X171700478Y-48544015D01*
X171701150Y-48542166D01*
X171704389Y-48536699D01*
X171892394Y-48131898D01*
X171893369Y-48804987D01*
X171904792Y-48832564D01*
X171925898Y-48853670D01*
X171953475Y-48865093D01*
X171983323Y-48865093D01*
X172010900Y-48853670D01*
X172032006Y-48832564D01*
X172043429Y-48804987D01*
X172044899Y-48790063D01*
X172044209Y-48313872D01*
X172320471Y-48313872D01*
X172321810Y-48587802D01*
X172321072Y-48590018D01*
X172321876Y-48601339D01*
X172321941Y-48614510D01*
X172322993Y-48617050D01*
X172323188Y-48619792D01*
X172328547Y-48633798D01*
X172377273Y-48728369D01*
X172380982Y-48737325D01*
X172383413Y-48740287D01*
X172384155Y-48741727D01*
X172385681Y-48743050D01*
X172390496Y-48748917D01*
X172439593Y-48796292D01*
X172445306Y-48802879D01*
X172448509Y-48804895D01*
X172449707Y-48806051D01*
X172451572Y-48806823D01*
X172457997Y-48810868D01*
X172543711Y-48852435D01*
X172544946Y-48853670D01*
X172553937Y-48857394D01*
X172567241Y-48863846D01*
X172569982Y-48864040D01*
X172572523Y-48865093D01*
X172587447Y-48866563D01*
X172718865Y-48865338D01*
X172720736Y-48865962D01*
X172731113Y-48865224D01*
X172745228Y-48865093D01*
X172747768Y-48864040D01*
X172750510Y-48863846D01*
X172764516Y-48858487D01*
X172859089Y-48809760D01*
X172868044Y-48806051D01*
X172871004Y-48803621D01*
X172872445Y-48802879D01*
X172873769Y-48801352D01*
X172879636Y-48796537D01*
X172927006Y-48747441D01*
X172933596Y-48741727D01*
X172935614Y-48738520D01*
X172936768Y-48737325D01*
X172937539Y-48735462D01*
X172941585Y-48729036D01*
X172983152Y-48643321D01*
X172984387Y-48642087D01*
X172988111Y-48633095D01*
X172994563Y-48619792D01*
X172994757Y-48617050D01*
X172995810Y-48614510D01*
X172997280Y-48599586D01*
X172995940Y-48325655D01*
X172996679Y-48323440D01*
X172995999Y-48313872D01*
X173225233Y-48313872D01*
X173226572Y-48587802D01*
X173225834Y-48590018D01*
X173226638Y-48601339D01*
X173226703Y-48614510D01*
X173227755Y-48617050D01*
X173227950Y-48619792D01*
X173233309Y-48633798D01*
X173282035Y-48728369D01*
X173285744Y-48737325D01*
X173288175Y-48740287D01*
X173288917Y-48741727D01*
X173290443Y-48743050D01*
X173295258Y-48748917D01*
X173344355Y-48796292D01*
X173350068Y-48802879D01*
X173353271Y-48804895D01*
X173354469Y-48806051D01*
X173356334Y-48806823D01*
X173362759Y-48810868D01*
X173448473Y-48852435D01*
X173449708Y-48853670D01*
X173458699Y-48857394D01*
X173472003Y-48863846D01*
X173474744Y-48864040D01*
X173477285Y-48865093D01*
X173492209Y-48866563D01*
X173671079Y-48865282D01*
X173673117Y-48865962D01*
X173683971Y-48865190D01*
X173697609Y-48865093D01*
X173700149Y-48864040D01*
X173702891Y-48863846D01*
X173716897Y-48858487D01*
X173732301Y-48850549D01*
X173735422Y-48853670D01*
X173762999Y-48865093D01*
X173792847Y-48865093D01*
X173820424Y-48853670D01*
X173841530Y-48832564D01*
X173852953Y-48804987D01*
X173854423Y-48790063D01*
X173853940Y-48456809D01*
X174129995Y-48456809D01*
X174130715Y-48460413D01*
X174131365Y-48635328D01*
X174130596Y-48637637D01*
X174131416Y-48649188D01*
X174131465Y-48662129D01*
X174132517Y-48664669D01*
X174132712Y-48667411D01*
X174138071Y-48681417D01*
X174185126Y-48772746D01*
X174187654Y-48780329D01*
X174191051Y-48784246D01*
X174193679Y-48789346D01*
X174200923Y-48795629D01*
X174207211Y-48802879D01*
X174214765Y-48807634D01*
X174216229Y-48808904D01*
X174217404Y-48809295D01*
X174219902Y-48810868D01*
X174305616Y-48852435D01*
X174306851Y-48853670D01*
X174315842Y-48857394D01*
X174329146Y-48863846D01*
X174331887Y-48864040D01*
X174334428Y-48865093D01*
X174349352Y-48866563D01*
X174528222Y-48865282D01*
X174530260Y-48865962D01*
X174541114Y-48865190D01*
X174554752Y-48865093D01*
X174557292Y-48864040D01*
X174560034Y-48863846D01*
X174574040Y-48858487D01*
X174681969Y-48802879D01*
X174701526Y-48780329D01*
X174710965Y-48752012D01*
X174708849Y-48722238D01*
X174695500Y-48695541D01*
X174672951Y-48675984D01*
X174644634Y-48666545D01*
X174614860Y-48668661D01*
X174600854Y-48674020D01*
X174523883Y-48713677D01*
X174369425Y-48714782D01*
X174311419Y-48686652D01*
X174282936Y-48631368D01*
X174282520Y-48519352D01*
X174690443Y-48436521D01*
X174697609Y-48436521D01*
X174704499Y-48433666D01*
X174712033Y-48432137D01*
X174718260Y-48427966D01*
X174725186Y-48425098D01*
X174730541Y-48419742D01*
X174736835Y-48415528D01*
X174740992Y-48409291D01*
X174746292Y-48403992D01*
X174749190Y-48396994D01*
X174753392Y-48390692D01*
X174754846Y-48383341D01*
X174757715Y-48376415D01*
X174759185Y-48361491D01*
X174758062Y-48277384D01*
X174758584Y-48275821D01*
X174757916Y-48266428D01*
X174757715Y-48251329D01*
X174756662Y-48248788D01*
X174756468Y-48246047D01*
X174751109Y-48232041D01*
X174704052Y-48140709D01*
X174701526Y-48133130D01*
X174698129Y-48129213D01*
X174695501Y-48124112D01*
X174688254Y-48117826D01*
X174681969Y-48110580D01*
X174674415Y-48105824D01*
X174672951Y-48104555D01*
X174671775Y-48104163D01*
X174669278Y-48102591D01*
X174583563Y-48061023D01*
X174582329Y-48059789D01*
X174573337Y-48056064D01*
X174560034Y-48049613D01*
X174557292Y-48049418D01*
X174554752Y-48048366D01*
X174539828Y-48046896D01*
X174360957Y-48048176D01*
X174358920Y-48047497D01*
X174348065Y-48048268D01*
X174334428Y-48048366D01*
X174331887Y-48049418D01*
X174329146Y-48049613D01*
X174315140Y-48054972D01*
X174223808Y-48102028D01*
X174216229Y-48104555D01*
X174212312Y-48107951D01*
X174207211Y-48110580D01*
X174200925Y-48117826D01*
X174193679Y-48124112D01*
X174188923Y-48131665D01*
X174187654Y-48133130D01*
X174187262Y-48134305D01*
X174185690Y-48136803D01*
X174144122Y-48222517D01*
X174142888Y-48223752D01*
X174139163Y-48232743D01*
X174132712Y-48246047D01*
X174132517Y-48248788D01*
X174131465Y-48251329D01*
X174129995Y-48266253D01*
X174130689Y-48453298D01*
X174129995Y-48456809D01*
X173853940Y-48456809D01*
X173853518Y-48165714D01*
X173853822Y-48161447D01*
X173853511Y-48160514D01*
X173852953Y-47775139D01*
X173841530Y-47747562D01*
X173820424Y-47726456D01*
X173792847Y-47715033D01*
X173762999Y-47715033D01*
X173735422Y-47726456D01*
X173714316Y-47747562D01*
X173702893Y-47775139D01*
X173701423Y-47790063D01*
X173701798Y-48049535D01*
X173700149Y-48049418D01*
X173697609Y-48048366D01*
X173682685Y-48046896D01*
X173503814Y-48048176D01*
X173501777Y-48047497D01*
X173490922Y-48048268D01*
X173477285Y-48048366D01*
X173474744Y-48049418D01*
X173472003Y-48049613D01*
X173457997Y-48054972D01*
X173363420Y-48103700D01*
X173354469Y-48107408D01*
X173351508Y-48109837D01*
X173350068Y-48110580D01*
X173348743Y-48112106D01*
X173342877Y-48116922D01*
X173295507Y-48166015D01*
X173288917Y-48171731D01*
X173286898Y-48174937D01*
X173285745Y-48176133D01*
X173284973Y-48177995D01*
X173280928Y-48184422D01*
X173239360Y-48270136D01*
X173238126Y-48271371D01*
X173234401Y-48280362D01*
X173227950Y-48293666D01*
X173227755Y-48296407D01*
X173226703Y-48298948D01*
X173225233Y-48313872D01*
X172995999Y-48313872D01*
X172995874Y-48312118D01*
X172995810Y-48298948D01*
X172994757Y-48296407D01*
X172994563Y-48293666D01*
X172989204Y-48279660D01*
X172940475Y-48185083D01*
X172936768Y-48176132D01*
X172934338Y-48173171D01*
X172933596Y-48171731D01*
X172932069Y-48170406D01*
X172927254Y-48164540D01*
X172878160Y-48117170D01*
X172872445Y-48110580D01*
X172869238Y-48108561D01*
X172868043Y-48107408D01*
X172866180Y-48106636D01*
X172859754Y-48102591D01*
X172774039Y-48061023D01*
X172772805Y-48059789D01*
X172763813Y-48056064D01*
X172750510Y-48049613D01*
X172747768Y-48049418D01*
X172745228Y-48048366D01*
X172730304Y-48046896D01*
X172598885Y-48048120D01*
X172597015Y-48047497D01*
X172586637Y-48048234D01*
X172572523Y-48048366D01*
X172569982Y-48049418D01*
X172567241Y-48049613D01*
X172553235Y-48054972D01*
X172458658Y-48103700D01*
X172449707Y-48107408D01*
X172446746Y-48109837D01*
X172445306Y-48110580D01*
X172443981Y-48112106D01*
X172438115Y-48116922D01*
X172390745Y-48166015D01*
X172384155Y-48171731D01*
X172382136Y-48174937D01*
X172380983Y-48176133D01*
X172380211Y-48177995D01*
X172376166Y-48184422D01*
X172334598Y-48270136D01*
X172333364Y-48271371D01*
X172329639Y-48280362D01*
X172323188Y-48293666D01*
X172322993Y-48296407D01*
X172321941Y-48298948D01*
X172320471Y-48313872D01*
X172044209Y-48313872D01*
X172043452Y-47791180D01*
X172044012Y-47778448D01*
X172043431Y-47776851D01*
X172043429Y-47775139D01*
X172038348Y-47762874D01*
X172033811Y-47750396D01*
X172032658Y-47749137D01*
X172032006Y-47747562D01*
X172022622Y-47738178D01*
X172013652Y-47728383D01*
X172012105Y-47727661D01*
X172010900Y-47726456D01*
X171998640Y-47721377D01*
X171986604Y-47715761D01*
X171984899Y-47715686D01*
X171983323Y-47715033D01*
X171970045Y-47715033D01*
X171956784Y-47714450D01*
X171955181Y-47715033D01*
X171953475Y-47715033D01*
X171941206Y-47720115D01*
X171928733Y-47724651D01*
X171927475Y-47725802D01*
X171925898Y-47726456D01*
X171916509Y-47735844D01*
X171906719Y-47744810D01*
X171905520Y-47746833D01*
X171904792Y-47747562D01*
X171904102Y-47749227D01*
X171899076Y-47757712D01*
X171635533Y-48325153D01*
X171370162Y-47759205D01*
X171365340Y-47747562D01*
X171364141Y-47746363D01*
X171363413Y-47744810D01*
X171353617Y-47735839D01*
X171344234Y-47726456D01*
X171342658Y-47725803D01*
X171341400Y-47724651D01*
X171328921Y-47720113D01*
X171316657Y-47715033D01*
X171314951Y-47715033D01*
X171313348Y-47714450D01*
X171300087Y-47715033D01*
X171286809Y-47715033D01*
X171285232Y-47715686D01*
X171283528Y-47715761D01*
X171271491Y-47721377D01*
X171259232Y-47726456D01*
X171258026Y-47727661D01*
X171256480Y-47728383D01*
X171247509Y-47738178D01*
X171238126Y-47747562D01*
X171237473Y-47749137D01*
X171236321Y-47750396D01*
X171231783Y-47762874D01*
X171226703Y-47775139D01*
X171226472Y-47777478D01*
X171226120Y-47778448D01*
X171226199Y-47780252D01*
X171225233Y-47790063D01*
X171114122Y-47790063D01*
X171114122Y-47603339D01*
X174870296Y-47603339D01*
X174870296Y-48977674D01*
G37*
D11*
X134627863Y-47671342D02*
X135427863Y-48871342D01*
X135427863Y-47671342D02*
X134627863Y-48871342D01*
X135770720Y-47671342D02*
X136570720Y-48871342D01*
X136570720Y-47671342D02*
X135770720Y-48871342D01*
X136913577Y-47671342D02*
X137713577Y-48871342D01*
X137713577Y-47671342D02*
X136913577Y-48871342D01*
X138056434Y-47671342D02*
X138856434Y-48871342D01*
X138856434Y-47671342D02*
X138056434Y-48871342D01*
X140113577Y-47671342D02*
X140913577Y-48871342D01*
X140913577Y-47671342D02*
X140113577Y-48871342D01*
X141256434Y-47671342D02*
X142056434Y-48871342D01*
X142056434Y-47671342D02*
X141256434Y-48871342D01*
X142399291Y-47671342D02*
X143199291Y-48871342D01*
X143199291Y-47671342D02*
X142399291Y-48871342D01*
X143542148Y-47671342D02*
X144342148Y-48871342D01*
X144342148Y-47671342D02*
X143542148Y-48871342D01*
X127056435Y-19591142D02*
X127856435Y-20791142D01*
X127856435Y-19591142D02*
X127056435Y-20791142D01*
X128199292Y-19591142D02*
X128999292Y-20791142D01*
X128999292Y-19591142D02*
X128199292Y-20791142D01*
X129342149Y-19591142D02*
X130142149Y-20791142D01*
X130142149Y-19591142D02*
X129342149Y-20791142D01*
X130485006Y-19591142D02*
X131285006Y-20791142D01*
X131285006Y-19591142D02*
X130485006Y-20791142D01*
X131627863Y-19591142D02*
X132427863Y-20791142D01*
X132427863Y-19591142D02*
X131627863Y-20791142D01*
X133685006Y-19591142D02*
X134485006Y-20791142D01*
X134485006Y-19591142D02*
X133685006Y-20791142D01*
X134827863Y-19591142D02*
X135627863Y-20791142D01*
X135627863Y-19591142D02*
X134827863Y-20791142D01*
X135970720Y-19591142D02*
X136770720Y-20791142D01*
X136770720Y-19591142D02*
X135970720Y-20791142D01*
X138027863Y-19591142D02*
X138827863Y-20791142D01*
X138827863Y-19591142D02*
X138027863Y-20791142D01*
X139170720Y-19591142D02*
X139970720Y-20791142D01*
X139970720Y-19591142D02*
X139170720Y-20791142D01*
X140313577Y-19591142D02*
X141113577Y-20791142D01*
X141113577Y-19591142D02*
X140313577Y-20791142D01*
X142370720Y-19591142D02*
X143170720Y-20791142D01*
X143170720Y-19591142D02*
X142370720Y-20791142D01*
X144427863Y-19591142D02*
X145227863Y-20791142D01*
X145227863Y-19591142D02*
X144427863Y-20791142D01*
X145570720Y-19591142D02*
X146370720Y-20791142D01*
X146370720Y-19591142D02*
X145570720Y-20791142D01*
X146713577Y-19591142D02*
X147513577Y-20791142D01*
X147513577Y-19591142D02*
X146713577Y-20791142D01*
X147856434Y-19591142D02*
X148656434Y-20791142D01*
X148656434Y-19591142D02*
X147856434Y-20791142D01*
X148999291Y-19591142D02*
X149799291Y-20791142D01*
X149799291Y-19591142D02*
X148999291Y-20791142D01*
X151056434Y-19591142D02*
X151856434Y-20791142D01*
X151856434Y-19591142D02*
X151056434Y-20791142D01*
X152199291Y-19591142D02*
X152999291Y-20791142D01*
X152999291Y-19591142D02*
X152199291Y-20791142D01*
D12*
X154433600Y-21125548D02*
X154433600Y-21648052D01*
X155903600Y-21125548D02*
X155903600Y-21648052D01*
X164542000Y-38395236D02*
X164542000Y-38179564D01*
X165262000Y-38395236D02*
X165262000Y-38179564D01*
X168865436Y-19325000D02*
X168649764Y-19325000D01*
X168865436Y-20045000D02*
X168649764Y-20045000D01*
X161257600Y-22143764D02*
X161257600Y-22359436D01*
X161977600Y-22143764D02*
X161977600Y-22359436D01*
X154261780Y-45696700D02*
X153980620Y-45696700D01*
X154261780Y-46716700D02*
X153980620Y-46716700D01*
X164745400Y-24587041D02*
X164745400Y-24279759D01*
X165505400Y-24587041D02*
X165505400Y-24279759D01*
X165583600Y-38441041D02*
X165583600Y-38133759D01*
X166343600Y-38441041D02*
X166343600Y-38133759D01*
X168756241Y-32513000D02*
X168448959Y-32513000D01*
X168756241Y-33273000D02*
X168448959Y-33273000D01*
X162533359Y-19279600D02*
X162840641Y-19279600D01*
X162533359Y-20039600D02*
X162840641Y-20039600D01*
X154261780Y-23471700D02*
X153980620Y-23471700D01*
X154261780Y-24491700D02*
X153980620Y-24491700D01*
X162456800Y-36446241D02*
X162456800Y-36138959D01*
X163216800Y-36446241D02*
X163216800Y-36138959D01*
X157066600Y-38384236D02*
X157066600Y-38168564D01*
X157786600Y-38384236D02*
X157786600Y-38168564D01*
X157852164Y-31517000D02*
X158067836Y-31517000D01*
X157852164Y-32237000D02*
X158067836Y-32237000D01*
X165732400Y-19901600D02*
X164932400Y-19901600D01*
X165732400Y-19901600D02*
X166532400Y-19901600D01*
X165732400Y-23021600D02*
X164932400Y-23021600D01*
X165732400Y-23021600D02*
X167532400Y-23021600D01*
X162119000Y-35836400D02*
X160119000Y-35836400D01*
X162119000Y-37486400D02*
X162119000Y-35836400D01*
X168448959Y-24780000D02*
X168756241Y-24780000D01*
X168448959Y-25540000D02*
X168756241Y-25540000D01*
X163500600Y-38395236D02*
X163500600Y-38179564D01*
X164220600Y-38395236D02*
X164220600Y-38179564D01*
X163746800Y-24325564D02*
X163746800Y-24541236D01*
X164466800Y-24325564D02*
X164466800Y-24541236D01*
X168494764Y-28926200D02*
X168710436Y-28926200D01*
X168494764Y-29646200D02*
X168710436Y-29646200D01*
D13*
X157228300Y-23392000D02*
G75*
G02*
X156978300Y-23392000I-125000J0D01*
G01*
X156978300Y-23392000D02*
G75*
G02*
X157228300Y-23392000I125000J0D01*
G01*
D12*
X162476800Y-38168564D02*
X162476800Y-38384236D01*
X163196800Y-38168564D02*
X163196800Y-38384236D01*
X162730300Y-24325564D02*
X162730300Y-24541236D01*
X163450300Y-24325564D02*
X163450300Y-24541236D01*
X154261780Y-39346700D02*
X153980620Y-39346700D01*
X154261780Y-40366700D02*
X153980620Y-40366700D01*
X168756241Y-23780000D02*
X168448959Y-23780000D01*
X168756241Y-24540000D02*
X168448959Y-24540000D01*
X159680300Y-34487000D02*
X159680300Y-33837000D01*
X160330300Y-27267000D02*
X159680300Y-27267000D01*
X160330300Y-34487000D02*
X159680300Y-34487000D01*
X166250300Y-27267000D02*
X166900300Y-27267000D01*
X166250300Y-34487000D02*
X166900300Y-34487000D01*
X166900300Y-27267000D02*
X166900300Y-27917000D01*
X166900300Y-34487000D02*
X166900300Y-33837000D01*
X154261780Y-36171700D02*
X153980620Y-36171700D01*
X154261780Y-37191700D02*
X153980620Y-37191700D01*
X168448959Y-25782000D02*
X168756241Y-25782000D01*
X168448959Y-26542000D02*
X168756241Y-26542000D01*
X154261780Y-42521700D02*
X153980620Y-42521700D01*
X154261780Y-43541700D02*
X153980620Y-43541700D01*
X168756241Y-26780000D02*
X168448959Y-26780000D01*
X168756241Y-27540000D02*
X168448959Y-27540000D01*
X168710436Y-33549000D02*
X168494764Y-33549000D01*
X168710436Y-34269000D02*
X168494764Y-34269000D01*
X168710436Y-27917000D02*
X168494764Y-27917000D01*
X168710436Y-28637000D02*
X168494764Y-28637000D01*
X154261780Y-32996700D02*
X153980620Y-32996700D01*
X154261780Y-34016700D02*
X153980620Y-34016700D01*
X154261780Y-26646700D02*
X153980620Y-26646700D01*
X154261780Y-27666700D02*
X153980620Y-27666700D01*
X168710436Y-31517000D02*
X168494764Y-31517000D01*
X168710436Y-32237000D02*
X168494764Y-32237000D01*
X162377600Y-21541020D02*
X162377600Y-21822180D01*
X163397600Y-21541020D02*
X163397600Y-21822180D01*
X166667800Y-38395236D02*
X166667800Y-38179564D01*
X167387800Y-38395236D02*
X167387800Y-38179564D01*
X160242136Y-22346200D02*
X160026464Y-22346200D01*
X160242136Y-23066200D02*
X160026464Y-23066200D01*
X157852164Y-27917000D02*
X158067836Y-27917000D01*
X157852164Y-28637000D02*
X158067836Y-28637000D01*
X152855200Y-21466220D02*
X152855200Y-21747380D01*
X153875200Y-21466220D02*
X153875200Y-21747380D01*
X165786800Y-24587041D02*
X165786800Y-24279759D01*
X166546800Y-24587041D02*
X166546800Y-24279759D01*
X168069800Y-21551020D02*
X168069800Y-21832180D01*
X169089800Y-21551020D02*
X169089800Y-21832180D01*
X154261780Y-29821700D02*
X153980620Y-29821700D01*
X154261780Y-30841700D02*
X153980620Y-30841700D01*
X158060359Y-22326200D02*
X158367641Y-22326200D01*
X158060359Y-23086200D02*
X158367641Y-23086200D01*
X168710436Y-30501000D02*
X168494764Y-30501000D01*
X168710436Y-31221000D02*
X168494764Y-31221000D01*
%LPC*%
D14*
X134706800Y-43031700D03*
X134706800Y-41531700D03*
X133856800Y-41531700D03*
X133856800Y-43031700D03*
X102588800Y-33506700D03*
X102588800Y-32006700D03*
X101738800Y-32006700D03*
X101738800Y-33506700D03*
D15*
X155168600Y-20436800D03*
X155168600Y-22336800D03*
D14*
X109012400Y-39856700D03*
X109012400Y-38356700D03*
X108162400Y-38356700D03*
X108162400Y-39856700D03*
X147554000Y-39856700D03*
X147554000Y-38356700D03*
X146704000Y-38356700D03*
X146704000Y-39856700D03*
X128283200Y-46206700D03*
X128283200Y-44706700D03*
X127433200Y-44706700D03*
X127433200Y-46206700D03*
X121859600Y-43031700D03*
X121859600Y-41531700D03*
X121009600Y-41531700D03*
X121009600Y-43031700D03*
X121859600Y-36681700D03*
X121859600Y-35181700D03*
X121009600Y-35181700D03*
X121009600Y-36681700D03*
X121859600Y-27156700D03*
X121859600Y-25656700D03*
X121009600Y-25656700D03*
X121009600Y-27156700D03*
X147554000Y-46206700D03*
X147554000Y-44706700D03*
X146704000Y-44706700D03*
X146704000Y-46206700D03*
D16*
X164902000Y-38767400D03*
X164902000Y-37807400D03*
D14*
X137918600Y-46206700D03*
X137918600Y-44706700D03*
X137068600Y-44706700D03*
X137068600Y-46206700D03*
X141130400Y-33506700D03*
X141130400Y-32006700D03*
X140280400Y-32006700D03*
X140280400Y-33506700D03*
X150765800Y-30331700D03*
X150765800Y-28831700D03*
X149915800Y-28831700D03*
X149915800Y-30331700D03*
X147554000Y-23981700D03*
X147554000Y-22481700D03*
X146704000Y-22481700D03*
X146704000Y-23981700D03*
X144342200Y-36681700D03*
X144342200Y-35181700D03*
X143492200Y-35181700D03*
X143492200Y-36681700D03*
D17*
X158792400Y-42830000D03*
X164792400Y-42830000D03*
X158792400Y-46530000D03*
X164792400Y-46530000D03*
D14*
X128283200Y-27156700D03*
X128283200Y-25656700D03*
X127433200Y-25656700D03*
X127433200Y-27156700D03*
X144342200Y-33506700D03*
X144342200Y-32006700D03*
X143492200Y-32006700D03*
X143492200Y-33506700D03*
X102588800Y-46206700D03*
X102588800Y-44706700D03*
X101738800Y-44706700D03*
X101738800Y-46206700D03*
D18*
X169237600Y-19685000D03*
X168277600Y-19685000D03*
D14*
X128283200Y-23981700D03*
X128283200Y-22481700D03*
X127433200Y-22481700D03*
X127433200Y-23981700D03*
X105800600Y-46206700D03*
X105800600Y-44706700D03*
X104950600Y-44706700D03*
X104950600Y-46206700D03*
D19*
X161617600Y-21771600D03*
X161617600Y-22731600D03*
D14*
X137918600Y-36681700D03*
X137918600Y-35181700D03*
X137068600Y-35181700D03*
X137068600Y-36681700D03*
X137918600Y-33506700D03*
X137918600Y-32006700D03*
X137068600Y-32006700D03*
X137068600Y-33506700D03*
D20*
X154896200Y-46206700D03*
X153346200Y-46206700D03*
D14*
X125071400Y-23981700D03*
X125071400Y-22481700D03*
X124221400Y-22481700D03*
X124221400Y-23981700D03*
D21*
X165125400Y-24943400D03*
X165125400Y-23923400D03*
D14*
X131495000Y-23981700D03*
X131495000Y-22481700D03*
X130645000Y-22481700D03*
X130645000Y-23981700D03*
X141130400Y-43031700D03*
X141130400Y-41531700D03*
X140280400Y-41531700D03*
X140280400Y-43031700D03*
X115436000Y-46206700D03*
X115436000Y-44706700D03*
X114586000Y-44706700D03*
X114586000Y-46206700D03*
D21*
X165963600Y-38797400D03*
X165963600Y-37777400D03*
D14*
X137918600Y-27156700D03*
X137918600Y-25656700D03*
X137068600Y-25656700D03*
X137068600Y-27156700D03*
D22*
X169112600Y-32893000D03*
X168092600Y-32893000D03*
D23*
X162177000Y-19659600D03*
X163197000Y-19659600D03*
D14*
X131495000Y-43031700D03*
X131495000Y-41531700D03*
X130645000Y-41531700D03*
X130645000Y-43031700D03*
X144342200Y-27156700D03*
X144342200Y-25656700D03*
X143492200Y-25656700D03*
X143492200Y-27156700D03*
X134706800Y-33506700D03*
X134706800Y-32006700D03*
X133856800Y-32006700D03*
X133856800Y-33506700D03*
X141130400Y-30331700D03*
X141130400Y-28831700D03*
X140280400Y-28831700D03*
X140280400Y-30331700D03*
X128283200Y-43031700D03*
X128283200Y-41531700D03*
X127433200Y-41531700D03*
X127433200Y-43031700D03*
X144342200Y-30331700D03*
X144342200Y-28831700D03*
X143492200Y-28831700D03*
X143492200Y-30331700D03*
X102588800Y-39856700D03*
X102588800Y-38356700D03*
X101738800Y-38356700D03*
X101738800Y-39856700D03*
X128283200Y-39856700D03*
X128283200Y-38356700D03*
X127433200Y-38356700D03*
X127433200Y-39856700D03*
D20*
X154896200Y-23981700D03*
X153346200Y-23981700D03*
D14*
X137918600Y-30331700D03*
X137918600Y-28831700D03*
X137068600Y-28831700D03*
X137068600Y-30331700D03*
X137918600Y-23981700D03*
X137918600Y-22481700D03*
X137068600Y-22481700D03*
X137068600Y-23981700D03*
X125071400Y-43031700D03*
X125071400Y-41531700D03*
X124221400Y-41531700D03*
X124221400Y-43031700D03*
D21*
X162836800Y-36802600D03*
X162836800Y-35782600D03*
D14*
X115436000Y-39856700D03*
X115436000Y-38356700D03*
X114586000Y-38356700D03*
X114586000Y-39856700D03*
X147554000Y-36681700D03*
X147554000Y-35181700D03*
X146704000Y-35181700D03*
X146704000Y-36681700D03*
X150765800Y-27156700D03*
X150765800Y-25656700D03*
X149915800Y-25656700D03*
X149915800Y-27156700D03*
X102588800Y-23981700D03*
X102588800Y-22481700D03*
X101738800Y-22481700D03*
X101738800Y-23981700D03*
D16*
X157426600Y-38756400D03*
X157426600Y-37796400D03*
D14*
X150765800Y-46206700D03*
X150765800Y-44706700D03*
X149915800Y-44706700D03*
X149915800Y-46206700D03*
X141130400Y-27156700D03*
X141130400Y-25656700D03*
X140280400Y-25656700D03*
X140280400Y-27156700D03*
X118647800Y-46206700D03*
X118647800Y-44706700D03*
X117797800Y-44706700D03*
X117797800Y-46206700D03*
D24*
X157480000Y-31877000D03*
X158440000Y-31877000D03*
D25*
X166869900Y-22411600D03*
X166869900Y-21461600D03*
X166869900Y-20511600D03*
X164594900Y-20511600D03*
X164594900Y-22411600D03*
D14*
X144342200Y-39856700D03*
X144342200Y-38356700D03*
X143492200Y-38356700D03*
X143492200Y-39856700D03*
D26*
X161219000Y-36636400D03*
X159019000Y-36636400D03*
X159019000Y-38336400D03*
X161219000Y-38336400D03*
D14*
X118647800Y-30331700D03*
X118647800Y-28831700D03*
X117797800Y-28831700D03*
X117797800Y-30331700D03*
X112224200Y-33506700D03*
X112224200Y-32006700D03*
X111374200Y-32006700D03*
X111374200Y-33506700D03*
D23*
X168092600Y-25160000D03*
X169112600Y-25160000D03*
D14*
X102588800Y-27156700D03*
X102588800Y-25656700D03*
X101738800Y-25656700D03*
X101738800Y-27156700D03*
X137918600Y-43031700D03*
X137918600Y-41531700D03*
X137068600Y-41531700D03*
X137068600Y-43031700D03*
X121859600Y-39856700D03*
X121859600Y-38356700D03*
X121009600Y-38356700D03*
X121009600Y-39856700D03*
D16*
X163860600Y-38767400D03*
X163860600Y-37807400D03*
D14*
X150765800Y-23981700D03*
X150765800Y-22481700D03*
X149915800Y-22481700D03*
X149915800Y-23981700D03*
X147554000Y-33506700D03*
X147554000Y-32006700D03*
X146704000Y-32006700D03*
X146704000Y-33506700D03*
X115436000Y-33506700D03*
X115436000Y-32006700D03*
X114586000Y-32006700D03*
X114586000Y-33506700D03*
D19*
X164106800Y-23953400D03*
X164106800Y-24913400D03*
D14*
X134706800Y-36681700D03*
X134706800Y-35181700D03*
X133856800Y-35181700D03*
X133856800Y-36681700D03*
X105800600Y-43031700D03*
X105800600Y-41531700D03*
X104950600Y-41531700D03*
X104950600Y-43031700D03*
X109012400Y-30331700D03*
X109012400Y-28831700D03*
X108162400Y-28831700D03*
X108162400Y-30331700D03*
X141130400Y-23981700D03*
X141130400Y-22481700D03*
X140280400Y-22481700D03*
X140280400Y-23981700D03*
X144342200Y-23981700D03*
X144342200Y-22481700D03*
X143492200Y-22481700D03*
X143492200Y-23981700D03*
X141130400Y-39856700D03*
X141130400Y-38356700D03*
X140280400Y-38356700D03*
X140280400Y-39856700D03*
X141130400Y-46206700D03*
X141130400Y-44706700D03*
X140280400Y-44706700D03*
X140280400Y-46206700D03*
X105800600Y-30331700D03*
X105800600Y-28831700D03*
X104950600Y-28831700D03*
X104950600Y-30331700D03*
X105800600Y-23981700D03*
X105800600Y-22481700D03*
X104950600Y-22481700D03*
X104950600Y-23981700D03*
D24*
X168122600Y-29286200D03*
X169082600Y-29286200D03*
D14*
X109012400Y-27156700D03*
X109012400Y-25656700D03*
X108162400Y-25656700D03*
X108162400Y-27156700D03*
X112224200Y-27156700D03*
X112224200Y-25656700D03*
X111374200Y-25656700D03*
X111374200Y-27156700D03*
D27*
X157914300Y-23658000D03*
X157914300Y-24158000D03*
X157914300Y-24658000D03*
X157914300Y-25158000D03*
X160614300Y-25158000D03*
X160614300Y-24658000D03*
X160614300Y-24158000D03*
X160614300Y-23658000D03*
D28*
X159264300Y-24408000D03*
D14*
X147554000Y-30331700D03*
X147554000Y-28831700D03*
X146704000Y-28831700D03*
X146704000Y-30331700D03*
D19*
X162836800Y-37796400D03*
X162836800Y-38756400D03*
D14*
X144342200Y-43031700D03*
X144342200Y-41531700D03*
X143492200Y-41531700D03*
X143492200Y-43031700D03*
X134706800Y-23981700D03*
X134706800Y-22481700D03*
X133856800Y-22481700D03*
X133856800Y-23981700D03*
D19*
X163090300Y-23953400D03*
X163090300Y-24913400D03*
D14*
X112224200Y-43031700D03*
X112224200Y-41531700D03*
X111374200Y-41531700D03*
X111374200Y-43031700D03*
X102588800Y-36681700D03*
X102588800Y-35181700D03*
X101738800Y-35181700D03*
X101738800Y-36681700D03*
D20*
X154896200Y-39856700D03*
X153346200Y-39856700D03*
D14*
X125071400Y-46206700D03*
X125071400Y-44706700D03*
X124221400Y-44706700D03*
X124221400Y-46206700D03*
D22*
X169112600Y-24160000D03*
X168092600Y-24160000D03*
D29*
X172282000Y-28800000D03*
X172282000Y-23020000D03*
D30*
X171207000Y-29110000D03*
X171207000Y-28310000D03*
D31*
X171207000Y-27160000D03*
X171207000Y-26160000D03*
X171207000Y-25660000D03*
X171207000Y-24660000D03*
D30*
X171207000Y-23510000D03*
X171207000Y-22710000D03*
X171207000Y-22710000D03*
X171207000Y-23510000D03*
D31*
X171207000Y-24160000D03*
X171207000Y-25160000D03*
X171207000Y-26660000D03*
X171207000Y-27660000D03*
D30*
X171207000Y-28310000D03*
X171207000Y-29110000D03*
D32*
X171782000Y-30230000D03*
D33*
X175962000Y-30230000D03*
D32*
X171782000Y-21590000D03*
D33*
X175962000Y-21590000D03*
D14*
X137918600Y-39856700D03*
X137918600Y-38356700D03*
X137068600Y-38356700D03*
X137068600Y-39856700D03*
X112224200Y-39856700D03*
X112224200Y-38356700D03*
X111374200Y-38356700D03*
X111374200Y-39856700D03*
D34*
X159852800Y-28277000D03*
X159852800Y-28677000D03*
X159852800Y-29077000D03*
X159852800Y-29477000D03*
X159852800Y-29877000D03*
X159852800Y-30277000D03*
X159852800Y-30677000D03*
X159852800Y-31077000D03*
X159852800Y-31477000D03*
X159852800Y-31877000D03*
X159852800Y-32277000D03*
X159852800Y-32677000D03*
X159852800Y-33077000D03*
X159852800Y-33477000D03*
D35*
X160690300Y-34314500D03*
X161090300Y-34314500D03*
X161490300Y-34314500D03*
X161890300Y-34314500D03*
X162290300Y-34314500D03*
X162690300Y-34314500D03*
X163090300Y-34314500D03*
X163490300Y-34314500D03*
X163890300Y-34314500D03*
X164290300Y-34314500D03*
X164690300Y-34314500D03*
X165090300Y-34314500D03*
X165490300Y-34314500D03*
X165890300Y-34314500D03*
D34*
X166727800Y-33477000D03*
X166727800Y-33077000D03*
X166727800Y-32677000D03*
X166727800Y-32277000D03*
X166727800Y-31877000D03*
X166727800Y-31477000D03*
X166727800Y-31077000D03*
X166727800Y-30677000D03*
X166727800Y-30277000D03*
X166727800Y-29877000D03*
X166727800Y-29477000D03*
X166727800Y-29077000D03*
X166727800Y-28677000D03*
X166727800Y-28277000D03*
D35*
X165890300Y-27439500D03*
X165490300Y-27439500D03*
X165090300Y-27439500D03*
X164690300Y-27439500D03*
X164290300Y-27439500D03*
X163890300Y-27439500D03*
X163490300Y-27439500D03*
X163090300Y-27439500D03*
X162690300Y-27439500D03*
X162290300Y-27439500D03*
X161890300Y-27439500D03*
X161490300Y-27439500D03*
X161090300Y-27439500D03*
X160690300Y-27439500D03*
D36*
X163290300Y-30877000D03*
D14*
X131495000Y-27156700D03*
X131495000Y-25656700D03*
X130645000Y-25656700D03*
X130645000Y-27156700D03*
D20*
X154896200Y-36681700D03*
X153346200Y-36681700D03*
D23*
X168092600Y-26162000D03*
X169112600Y-26162000D03*
D14*
X150765800Y-39856700D03*
X150765800Y-38356700D03*
X149915800Y-38356700D03*
X149915800Y-39856700D03*
X121859600Y-23981700D03*
X121859600Y-22481700D03*
X121009600Y-22481700D03*
X121009600Y-23981700D03*
X115436000Y-36681700D03*
X115436000Y-35181700D03*
X114586000Y-35181700D03*
X114586000Y-36681700D03*
D20*
X154896200Y-43031700D03*
X153346200Y-43031700D03*
D22*
X169112600Y-27160000D03*
X168092600Y-27160000D03*
D14*
X115436000Y-43031700D03*
X115436000Y-41531700D03*
X114586000Y-41531700D03*
X114586000Y-43031700D03*
X150765800Y-43031700D03*
X150765800Y-41531700D03*
X149915800Y-41531700D03*
X149915800Y-43031700D03*
X128283200Y-33506700D03*
X128283200Y-32006700D03*
X127433200Y-32006700D03*
X127433200Y-33506700D03*
X134706800Y-30331700D03*
X134706800Y-28831700D03*
X133856800Y-28831700D03*
X133856800Y-30331700D03*
X131495000Y-33506700D03*
X131495000Y-32006700D03*
X130645000Y-32006700D03*
X130645000Y-33506700D03*
X112224200Y-36681700D03*
X112224200Y-35181700D03*
X111374200Y-35181700D03*
X111374200Y-36681700D03*
X134706800Y-27156700D03*
X134706800Y-25656700D03*
X133856800Y-25656700D03*
X133856800Y-27156700D03*
X131495000Y-30331700D03*
X131495000Y-28831700D03*
X130645000Y-28831700D03*
X130645000Y-30331700D03*
X102588800Y-43031700D03*
X102588800Y-41531700D03*
X101738800Y-41531700D03*
X101738800Y-43031700D03*
X105800600Y-39856700D03*
X105800600Y-38356700D03*
X104950600Y-38356700D03*
X104950600Y-39856700D03*
X109012400Y-36681700D03*
X109012400Y-35181700D03*
X108162400Y-35181700D03*
X108162400Y-36681700D03*
D18*
X169082600Y-33909000D03*
X168122600Y-33909000D03*
D14*
X112224200Y-30331700D03*
X112224200Y-28831700D03*
X111374200Y-28831700D03*
X111374200Y-30331700D03*
D18*
X169082600Y-28277000D03*
X168122600Y-28277000D03*
D14*
X121859600Y-33506700D03*
X121859600Y-32006700D03*
X121009600Y-32006700D03*
X121009600Y-33506700D03*
X134706800Y-46206700D03*
X134706800Y-44706700D03*
X133856800Y-44706700D03*
X133856800Y-46206700D03*
X112224200Y-46206700D03*
X112224200Y-44706700D03*
X111374200Y-44706700D03*
X111374200Y-46206700D03*
D20*
X154896200Y-33506700D03*
X153346200Y-33506700D03*
D14*
X128283200Y-30331700D03*
X128283200Y-28831700D03*
X127433200Y-28831700D03*
X127433200Y-30331700D03*
D17*
X169968400Y-42830000D03*
X175968400Y-42830000D03*
X169968400Y-46530000D03*
X175968400Y-46530000D03*
D14*
X115436000Y-30331700D03*
X115436000Y-28831700D03*
X114586000Y-28831700D03*
X114586000Y-30331700D03*
X105800600Y-27156700D03*
X105800600Y-25656700D03*
X104950600Y-25656700D03*
X104950600Y-27156700D03*
X121859600Y-46206700D03*
X121859600Y-44706700D03*
X121009600Y-44706700D03*
X121009600Y-46206700D03*
X105800600Y-36681700D03*
X105800600Y-35181700D03*
X104950600Y-35181700D03*
X104950600Y-36681700D03*
X131495000Y-39856700D03*
X131495000Y-38356700D03*
X130645000Y-38356700D03*
X130645000Y-39856700D03*
X105800600Y-33506700D03*
X105800600Y-32006700D03*
X104950600Y-32006700D03*
X104950600Y-33506700D03*
X118647800Y-33506700D03*
X118647800Y-32006700D03*
X117797800Y-32006700D03*
X117797800Y-33506700D03*
D20*
X154896200Y-27156700D03*
X153346200Y-27156700D03*
D18*
X169082600Y-31877000D03*
X168122600Y-31877000D03*
D37*
X162887600Y-20906600D03*
X162887600Y-22456600D03*
D16*
X167027800Y-38767400D03*
X167027800Y-37807400D03*
D14*
X109012400Y-46206700D03*
X109012400Y-44706700D03*
X108162400Y-44706700D03*
X108162400Y-46206700D03*
D18*
X160614300Y-22706200D03*
X159654300Y-22706200D03*
D14*
X134706800Y-39856700D03*
X134706800Y-38356700D03*
X133856800Y-38356700D03*
X133856800Y-39856700D03*
X102588800Y-30331700D03*
X102588800Y-28831700D03*
X101738800Y-28831700D03*
X101738800Y-30331700D03*
D24*
X157480000Y-28277000D03*
X158440000Y-28277000D03*
D14*
X125071400Y-39856700D03*
X125071400Y-38356700D03*
X124221400Y-38356700D03*
X124221400Y-39856700D03*
X131495000Y-46206700D03*
X131495000Y-44706700D03*
X130645000Y-44706700D03*
X130645000Y-46206700D03*
X115436000Y-27156700D03*
X115436000Y-25656700D03*
X114586000Y-25656700D03*
X114586000Y-27156700D03*
X144342200Y-46206700D03*
X144342200Y-44706700D03*
X143492200Y-44706700D03*
X143492200Y-46206700D03*
X112224200Y-23981700D03*
X112224200Y-22481700D03*
X111374200Y-22481700D03*
X111374200Y-23981700D03*
X141130400Y-36681700D03*
X141130400Y-35181700D03*
X140280400Y-35181700D03*
X140280400Y-36681700D03*
X125071400Y-27156700D03*
X125071400Y-25656700D03*
X124221400Y-25656700D03*
X124221400Y-27156700D03*
D37*
X153365200Y-20831800D03*
X153365200Y-22381800D03*
D14*
X150765800Y-33506700D03*
X150765800Y-32006700D03*
X149915800Y-32006700D03*
X149915800Y-33506700D03*
D21*
X166166800Y-24943400D03*
X166166800Y-23923400D03*
D14*
X118647800Y-27156700D03*
X118647800Y-25656700D03*
X117797800Y-25656700D03*
X117797800Y-27156700D03*
X125071400Y-30331700D03*
X125071400Y-28831700D03*
X124221400Y-28831700D03*
X124221400Y-30331700D03*
X150765800Y-36681700D03*
X150765800Y-35181700D03*
X149915800Y-35181700D03*
X149915800Y-36681700D03*
X115436000Y-23981700D03*
X115436000Y-22481700D03*
X114586000Y-22481700D03*
X114586000Y-23981700D03*
X118647800Y-23981700D03*
X118647800Y-22481700D03*
X117797800Y-22481700D03*
X117797800Y-23981700D03*
X118647800Y-39856700D03*
X118647800Y-38356700D03*
X117797800Y-38356700D03*
X117797800Y-39856700D03*
X121859600Y-30331700D03*
X121859600Y-28831700D03*
X121009600Y-28831700D03*
X121009600Y-30331700D03*
D37*
X168579800Y-20916600D03*
X168579800Y-22466600D03*
D14*
X125071400Y-33506700D03*
X125071400Y-32006700D03*
X124221400Y-32006700D03*
X124221400Y-33506700D03*
X109012400Y-43031700D03*
X109012400Y-41531700D03*
X108162400Y-41531700D03*
X108162400Y-43031700D03*
X118647800Y-36681700D03*
X118647800Y-35181700D03*
X117797800Y-35181700D03*
X117797800Y-36681700D03*
X131495000Y-36681700D03*
X131495000Y-35181700D03*
X130645000Y-35181700D03*
X130645000Y-36681700D03*
X147554000Y-43031700D03*
X147554000Y-41531700D03*
X146704000Y-41531700D03*
X146704000Y-43031700D03*
X125071400Y-36681700D03*
X125071400Y-35181700D03*
X124221400Y-35181700D03*
X124221400Y-36681700D03*
D20*
X154896200Y-30331700D03*
X153346200Y-30331700D03*
D23*
X157704000Y-22706200D03*
X158724000Y-22706200D03*
D14*
X109012400Y-23981700D03*
X109012400Y-22481700D03*
X108162400Y-22481700D03*
X108162400Y-23981700D03*
X128283200Y-36681700D03*
X128283200Y-35181700D03*
X127433200Y-35181700D03*
X127433200Y-36681700D03*
D18*
X169082600Y-30861000D03*
X168122600Y-30861000D03*
D14*
X109012400Y-33506700D03*
X109012400Y-32006700D03*
X108162400Y-32006700D03*
X108162400Y-33506700D03*
X118647800Y-43031700D03*
X118647800Y-41531700D03*
X117797800Y-41531700D03*
X117797800Y-43031700D03*
X147554000Y-27156700D03*
X147554000Y-25656700D03*
X146704000Y-25656700D03*
X146704000Y-27156700D03*
D38*
X176453800Y-34086800D03*
X171373800Y-35102800D03*
X171373800Y-33070800D03*
%LPD*%
M02*
