M48
; DRILL file {KiCad 8.0.1} date 2024-05-08T20:32:48+0200
; FORMAT={-:-/ absolute / metric / decimal}
; #@! TF.CreationDate,2024-05-08T20:32:48+02:00
; #@! TF.GenerationSoftware,Kicad,Pcbnew,8.0.1
; #@! TF.FileFunction,Plated,1,2,PTH
FMAT,2
METRIC
; #@! TA.AperFunction,Plated,PTH,ViaDrill
T1C0.400
; #@! TA.AperFunction,Plated,PTH,ComponentDrill
T2C0.600
%
G90
G05
T1
X100.584Y-22.479
X100.584Y-25.654
X100.584Y-28.829
X100.584Y-32.004
X100.584Y-35.179
X100.584Y-38.354
X100.584Y-41.529
X100.584Y-44.704
X100.774Y-23.982
X100.774Y-27.157
X100.774Y-30.335
X100.774Y-33.514
X100.774Y-36.693
X100.774Y-39.872
X100.774Y-43.051
X100.774Y-46.229
X104.013Y-22.463
X104.013Y-25.655
X104.013Y-28.832
X104.013Y-32.008
X104.013Y-35.184
X104.013Y-38.361
X104.013Y-41.537
X104.013Y-44.713
X107.225Y-22.463
X107.225Y-25.655
X107.225Y-28.832
X107.225Y-32.008
X107.225Y-35.184
X107.225Y-38.361
X107.225Y-41.537
X107.225Y-44.713
X110.437Y-22.463
X110.437Y-25.655
X110.437Y-28.832
X110.437Y-32.008
X110.437Y-35.184
X110.437Y-38.361
X110.437Y-41.537
X110.437Y-44.713
X113.649Y-22.463
X113.649Y-25.655
X113.649Y-28.832
X113.649Y-32.008
X113.649Y-35.184
X113.649Y-38.361
X113.649Y-41.537
X113.649Y-44.713
X116.861Y-22.463
X116.861Y-25.655
X116.861Y-28.832
X116.861Y-32.008
X116.861Y-35.184
X116.861Y-38.361
X116.861Y-41.537
X116.861Y-44.713
X120.073Y-22.463
X120.073Y-25.655
X120.073Y-28.832
X120.073Y-32.008
X120.073Y-35.184
X120.073Y-38.361
X120.073Y-41.537
X120.073Y-44.713
X123.285Y-22.463
X123.285Y-25.655
X123.285Y-28.832
X123.285Y-32.008
X123.285Y-35.184
X123.285Y-38.361
X123.285Y-41.537
X123.285Y-44.713
X126.497Y-22.463
X126.497Y-25.655
X126.497Y-28.832
X126.497Y-32.008
X126.497Y-35.184
X126.497Y-38.361
X126.497Y-41.537
X126.497Y-44.713
X129.709Y-22.463
X129.709Y-25.655
X129.709Y-28.832
X129.709Y-32.008
X129.709Y-35.184
X129.709Y-38.361
X129.709Y-41.537
X129.709Y-44.713
X132.921Y-22.463
X132.921Y-25.655
X132.921Y-28.832
X132.921Y-32.008
X132.921Y-35.184
X132.921Y-38.361
X132.921Y-41.537
X132.921Y-44.713
X136.132Y-22.463
X136.132Y-25.655
X136.132Y-28.832
X136.132Y-32.008
X136.132Y-35.184
X136.132Y-38.361
X136.132Y-41.537
X136.132Y-44.713
X139.344Y-22.463
X139.344Y-25.655
X139.344Y-28.832
X139.344Y-32.008
X139.344Y-35.184
X139.344Y-38.361
X139.344Y-41.537
X139.344Y-44.713
X142.556Y-22.463
X142.556Y-25.655
X142.556Y-28.832
X142.556Y-32.008
X142.556Y-35.184
X142.556Y-38.361
X142.556Y-41.537
X142.556Y-44.713
X145.768Y-22.463
X145.768Y-25.655
X145.768Y-28.832
X145.768Y-32.008
X145.768Y-35.184
X145.768Y-38.361
X145.768Y-41.537
X145.768Y-44.713
X148.98Y-22.463
X148.98Y-25.655
X148.98Y-28.832
X148.98Y-32.008
X148.98Y-35.184
X148.98Y-38.361
X148.98Y-41.537
X148.98Y-44.713
X151.727Y-22.482
X151.727Y-25.66
X151.727Y-28.839
X151.727Y-35.197
X151.727Y-38.376
X151.727Y-41.554
X153.346Y-40.951
X153.365Y-19.025
X154.915Y-25.527
X154.915Y-28.727
X154.915Y-31.902
X154.915Y-35.052
X154.915Y-38.252
X154.915Y-41.427
X154.915Y-44.577
X154.915Y-47.498
X155.169Y-19.025
X156.148Y-32.664
X156.148Y-33.782
X157.023Y-19.025
X157.303Y-27.267
X157.404Y-36.627
X157.674Y-30.201
X158.445Y-27.318
X158.674Y-30.201
X158.801Y-41.986
X159.654Y-20.345
X159.654Y-21.996
X160.96Y-28.55
X160.96Y-30.886
X160.96Y-33.198
X161.542Y-45.771
X161.544Y-43.663
X162.179Y-23.914
X163.297Y-33.198
X163.349Y-40.31
X163.618Y-23.143
X163.861Y-36.805
X163.866Y-25.79
X164.897Y-36.805
X165.252Y-21.463
X165.633Y-28.55
X165.633Y-30.886
X165.633Y-33.198
X165.938Y-36.805
X166.141Y-26.314
X166.768Y-39.886
X166.903Y-27.153
X166.946Y-35.673
X166.946Y-36.805
X167.691Y-23.292
X168.123Y-30.074
X169.083Y-35.204
X169.266Y-38.532
X169.968Y-39.886
X170.028Y-23.46
X170.042Y-28.31
X171.069Y-39.599
X172.718Y-44.729
X175.971Y-35.509
T2
X171.232Y-21.59G85X172.332Y-21.59
G05
X171.232Y-30.23G85X172.332Y-30.23
G05
X175.562Y-21.59G85X176.362Y-21.59
G05
X175.562Y-30.23G85X176.362Y-30.23
G05
M30
