G04 #@! TF.GenerationSoftware,KiCad,Pcbnew,8.0.1*
G04 #@! TF.CreationDate,2024-05-08T20:32:46+02:00*
G04 #@! TF.ProjectId,TGL_Board,54474c5f-426f-4617-9264-2e6b69636164,rev?*
G04 #@! TF.SameCoordinates,Original*
G04 #@! TF.FileFunction,Legend,Bot*
G04 #@! TF.FilePolarity,Positive*
%FSLAX46Y46*%
G04 Gerber Fmt 4.6, Leading zero omitted, Abs format (unit mm)*
G04 Created by KiCad (PCBNEW 8.0.1) date 2024-05-08 20:32:46*
%MOMM*%
%LPD*%
G01*
G04 APERTURE LIST*
%ADD10C,0.150000*%
%ADD11C,0.153000*%
%ADD12C,0.200000*%
%ADD13C,0.300000*%
%ADD14C,0.120000*%
%ADD15C,0.650000*%
%ADD16O,2.100000X1.000000*%
%ADD17O,1.800000X1.000000*%
%ADD18C,1.000000*%
%ADD19C,0.990600*%
%ADD20C,0.787400*%
G04 APERTURE END LIST*
D10*
X133125600Y-44696866D02*
X124125600Y-44696866D01*
X123125691Y-45710267D02*
G75*
G02*
X124125600Y-44696890I1006609J6767D01*
G01*
X133523600Y-44849266D02*
X133701400Y-44950866D01*
X133980800Y-45230266D01*
X134057000Y-45535066D01*
X133726800Y-45484266D01*
X133295000Y-44773066D01*
X133523600Y-44849266D01*
G36*
X133523600Y-44849266D02*
G01*
X133701400Y-44950866D01*
X133980800Y-45230266D01*
X134057000Y-45535066D01*
X133726800Y-45484266D01*
X133295000Y-44773066D01*
X133523600Y-44849266D01*
G37*
X123125690Y-48710267D02*
X123125690Y-45710267D01*
X123389000Y-45687466D02*
X123211200Y-45484266D01*
X123312800Y-45204866D01*
X123592200Y-44900066D01*
X124125600Y-44696866D01*
X123389000Y-45687466D01*
G36*
X123389000Y-45687466D02*
G01*
X123211200Y-45484266D01*
X123312800Y-45204866D01*
X123592200Y-44900066D01*
X124125600Y-44696866D01*
X123389000Y-45687466D01*
G37*
X134139001Y-45696776D02*
X134139001Y-48696776D01*
X124139091Y-49710176D02*
G75*
G02*
X123125624Y-48710267I-6791J1006676D01*
G01*
X133139091Y-49710177D02*
X124139091Y-49710177D01*
X134139001Y-45696776D02*
X134139001Y-48696776D01*
X133139091Y-49710177D01*
X124139091Y-49710177D01*
X123125690Y-48710267D01*
X123125690Y-45710267D01*
X124125600Y-44696866D01*
X133125600Y-44696866D01*
X134139001Y-45696776D01*
G36*
X134139001Y-45696776D02*
G01*
X134139001Y-48696776D01*
X133139091Y-49710177D01*
X124139091Y-49710177D01*
X123125690Y-48710267D01*
X123125690Y-45710267D01*
X124125600Y-44696866D01*
X133125600Y-44696866D01*
X134139001Y-45696776D01*
G37*
X134139001Y-48696776D02*
G75*
G02*
X133139091Y-49710200I-1006701J-6724D01*
G01*
X123973200Y-49624466D02*
X123719200Y-49573666D01*
X123363600Y-49294266D01*
X123211200Y-48964066D01*
X123236600Y-48862466D01*
X123973200Y-49624466D01*
G36*
X123973200Y-49624466D02*
G01*
X123719200Y-49573666D01*
X123363600Y-49294266D01*
X123211200Y-48964066D01*
X123236600Y-48862466D01*
X123973200Y-49624466D01*
G37*
X133125600Y-44696866D02*
G75*
G02*
X134138934Y-45696776I6700J-1006634D01*
G01*
X134057000Y-48989466D02*
X133904600Y-49268866D01*
X133650600Y-49497466D01*
X133396600Y-49624466D01*
X133269600Y-49599066D01*
X133625200Y-48989466D01*
X134031600Y-48837066D01*
X134057000Y-48989466D01*
G36*
X134057000Y-48989466D02*
G01*
X133904600Y-49268866D01*
X133650600Y-49497466D01*
X133396600Y-49624466D01*
X133269600Y-49599066D01*
X133625200Y-48989466D01*
X134031600Y-48837066D01*
X134057000Y-48989466D01*
G37*
D11*
X159188240Y-40857321D02*
X158750507Y-41295054D01*
X158750507Y-41295054D02*
X159255584Y-41328726D01*
X159255584Y-41328726D02*
X159154568Y-41429741D01*
X159154568Y-41429741D02*
X159120897Y-41530756D01*
X159120897Y-41530756D02*
X159120897Y-41598100D01*
X159120897Y-41598100D02*
X159154568Y-41699115D01*
X159154568Y-41699115D02*
X159322927Y-41867474D01*
X159322927Y-41867474D02*
X159423942Y-41901145D01*
X159423942Y-41901145D02*
X159491286Y-41901145D01*
X159491286Y-41901145D02*
X159592301Y-41867474D01*
X159592301Y-41867474D02*
X159794332Y-41665443D01*
X159794332Y-41665443D02*
X159828003Y-41564428D01*
X159828003Y-41564428D02*
X159828003Y-41497084D01*
X159087225Y-42237863D02*
X159087225Y-42305206D01*
X159087225Y-42305206D02*
X159154568Y-42305206D01*
X159154568Y-42305206D02*
X159154568Y-42237863D01*
X159154568Y-42237863D02*
X159087225Y-42237863D01*
X159087225Y-42237863D02*
X159154568Y-42305206D01*
X158178088Y-41867473D02*
X157740355Y-42305206D01*
X157740355Y-42305206D02*
X158245431Y-42338878D01*
X158245431Y-42338878D02*
X158144416Y-42439893D01*
X158144416Y-42439893D02*
X158110744Y-42540908D01*
X158110744Y-42540908D02*
X158110744Y-42608252D01*
X158110744Y-42608252D02*
X158144416Y-42709267D01*
X158144416Y-42709267D02*
X158312775Y-42877626D01*
X158312775Y-42877626D02*
X158413790Y-42911298D01*
X158413790Y-42911298D02*
X158481134Y-42911298D01*
X158481134Y-42911298D02*
X158582149Y-42877626D01*
X158582149Y-42877626D02*
X158784179Y-42675595D01*
X158784179Y-42675595D02*
X158817851Y-42574580D01*
X158817851Y-42574580D02*
X158817851Y-42507237D01*
X157538325Y-42507237D02*
X158009729Y-43450046D01*
X158009729Y-43450046D02*
X157066920Y-42978641D01*
D12*
X141994137Y-22527279D02*
X141194137Y-23727279D01*
X141194137Y-22527279D02*
X141994137Y-23727279D01*
X140851280Y-22527279D02*
X140051280Y-23727279D01*
X140051280Y-22527279D02*
X140851280Y-23727279D01*
X139708423Y-22527279D02*
X138908423Y-23727279D01*
X138908423Y-22527279D02*
X139708423Y-23727279D01*
X138565566Y-22527279D02*
X137765566Y-23727279D01*
X137765566Y-22527279D02*
X138565566Y-23727279D01*
X141994137Y-24459212D02*
X141194137Y-25659212D01*
X141194137Y-24459212D02*
X141994137Y-25659212D01*
X140851280Y-24459212D02*
X140051280Y-25659212D01*
X140051280Y-24459212D02*
X140851280Y-25659212D01*
X139708423Y-24459212D02*
X138908423Y-25659212D01*
X138908423Y-24459212D02*
X139708423Y-25659212D01*
X138565566Y-24459212D02*
X137765566Y-25659212D01*
X137765566Y-24459212D02*
X138565566Y-25659212D01*
X141994137Y-26391145D02*
X141194137Y-27591145D01*
X141194137Y-26391145D02*
X141994137Y-27591145D01*
X140851280Y-26391145D02*
X140051280Y-27591145D01*
X140051280Y-26391145D02*
X140851280Y-27591145D01*
X139708423Y-26391145D02*
X138908423Y-27591145D01*
X138908423Y-26391145D02*
X139708423Y-27591145D01*
X138565566Y-26391145D02*
X137765566Y-27591145D01*
X137765566Y-26391145D02*
X138565566Y-27591145D01*
X141994137Y-28323078D02*
X141194137Y-29523078D01*
X141194137Y-28323078D02*
X141994137Y-29523078D01*
X140851280Y-28323078D02*
X140051280Y-29523078D01*
X140051280Y-28323078D02*
X140851280Y-29523078D01*
X139708423Y-28323078D02*
X138908423Y-29523078D01*
X138908423Y-28323078D02*
X139708423Y-29523078D01*
X138565566Y-28323078D02*
X137765566Y-29523078D01*
X137765566Y-28323078D02*
X138565566Y-29523078D01*
X141994137Y-30255011D02*
X141194137Y-31455011D01*
X141194137Y-30255011D02*
X141994137Y-31455011D01*
X140851280Y-30255011D02*
X140051280Y-31455011D01*
X140051280Y-30255011D02*
X140851280Y-31455011D01*
X139708423Y-30255011D02*
X138908423Y-31455011D01*
X138908423Y-30255011D02*
X139708423Y-31455011D01*
X138565566Y-30255011D02*
X137765566Y-31455011D01*
X137765566Y-30255011D02*
X138565566Y-31455011D01*
X141994137Y-32186944D02*
X141194137Y-33386944D01*
X141194137Y-32186944D02*
X141994137Y-33386944D01*
X140851280Y-32186944D02*
X140051280Y-33386944D01*
X140051280Y-32186944D02*
X140851280Y-33386944D01*
X139708423Y-32186944D02*
X138908423Y-33386944D01*
X138908423Y-32186944D02*
X139708423Y-33386944D01*
X138565566Y-32186944D02*
X137765566Y-33386944D01*
X137765566Y-32186944D02*
X138565566Y-33386944D01*
X141994137Y-34118877D02*
X141194137Y-35318877D01*
X141194137Y-34118877D02*
X141994137Y-35318877D01*
X140851280Y-34118877D02*
X140051280Y-35318877D01*
X140051280Y-34118877D02*
X140851280Y-35318877D01*
X139708423Y-34118877D02*
X138908423Y-35318877D01*
X138908423Y-34118877D02*
X139708423Y-35318877D01*
X138565566Y-34118877D02*
X137765566Y-35318877D01*
X137765566Y-34118877D02*
X138565566Y-35318877D01*
X141994137Y-36050810D02*
X141194137Y-37250810D01*
X141194137Y-36050810D02*
X141994137Y-37250810D01*
X140851280Y-36050810D02*
X140051280Y-37250810D01*
X140051280Y-36050810D02*
X140851280Y-37250810D01*
X139708423Y-36050810D02*
X138908423Y-37250810D01*
X138908423Y-36050810D02*
X139708423Y-37250810D01*
X138565566Y-36050810D02*
X137765566Y-37250810D01*
X137765566Y-36050810D02*
X138565566Y-37250810D01*
X141994137Y-37982743D02*
X141194137Y-39182743D01*
X141194137Y-37982743D02*
X141994137Y-39182743D01*
X140851280Y-37982743D02*
X140051280Y-39182743D01*
X140051280Y-37982743D02*
X140851280Y-39182743D01*
X139708423Y-37982743D02*
X138908423Y-39182743D01*
X138908423Y-37982743D02*
X139708423Y-39182743D01*
X138565566Y-37982743D02*
X137765566Y-39182743D01*
X137765566Y-37982743D02*
X138565566Y-39182743D01*
X141994137Y-39914676D02*
X141194137Y-41114676D01*
X141194137Y-39914676D02*
X141994137Y-41114676D01*
X140851280Y-39914676D02*
X140051280Y-41114676D01*
X140051280Y-39914676D02*
X140851280Y-41114676D01*
X139708423Y-39914676D02*
X138908423Y-41114676D01*
X138908423Y-39914676D02*
X139708423Y-41114676D01*
X138565566Y-39914676D02*
X137765566Y-41114676D01*
X137765566Y-39914676D02*
X138565566Y-41114676D01*
X141994137Y-41846609D02*
X141194137Y-43046609D01*
X141194137Y-41846609D02*
X141994137Y-43046609D01*
X140851280Y-41846609D02*
X140051280Y-43046609D01*
X140051280Y-41846609D02*
X140851280Y-43046609D01*
X139708423Y-41846609D02*
X138908423Y-43046609D01*
X138908423Y-41846609D02*
X139708423Y-43046609D01*
X138565566Y-41846609D02*
X137765566Y-43046609D01*
X137765566Y-41846609D02*
X138565566Y-43046609D01*
X141994137Y-43778542D02*
X141194137Y-44978542D01*
X141194137Y-43778542D02*
X141994137Y-44978542D01*
X140851280Y-43778542D02*
X140051280Y-44978542D01*
X140051280Y-43778542D02*
X140851280Y-44978542D01*
X139708423Y-43778542D02*
X138908423Y-44978542D01*
X138908423Y-43778542D02*
X139708423Y-44978542D01*
X138565566Y-43778542D02*
X137765566Y-44978542D01*
X137765566Y-43778542D02*
X138565566Y-44978542D01*
D11*
X172504942Y-42620032D02*
X172403927Y-42047613D01*
X172909003Y-42215971D02*
X172201897Y-41508865D01*
X172201897Y-41508865D02*
X171932523Y-41778239D01*
X171932523Y-41778239D02*
X171898851Y-41879254D01*
X171898851Y-41879254D02*
X171898851Y-41946597D01*
X171898851Y-41946597D02*
X171932523Y-42047613D01*
X171932523Y-42047613D02*
X172033538Y-42148628D01*
X172033538Y-42148628D02*
X172134553Y-42182300D01*
X172134553Y-42182300D02*
X172201897Y-42182300D01*
X172201897Y-42182300D02*
X172302912Y-42148628D01*
X172302912Y-42148628D02*
X172572286Y-41879254D01*
X172269240Y-42855735D02*
X171427446Y-42754719D01*
X171797836Y-42384330D02*
X171898851Y-43226124D01*
D12*
X148276457Y-46190009D02*
X147476457Y-47390009D01*
X147476457Y-46190009D02*
X148276457Y-47390009D01*
X147133600Y-46190009D02*
X146333600Y-47390009D01*
X146333600Y-46190009D02*
X147133600Y-47390009D01*
X145990743Y-46190009D02*
X145190743Y-47390009D01*
X145190743Y-46190009D02*
X145990743Y-47390009D01*
X144847886Y-46190009D02*
X144047886Y-47390009D01*
X144047886Y-46190009D02*
X144847886Y-47390009D01*
X142790743Y-46190009D02*
X141990743Y-47390009D01*
X141990743Y-46190009D02*
X142790743Y-47390009D01*
X141647886Y-46190009D02*
X140847886Y-47390009D01*
X140847886Y-46190009D02*
X141647886Y-47390009D01*
X140505029Y-46190009D02*
X139705029Y-47390009D01*
X139705029Y-46190009D02*
X140505029Y-47390009D01*
X139362172Y-46190009D02*
X138562172Y-47390009D01*
X138562172Y-46190009D02*
X139362172Y-47390009D01*
X148276457Y-48121942D02*
X147476457Y-49321942D01*
X147476457Y-48121942D02*
X148276457Y-49321942D01*
X147133600Y-48121942D02*
X146333600Y-49321942D01*
X146333600Y-48121942D02*
X147133600Y-49321942D01*
X145990743Y-48121942D02*
X145190743Y-49321942D01*
X145190743Y-48121942D02*
X145990743Y-49321942D01*
X144847886Y-48121942D02*
X144047886Y-49321942D01*
X144047886Y-48121942D02*
X144847886Y-49321942D01*
X142790743Y-48121942D02*
X141990743Y-49321942D01*
X141990743Y-48121942D02*
X142790743Y-49321942D01*
X141647886Y-48121942D02*
X140847886Y-49321942D01*
X140847886Y-48121942D02*
X141647886Y-49321942D01*
X140505029Y-48121942D02*
X139705029Y-49321942D01*
X139705029Y-48121942D02*
X140505029Y-49321942D01*
X139362172Y-48121942D02*
X138562172Y-49321942D01*
X138562172Y-48121942D02*
X139362172Y-49321942D01*
X151341337Y-22527279D02*
X150541337Y-23727279D01*
X150541337Y-22527279D02*
X151341337Y-23727279D01*
X150198480Y-22527279D02*
X149398480Y-23727279D01*
X149398480Y-22527279D02*
X150198480Y-23727279D01*
X149055623Y-22527279D02*
X148255623Y-23727279D01*
X148255623Y-22527279D02*
X149055623Y-23727279D01*
X147912766Y-22527279D02*
X147112766Y-23727279D01*
X147112766Y-22527279D02*
X147912766Y-23727279D01*
X151341337Y-24459212D02*
X150541337Y-25659212D01*
X150541337Y-24459212D02*
X151341337Y-25659212D01*
X150198480Y-24459212D02*
X149398480Y-25659212D01*
X149398480Y-24459212D02*
X150198480Y-25659212D01*
X149055623Y-24459212D02*
X148255623Y-25659212D01*
X148255623Y-24459212D02*
X149055623Y-25659212D01*
X147912766Y-24459212D02*
X147112766Y-25659212D01*
X147112766Y-24459212D02*
X147912766Y-25659212D01*
X151341337Y-26391145D02*
X150541337Y-27591145D01*
X150541337Y-26391145D02*
X151341337Y-27591145D01*
X150198480Y-26391145D02*
X149398480Y-27591145D01*
X149398480Y-26391145D02*
X150198480Y-27591145D01*
X149055623Y-26391145D02*
X148255623Y-27591145D01*
X148255623Y-26391145D02*
X149055623Y-27591145D01*
X147912766Y-26391145D02*
X147112766Y-27591145D01*
X147112766Y-26391145D02*
X147912766Y-27591145D01*
X151341337Y-28323078D02*
X150541337Y-29523078D01*
X150541337Y-28323078D02*
X151341337Y-29523078D01*
X150198480Y-28323078D02*
X149398480Y-29523078D01*
X149398480Y-28323078D02*
X150198480Y-29523078D01*
X149055623Y-28323078D02*
X148255623Y-29523078D01*
X148255623Y-28323078D02*
X149055623Y-29523078D01*
X147912766Y-28323078D02*
X147112766Y-29523078D01*
X147112766Y-28323078D02*
X147912766Y-29523078D01*
X151341337Y-30255011D02*
X150541337Y-31455011D01*
X150541337Y-30255011D02*
X151341337Y-31455011D01*
X150198480Y-30255011D02*
X149398480Y-31455011D01*
X149398480Y-30255011D02*
X150198480Y-31455011D01*
X149055623Y-30255011D02*
X148255623Y-31455011D01*
X148255623Y-30255011D02*
X149055623Y-31455011D01*
X147912766Y-30255011D02*
X147112766Y-31455011D01*
X147112766Y-30255011D02*
X147912766Y-31455011D01*
X151341337Y-32186944D02*
X150541337Y-33386944D01*
X150541337Y-32186944D02*
X151341337Y-33386944D01*
X150198480Y-32186944D02*
X149398480Y-33386944D01*
X149398480Y-32186944D02*
X150198480Y-33386944D01*
X149055623Y-32186944D02*
X148255623Y-33386944D01*
X148255623Y-32186944D02*
X149055623Y-33386944D01*
X147912766Y-32186944D02*
X147112766Y-33386944D01*
X147112766Y-32186944D02*
X147912766Y-33386944D01*
X151341337Y-34118877D02*
X150541337Y-35318877D01*
X150541337Y-34118877D02*
X151341337Y-35318877D01*
X150198480Y-34118877D02*
X149398480Y-35318877D01*
X149398480Y-34118877D02*
X150198480Y-35318877D01*
X149055623Y-34118877D02*
X148255623Y-35318877D01*
X148255623Y-34118877D02*
X149055623Y-35318877D01*
X147912766Y-34118877D02*
X147112766Y-35318877D01*
X147112766Y-34118877D02*
X147912766Y-35318877D01*
X151341337Y-36050810D02*
X150541337Y-37250810D01*
X150541337Y-36050810D02*
X151341337Y-37250810D01*
X150198480Y-36050810D02*
X149398480Y-37250810D01*
X149398480Y-36050810D02*
X150198480Y-37250810D01*
X149055623Y-36050810D02*
X148255623Y-37250810D01*
X148255623Y-36050810D02*
X149055623Y-37250810D01*
X147912766Y-36050810D02*
X147112766Y-37250810D01*
X147112766Y-36050810D02*
X147912766Y-37250810D01*
X151341337Y-37982743D02*
X150541337Y-39182743D01*
X150541337Y-37982743D02*
X151341337Y-39182743D01*
X150198480Y-37982743D02*
X149398480Y-39182743D01*
X149398480Y-37982743D02*
X150198480Y-39182743D01*
X149055623Y-37982743D02*
X148255623Y-39182743D01*
X148255623Y-37982743D02*
X149055623Y-39182743D01*
X147912766Y-37982743D02*
X147112766Y-39182743D01*
X147112766Y-37982743D02*
X147912766Y-39182743D01*
X151341337Y-39914676D02*
X150541337Y-41114676D01*
X150541337Y-39914676D02*
X151341337Y-41114676D01*
X150198480Y-39914676D02*
X149398480Y-41114676D01*
X149398480Y-39914676D02*
X150198480Y-41114676D01*
X149055623Y-39914676D02*
X148255623Y-41114676D01*
X148255623Y-39914676D02*
X149055623Y-41114676D01*
X147912766Y-39914676D02*
X147112766Y-41114676D01*
X147112766Y-39914676D02*
X147912766Y-41114676D01*
X151341337Y-41846609D02*
X150541337Y-43046609D01*
X150541337Y-41846609D02*
X151341337Y-43046609D01*
X150198480Y-41846609D02*
X149398480Y-43046609D01*
X149398480Y-41846609D02*
X150198480Y-43046609D01*
X149055623Y-41846609D02*
X148255623Y-43046609D01*
X148255623Y-41846609D02*
X149055623Y-43046609D01*
X147912766Y-41846609D02*
X147112766Y-43046609D01*
X147112766Y-41846609D02*
X147912766Y-43046609D01*
X151341337Y-43778542D02*
X150541337Y-44978542D01*
X150541337Y-43778542D02*
X151341337Y-44978542D01*
X150198480Y-43778542D02*
X149398480Y-44978542D01*
X149398480Y-43778542D02*
X150198480Y-44978542D01*
X149055623Y-43778542D02*
X148255623Y-44978542D01*
X148255623Y-43778542D02*
X149055623Y-44978542D01*
X147912766Y-43778542D02*
X147112766Y-44978542D01*
X147112766Y-43778542D02*
X147912766Y-44978542D01*
D11*
X174360312Y-41407849D02*
X173956251Y-41811910D01*
X174865388Y-42316987D02*
X174158281Y-41609880D01*
X174494999Y-42687376D02*
X173653205Y-42586361D01*
X174023594Y-42215972D02*
X174124609Y-43057765D01*
X160803479Y-41328726D02*
X160837151Y-41227710D01*
X160837151Y-41227710D02*
X160938166Y-41126695D01*
X160938166Y-41126695D02*
X161072853Y-41059352D01*
X161072853Y-41059352D02*
X161207540Y-41059352D01*
X161207540Y-41059352D02*
X161308555Y-41093023D01*
X161308555Y-41093023D02*
X161476914Y-41194039D01*
X161476914Y-41194039D02*
X161577929Y-41295054D01*
X161577929Y-41295054D02*
X161678945Y-41463413D01*
X161678945Y-41463413D02*
X161712616Y-41564428D01*
X161712616Y-41564428D02*
X161712616Y-41699115D01*
X161712616Y-41699115D02*
X161645273Y-41833802D01*
X161645273Y-41833802D02*
X161577929Y-41901145D01*
X161577929Y-41901145D02*
X161443242Y-41968489D01*
X161443242Y-41968489D02*
X161375899Y-41968489D01*
X161375899Y-41968489D02*
X161140197Y-41732787D01*
X161140197Y-41732787D02*
X161274884Y-41598100D01*
X161140197Y-42338878D02*
X160433090Y-41631771D01*
X160433090Y-41631771D02*
X160736136Y-42742939D01*
X160736136Y-42742939D02*
X160029029Y-42035832D01*
X160399418Y-43079657D02*
X159692311Y-42372550D01*
X159692311Y-42372550D02*
X159523953Y-42540909D01*
X159523953Y-42540909D02*
X159456609Y-42675596D01*
X159456609Y-42675596D02*
X159456609Y-42810283D01*
X159456609Y-42810283D02*
X159490281Y-42911298D01*
X159490281Y-42911298D02*
X159591296Y-43079657D01*
X159591296Y-43079657D02*
X159692311Y-43180672D01*
X159692311Y-43180672D02*
X159860670Y-43281687D01*
X159860670Y-43281687D02*
X159961685Y-43315359D01*
X159961685Y-43315359D02*
X160096372Y-43315359D01*
X160096372Y-43315359D02*
X160231059Y-43248015D01*
X160231059Y-43248015D02*
X160399418Y-43079657D01*
X156764879Y-41261382D02*
X157101597Y-40924665D01*
X157101597Y-40924665D02*
X157471986Y-41227710D01*
X157471986Y-41227710D02*
X157404642Y-41227710D01*
X157404642Y-41227710D02*
X157303627Y-41261382D01*
X157303627Y-41261382D02*
X157135268Y-41429741D01*
X157135268Y-41429741D02*
X157101597Y-41530756D01*
X157101597Y-41530756D02*
X157101597Y-41598100D01*
X157101597Y-41598100D02*
X157135268Y-41699115D01*
X157135268Y-41699115D02*
X157303627Y-41867474D01*
X157303627Y-41867474D02*
X157404642Y-41901145D01*
X157404642Y-41901145D02*
X157471986Y-41901145D01*
X157471986Y-41901145D02*
X157573001Y-41867474D01*
X157573001Y-41867474D02*
X157741360Y-41699115D01*
X157741360Y-41699115D02*
X157775032Y-41598100D01*
X157775032Y-41598100D02*
X157775032Y-41530756D01*
X157067925Y-42237863D02*
X157067925Y-42305206D01*
X157067925Y-42305206D02*
X157135268Y-42305206D01*
X157135268Y-42305206D02*
X157135268Y-42237863D01*
X157135268Y-42237863D02*
X157067925Y-42237863D01*
X157067925Y-42237863D02*
X157135268Y-42305206D01*
X155956757Y-42069504D02*
X155889414Y-42136847D01*
X155889414Y-42136847D02*
X155855742Y-42237863D01*
X155855742Y-42237863D02*
X155855742Y-42305206D01*
X155855742Y-42305206D02*
X155889414Y-42406221D01*
X155889414Y-42406221D02*
X155990429Y-42574580D01*
X155990429Y-42574580D02*
X156158788Y-42742939D01*
X156158788Y-42742939D02*
X156327147Y-42843954D01*
X156327147Y-42843954D02*
X156428162Y-42877626D01*
X156428162Y-42877626D02*
X156495505Y-42877626D01*
X156495505Y-42877626D02*
X156596521Y-42843954D01*
X156596521Y-42843954D02*
X156663864Y-42776611D01*
X156663864Y-42776611D02*
X156697536Y-42675595D01*
X156697536Y-42675595D02*
X156697536Y-42608252D01*
X156697536Y-42608252D02*
X156663864Y-42507237D01*
X156663864Y-42507237D02*
X156562849Y-42338878D01*
X156562849Y-42338878D02*
X156394490Y-42170519D01*
X156394490Y-42170519D02*
X156226131Y-42069504D01*
X156226131Y-42069504D02*
X156125116Y-42035832D01*
X156125116Y-42035832D02*
X156057773Y-42035832D01*
X156057773Y-42035832D02*
X155956757Y-42069504D01*
X155519025Y-42507237D02*
X155990429Y-43450046D01*
X155990429Y-43450046D02*
X155047620Y-42978641D01*
D13*
X152894803Y-19516342D02*
X152094803Y-20716342D01*
X152094803Y-19516342D02*
X152894803Y-20716342D01*
X151751946Y-19516342D02*
X150951946Y-20716342D01*
X150951946Y-19516342D02*
X151751946Y-20716342D01*
X150494803Y-20259200D02*
X149580518Y-20259200D01*
X149123375Y-19516342D02*
X148323375Y-20716342D01*
X148323375Y-19516342D02*
X149123375Y-20716342D01*
X147980518Y-19516342D02*
X147180518Y-20716342D01*
X147180518Y-19516342D02*
X147980518Y-20716342D01*
X146723375Y-20602057D02*
X146666232Y-20659200D01*
X146666232Y-20659200D02*
X146723375Y-20716342D01*
X146723375Y-20716342D02*
X146780518Y-20659200D01*
X146780518Y-20659200D02*
X146723375Y-20602057D01*
X146723375Y-20602057D02*
X146723375Y-20716342D01*
X146266232Y-19516342D02*
X145466232Y-20716342D01*
X145466232Y-19516342D02*
X146266232Y-20716342D01*
X144209089Y-19516342D02*
X143409089Y-20716342D01*
X143409089Y-19516342D02*
X144209089Y-20716342D01*
X143066232Y-19516342D02*
X142266232Y-20716342D01*
X142266232Y-19516342D02*
X143066232Y-20716342D01*
X141923375Y-19516342D02*
X141123375Y-20716342D01*
X141123375Y-19516342D02*
X141923375Y-20716342D01*
X140780518Y-19516342D02*
X139980518Y-20716342D01*
X139980518Y-19516342D02*
X140780518Y-20716342D01*
X139523375Y-20259200D02*
X138609090Y-20259200D01*
X138151947Y-19516342D02*
X137351947Y-20716342D01*
X137351947Y-19516342D02*
X138151947Y-20716342D01*
X137009090Y-19516342D02*
X136209090Y-20716342D01*
X136209090Y-19516342D02*
X137009090Y-20716342D01*
X135866233Y-19516342D02*
X135066233Y-20716342D01*
X135066233Y-19516342D02*
X135866233Y-20716342D01*
X134723376Y-19516342D02*
X133923376Y-20716342D01*
X133923376Y-19516342D02*
X134723376Y-20716342D01*
D14*
X173940700Y-40868600D02*
G75*
G02*
X172540700Y-40868600I-700000J0D01*
G01*
X172540700Y-40868600D02*
G75*
G02*
X173940700Y-40868600I700000J0D01*
G01*
X175183800Y-35356800D02*
X175818800Y-35356800D01*
X175818800Y-35356800D02*
X175818800Y-34721800D01*
X177026800Y-38658800D02*
G75*
G02*
X175626800Y-38658800I-700000J0D01*
G01*
X175626800Y-38658800D02*
G75*
G02*
X177026800Y-38658800I700000J0D01*
G01*
X175998100Y-40868600D02*
G75*
G02*
X174598100Y-40868600I-700000J0D01*
G01*
X174598100Y-40868600D02*
G75*
G02*
X175998100Y-40868600I700000J0D01*
G01*
X158840400Y-40284400D02*
G75*
G02*
X157440400Y-40284400I-700000J0D01*
G01*
X157440400Y-40284400D02*
G75*
G02*
X158840400Y-40284400I700000J0D01*
G01*
X172912000Y-38658800D02*
G75*
G02*
X171512000Y-38658800I-700000J0D01*
G01*
X171512000Y-38658800D02*
G75*
G02*
X172912000Y-38658800I700000J0D01*
G01*
X174969400Y-38658800D02*
G75*
G02*
X173569400Y-38658800I-700000J0D01*
G01*
X173569400Y-38658800D02*
G75*
G02*
X174969400Y-38658800I700000J0D01*
G01*
X160859700Y-40284400D02*
G75*
G02*
X159459700Y-40284400I-700000J0D01*
G01*
X159459700Y-40284400D02*
G75*
G02*
X160859700Y-40284400I700000J0D01*
G01*
X162879000Y-40284400D02*
G75*
G02*
X161479000Y-40284400I-700000J0D01*
G01*
X161479000Y-40284400D02*
G75*
G02*
X162879000Y-40284400I700000J0D01*
G01*
%LPC*%
D15*
X172282000Y-28800000D03*
X172282000Y-23020000D03*
D16*
X171782000Y-30230000D03*
D17*
X175962000Y-30230000D03*
D16*
X171782000Y-21590000D03*
D17*
X175962000Y-21590000D03*
D18*
X173240700Y-40868600D03*
D19*
X176453800Y-34086800D03*
X171373800Y-35102800D03*
X171373800Y-33070800D03*
D20*
X175183800Y-34721800D03*
X175183800Y-33451800D03*
X173913800Y-34721800D03*
X173913800Y-33451800D03*
X172643800Y-34721800D03*
X172643800Y-33451800D03*
D18*
X176326800Y-38658800D03*
X175298100Y-40868600D03*
X158140400Y-40284400D03*
X172212000Y-38658800D03*
X174269400Y-38658800D03*
X160159700Y-40284400D03*
X162179000Y-40284400D03*
%LPD*%
M02*
