G04 #@! TF.GenerationSoftware,KiCad,Pcbnew,8.0.1*
G04 #@! TF.CreationDate,2024-05-08T20:32:46+02:00*
G04 #@! TF.ProjectId,TGL_Board,54474c5f-426f-4617-9264-2e6b69636164,rev?*
G04 #@! TF.SameCoordinates,Original*
G04 #@! TF.FileFunction,Copper,L2,Bot*
G04 #@! TF.FilePolarity,Positive*
%FSLAX46Y46*%
G04 Gerber Fmt 4.6, Leading zero omitted, Abs format (unit mm)*
G04 Created by KiCad (PCBNEW 8.0.1) date 2024-05-08 20:32:46*
%MOMM*%
%LPD*%
G01*
G04 APERTURE LIST*
%ADD10C,0.150000*%
G04 #@! TA.AperFunction,EtchedComponent*
%ADD11C,0.000000*%
G04 #@! TD*
G04 #@! TA.AperFunction,ComponentPad*
%ADD12O,2.100000X1.000000*%
G04 #@! TD*
G04 #@! TA.AperFunction,ComponentPad*
%ADD13O,1.800000X1.000000*%
G04 #@! TD*
G04 #@! TA.AperFunction,SMDPad,CuDef*
%ADD14C,1.000000*%
G04 #@! TD*
G04 #@! TA.AperFunction,ConnectorPad*
%ADD15C,0.787400*%
G04 #@! TD*
G04 #@! TA.AperFunction,ViaPad*
%ADD16C,0.800000*%
G04 #@! TD*
G04 #@! TA.AperFunction,Conductor*
%ADD17C,0.250000*%
G04 #@! TD*
G04 #@! TA.AperFunction,Conductor*
%ADD18C,0.200000*%
G04 #@! TD*
G04 #@! TA.AperFunction,Conductor*
%ADD19C,0.300000*%
G04 #@! TD*
G04 #@! TA.AperFunction,Conductor*
%ADD20C,0.400000*%
G04 #@! TD*
G04 #@! TA.AperFunction,Conductor*
%ADD21C,0.500000*%
G04 #@! TD*
G04 APERTURE END LIST*
D10*
G36*
X177173944Y-20366816D02*
G01*
X173892643Y-20366816D01*
X173892643Y-19507712D01*
X174009310Y-19507712D01*
X174010505Y-19575220D01*
X174014090Y-19639774D01*
X174020066Y-19701372D01*
X174028432Y-19760015D01*
X174039188Y-19815703D01*
X174052334Y-19868436D01*
X174067871Y-19918213D01*
X174095657Y-19987338D01*
X174128822Y-20049813D01*
X174167365Y-20105640D01*
X174211285Y-20154817D01*
X174260584Y-20197344D01*
X174315261Y-20233223D01*
X174363827Y-20250083D01*
X174366552Y-20250149D01*
X174409893Y-20232197D01*
X174428614Y-20190138D01*
X174407019Y-20142317D01*
X174386812Y-20123460D01*
X174344937Y-20090441D01*
X174319620Y-20070630D01*
X174305039Y-20053191D01*
X174843558Y-20053191D01*
X174843558Y-20184496D01*
X175095910Y-20184496D01*
X175150607Y-20183171D01*
X175207357Y-20180270D01*
X175249783Y-20177572D01*
X175303284Y-20174225D01*
X175357654Y-20171621D01*
X175403143Y-20170648D01*
X175724224Y-20170648D01*
X175773977Y-20177572D01*
X175822960Y-20184496D01*
X175822960Y-20053191D01*
X175770882Y-20053191D01*
X175719086Y-20053191D01*
X175666376Y-20053191D01*
X175606768Y-20053191D01*
X175555166Y-20053191D01*
X175501392Y-20053191D01*
X175448410Y-20053191D01*
X175394895Y-20053191D01*
X175390320Y-20053191D01*
X175335868Y-20053191D01*
X175279655Y-20053191D01*
X175237729Y-20053191D01*
X175184704Y-20053191D01*
X175130639Y-20053191D01*
X175085139Y-20053191D01*
X174843558Y-20053191D01*
X174305039Y-20053191D01*
X174280731Y-20024120D01*
X174247028Y-19971398D01*
X174219096Y-19913680D01*
X174594540Y-19913680D01*
X174609399Y-19963977D01*
X174620955Y-19977794D01*
X174666251Y-20002317D01*
X174684043Y-20003952D01*
X174733859Y-19989238D01*
X174747644Y-19977794D01*
X174771927Y-19931920D01*
X174773546Y-19913680D01*
X175880918Y-19913680D01*
X175895777Y-19963977D01*
X175907333Y-19977794D01*
X175952630Y-20002317D01*
X175970421Y-20003952D01*
X176020238Y-19989238D01*
X176034022Y-19977794D01*
X176058305Y-19931920D01*
X176059924Y-19913680D01*
X176045354Y-19863960D01*
X176034022Y-19850079D01*
X175988437Y-19825075D01*
X175970421Y-19823408D01*
X175921086Y-19838410D01*
X175907333Y-19850079D01*
X175882569Y-19895760D01*
X175880918Y-19913680D01*
X174773546Y-19913680D01*
X174758976Y-19863960D01*
X174747644Y-19850079D01*
X174702059Y-19825075D01*
X174684043Y-19823408D01*
X174634707Y-19838410D01*
X174620955Y-19850079D01*
X174596191Y-19895760D01*
X174594540Y-19913680D01*
X174219096Y-19913680D01*
X174218509Y-19912466D01*
X174200523Y-19864190D01*
X174185453Y-19812421D01*
X174173301Y-19757158D01*
X174164064Y-19698402D01*
X174157745Y-19636152D01*
X174154342Y-19570408D01*
X174153694Y-19524638D01*
X174155092Y-19470313D01*
X174159284Y-19415628D01*
X174166271Y-19360583D01*
X174176054Y-19305176D01*
X174188631Y-19249409D01*
X174193445Y-19230740D01*
X174208678Y-19179060D01*
X174229090Y-19122151D01*
X174251828Y-19070814D01*
X174276893Y-19025049D01*
X174309075Y-18978698D01*
X174318851Y-18966848D01*
X174355907Y-18928972D01*
X174384504Y-18899400D01*
X174416533Y-18858607D01*
X174429127Y-18824772D01*
X176637461Y-18824772D01*
X176660513Y-18873693D01*
X176682084Y-18899400D01*
X176719347Y-18937403D01*
X176747993Y-18966848D01*
X176781342Y-19011032D01*
X176811378Y-19062799D01*
X176834486Y-19113208D01*
X176855160Y-19169188D01*
X176870528Y-19220095D01*
X176873399Y-19230740D01*
X176886908Y-19286627D01*
X176897622Y-19342154D01*
X176905541Y-19397320D01*
X176910665Y-19452125D01*
X176912994Y-19506570D01*
X176913150Y-19524638D01*
X176911691Y-19592711D01*
X176907316Y-19657290D01*
X176900025Y-19718376D01*
X176889816Y-19775967D01*
X176876691Y-19830066D01*
X176860650Y-19880670D01*
X176834724Y-19942708D01*
X176803612Y-19998535D01*
X176767316Y-20048151D01*
X176747223Y-20070630D01*
X176705349Y-20103649D01*
X176680032Y-20123460D01*
X176645129Y-20163174D01*
X176638230Y-20190138D01*
X176656951Y-20232197D01*
X176700292Y-20250149D01*
X176750213Y-20234264D01*
X176752096Y-20233223D01*
X176806635Y-20197344D01*
X176855810Y-20154817D01*
X176899620Y-20105640D01*
X176938066Y-20049813D01*
X176971147Y-19987338D01*
X176998864Y-19918213D01*
X177014361Y-19868436D01*
X177027475Y-19815703D01*
X177038204Y-19760015D01*
X177046548Y-19701372D01*
X177052509Y-19639774D01*
X177056085Y-19575220D01*
X177057277Y-19507712D01*
X177055355Y-19445550D01*
X177049589Y-19383126D01*
X177039978Y-19320438D01*
X177029521Y-19270099D01*
X177016605Y-19219591D01*
X177001227Y-19168915D01*
X176983390Y-19118071D01*
X176978546Y-19105334D01*
X176955697Y-19050669D01*
X176931134Y-18999899D01*
X176904855Y-18953023D01*
X176876861Y-18910043D01*
X176839458Y-18861795D01*
X176799374Y-18819633D01*
X176756611Y-18783556D01*
X176747736Y-18777071D01*
X176702344Y-18756555D01*
X176656951Y-18777584D01*
X176637461Y-18824772D01*
X174429127Y-18824772D01*
X174410149Y-18777584D01*
X174365013Y-18756555D01*
X174318851Y-18777071D01*
X174275552Y-18811931D01*
X174234932Y-18852876D01*
X174196992Y-18899907D01*
X174161732Y-18953023D01*
X174135454Y-18999899D01*
X174110890Y-19050669D01*
X174088042Y-19105334D01*
X174069589Y-19156220D01*
X174053596Y-19206938D01*
X174040064Y-19257488D01*
X174028993Y-19307869D01*
X174018613Y-19370609D01*
X174012078Y-19433086D01*
X174009387Y-19495300D01*
X174009310Y-19507712D01*
X173892643Y-19507712D01*
X173892643Y-18639888D01*
X177173944Y-18639888D01*
X177173944Y-20366816D01*
G37*
D11*
G04 #@! TA.AperFunction,EtchedComponent*
G36*
X176969216Y-44780502D02*
G01*
X176989905Y-44799661D01*
X177006660Y-44815021D01*
X177018293Y-44825476D01*
X177049926Y-44853310D01*
X177059561Y-44844700D01*
X177062325Y-44842237D01*
X177071456Y-44834115D01*
X177085912Y-44821263D01*
X177104976Y-44804318D01*
X177127933Y-44783916D01*
X177154066Y-44760695D01*
X177182658Y-44735291D01*
X177212993Y-44708340D01*
X177230042Y-44693182D01*
X177260822Y-44665758D01*
X177290129Y-44639575D01*
X177317122Y-44615388D01*
X177340960Y-44593954D01*
X177360799Y-44576030D01*
X177375798Y-44562370D01*
X177385115Y-44553733D01*
X177396780Y-44543014D01*
X177447132Y-44503824D01*
X177501392Y-44472388D01*
X177559416Y-44448793D01*
X177573562Y-44444373D01*
X177589527Y-44440378D01*
X177605432Y-44437995D01*
X177624197Y-44436823D01*
X177648745Y-44436456D01*
X177667903Y-44436529D01*
X177686848Y-44437224D01*
X177701275Y-44438872D01*
X177713552Y-44441771D01*
X177726044Y-44446221D01*
X177756561Y-44460860D01*
X177788370Y-44483705D01*
X177813065Y-44511582D01*
X177830655Y-44544502D01*
X177841146Y-44582477D01*
X177844548Y-44625519D01*
X177843609Y-44648766D01*
X177837725Y-44686767D01*
X177825879Y-44724682D01*
X177807419Y-44764960D01*
X177803388Y-44772574D01*
X177794827Y-44787672D01*
X177785569Y-44802230D01*
X177775024Y-44816873D01*
X177762601Y-44832222D01*
X177747710Y-44848901D01*
X177729761Y-44867533D01*
X177708162Y-44888740D01*
X177682324Y-44913145D01*
X177651656Y-44941372D01*
X177615568Y-44974043D01*
X177573469Y-45011782D01*
X177565018Y-45019333D01*
X177533442Y-45047540D01*
X177504045Y-45073791D01*
X177488681Y-45087503D01*
X177477442Y-45097534D01*
X177454252Y-45118222D01*
X177435092Y-45135301D01*
X177420577Y-45148224D01*
X177411326Y-45156438D01*
X177407955Y-45159395D01*
X177407411Y-45161216D01*
X177406222Y-45169581D01*
X177404964Y-45182295D01*
X177404603Y-45191203D01*
X177406100Y-45216486D01*
X177410476Y-45246838D01*
X177417289Y-45280237D01*
X177426096Y-45314657D01*
X177436454Y-45348075D01*
X177447919Y-45378467D01*
X177450737Y-45385583D01*
X177457401Y-45408808D01*
X177459438Y-45429176D01*
X177456817Y-45445197D01*
X177449508Y-45455380D01*
X177444122Y-45458295D01*
X177426965Y-45461646D01*
X177405268Y-45459873D01*
X177380758Y-45453035D01*
X177366722Y-45448245D01*
X177346119Y-45441957D01*
X177326257Y-45436552D01*
X177318920Y-45434534D01*
X177298681Y-45427913D01*
X177275937Y-45419418D01*
X177254357Y-45410384D01*
X177243709Y-45405618D01*
X177223638Y-45396650D01*
X177205676Y-45388643D01*
X177192744Y-45382900D01*
X177186673Y-45380433D01*
X177174274Y-45377015D01*
X177166799Y-45377464D01*
X177164056Y-45379743D01*
X177155154Y-45387503D01*
X177140575Y-45400353D01*
X177120765Y-45417894D01*
X177096175Y-45439725D01*
X177067251Y-45465445D01*
X177034441Y-45494653D01*
X176998195Y-45526949D01*
X176958959Y-45561932D01*
X176917183Y-45599203D01*
X176873313Y-45638359D01*
X176827800Y-45679001D01*
X176781089Y-45720727D01*
X176733630Y-45763138D01*
X176685871Y-45805832D01*
X176638260Y-45848410D01*
X176591244Y-45890470D01*
X176545273Y-45931612D01*
X176500793Y-45971435D01*
X176458254Y-46009538D01*
X176418104Y-46045522D01*
X176380789Y-46078985D01*
X176346760Y-46109526D01*
X176316463Y-46136746D01*
X176290347Y-46160244D01*
X176268860Y-46179618D01*
X176252450Y-46194469D01*
X176241565Y-46204396D01*
X176236654Y-46208997D01*
X176224689Y-46220481D01*
X176190520Y-46248078D01*
X176152254Y-46272951D01*
X176113169Y-46292876D01*
X176109245Y-46294614D01*
X176094205Y-46301870D01*
X176082814Y-46308292D01*
X176077286Y-46312658D01*
X176076867Y-46313720D01*
X176075590Y-46322286D01*
X176074549Y-46337273D01*
X176073842Y-46356919D01*
X176073568Y-46379463D01*
X176073602Y-46398594D01*
X176073915Y-46417463D01*
X176074696Y-46430150D01*
X176076119Y-46438099D01*
X176078359Y-46442755D01*
X176081594Y-46445564D01*
X176082547Y-46446191D01*
X176084708Y-46448143D01*
X176086607Y-46451286D01*
X176088364Y-46456451D01*
X176090102Y-46464470D01*
X176091941Y-46476174D01*
X176094003Y-46492395D01*
X176096410Y-46513966D01*
X176099282Y-46541716D01*
X176102741Y-46576479D01*
X176106908Y-46619086D01*
X176107006Y-46620098D01*
X176108300Y-46634720D01*
X176109438Y-46650467D01*
X176110431Y-46667970D01*
X176111289Y-46687863D01*
X176112024Y-46710779D01*
X176112646Y-46737349D01*
X176113166Y-46768206D01*
X176113594Y-46803983D01*
X176113942Y-46845313D01*
X176114220Y-46892827D01*
X176114439Y-46947159D01*
X176114610Y-47008940D01*
X176114743Y-47078805D01*
X176114771Y-47096863D01*
X176114860Y-47176740D01*
X176114871Y-47248462D01*
X176114794Y-47312492D01*
X176114617Y-47369291D01*
X176114328Y-47419323D01*
X176113917Y-47463048D01*
X176113372Y-47500929D01*
X176112681Y-47533429D01*
X176111834Y-47561009D01*
X176110818Y-47584132D01*
X176109623Y-47603259D01*
X176108236Y-47618853D01*
X176106647Y-47631376D01*
X176104845Y-47641291D01*
X176102817Y-47649058D01*
X176100553Y-47655140D01*
X176099953Y-47656475D01*
X176089841Y-47672846D01*
X176077040Y-47682559D01*
X176071071Y-47685796D01*
X176065761Y-47690607D01*
X176061502Y-47698225D01*
X176057288Y-47710545D01*
X176052112Y-47729461D01*
X176050535Y-47735810D01*
X176045368Y-47761008D01*
X176040992Y-47788534D01*
X176038220Y-47813474D01*
X176037428Y-47822146D01*
X176034306Y-47845564D01*
X176030140Y-47867720D01*
X176025587Y-47884890D01*
X176018160Y-47904524D01*
X176008182Y-47927454D01*
X175997122Y-47950501D01*
X175986313Y-47970889D01*
X175977088Y-47985842D01*
X175976872Y-47986150D01*
X175971249Y-47995505D01*
X175968920Y-48002016D01*
X175970414Y-48004395D01*
X175976682Y-48013387D01*
X175987553Y-48028653D01*
X176002715Y-48049766D01*
X176021858Y-48076300D01*
X176044668Y-48107828D01*
X176070835Y-48143924D01*
X176100047Y-48184161D01*
X176131992Y-48228112D01*
X176166358Y-48275351D01*
X176202835Y-48325451D01*
X176241110Y-48377986D01*
X176280872Y-48432529D01*
X176321809Y-48488653D01*
X176363610Y-48545932D01*
X176405962Y-48603940D01*
X176448555Y-48662249D01*
X176491076Y-48720433D01*
X176533214Y-48778065D01*
X176574658Y-48834720D01*
X176615095Y-48889969D01*
X176654215Y-48943388D01*
X176691705Y-48994548D01*
X176727254Y-49043024D01*
X176760550Y-49088389D01*
X176791281Y-49130216D01*
X176819137Y-49168079D01*
X176843805Y-49201551D01*
X176864973Y-49230205D01*
X176882331Y-49253616D01*
X176895566Y-49271356D01*
X176904368Y-49282998D01*
X176908423Y-49288117D01*
X176910482Y-49290549D01*
X176919748Y-49305357D01*
X176929286Y-49325737D01*
X176938149Y-49349244D01*
X176945393Y-49373435D01*
X176950073Y-49395866D01*
X176951839Y-49413128D01*
X176950559Y-49453982D01*
X176942452Y-49495805D01*
X176928058Y-49536327D01*
X176907916Y-49573275D01*
X176907253Y-49574264D01*
X176892359Y-49593439D01*
X176873105Y-49614221D01*
X176851807Y-49634407D01*
X176830782Y-49651794D01*
X176812345Y-49664179D01*
X176784997Y-49677566D01*
X176740330Y-49692626D01*
X176693985Y-49700845D01*
X176647879Y-49701935D01*
X176603926Y-49695607D01*
X176584059Y-49689943D01*
X176541667Y-49671403D01*
X176502297Y-49645017D01*
X176466483Y-49611179D01*
X176434759Y-49570286D01*
X176434008Y-49569166D01*
X176426467Y-49558247D01*
X176414437Y-49541177D01*
X176398228Y-49518380D01*
X176378150Y-49490283D01*
X176354511Y-49457313D01*
X176327622Y-49419897D01*
X176297791Y-49378459D01*
X176265327Y-49333428D01*
X176230541Y-49285228D01*
X176193741Y-49234288D01*
X176155237Y-49181032D01*
X176115338Y-49125888D01*
X176074354Y-49069282D01*
X176032593Y-49011640D01*
X175990366Y-48953388D01*
X175947981Y-48894954D01*
X175905749Y-48836763D01*
X175863977Y-48779242D01*
X175822977Y-48722817D01*
X175783056Y-48667915D01*
X175744525Y-48614961D01*
X175707692Y-48564383D01*
X175672868Y-48516607D01*
X175640361Y-48472059D01*
X175610481Y-48431166D01*
X175583537Y-48394354D01*
X175559838Y-48362049D01*
X175539695Y-48334678D01*
X175523416Y-48312667D01*
X175511310Y-48296442D01*
X175503687Y-48286431D01*
X175500857Y-48283059D01*
X175498563Y-48286427D01*
X175492077Y-48296869D01*
X175481682Y-48313938D01*
X175467647Y-48337181D01*
X175450239Y-48366148D01*
X175429726Y-48400385D01*
X175406376Y-48439442D01*
X175380458Y-48482864D01*
X175352239Y-48530201D01*
X175321987Y-48581000D01*
X175289971Y-48634809D01*
X175256458Y-48691176D01*
X175221717Y-48749648D01*
X175186015Y-48809774D01*
X175149620Y-48871102D01*
X175112801Y-48933179D01*
X175075826Y-48995553D01*
X175038962Y-49057772D01*
X175002478Y-49119383D01*
X174966641Y-49179936D01*
X174931721Y-49238977D01*
X174897983Y-49296054D01*
X174865698Y-49350716D01*
X174835132Y-49402510D01*
X174806555Y-49450984D01*
X174780233Y-49495685D01*
X174756434Y-49536162D01*
X174735428Y-49571963D01*
X174717482Y-49602635D01*
X174702863Y-49627727D01*
X174691841Y-49646785D01*
X174684682Y-49659358D01*
X174681656Y-49664994D01*
X174678896Y-49669703D01*
X174670194Y-49680849D01*
X174657748Y-49694636D01*
X174643261Y-49709106D01*
X174609699Y-49736733D01*
X174570510Y-49759725D01*
X174529752Y-49774462D01*
X174519258Y-49776602D01*
X174492241Y-49779202D01*
X174461327Y-49779270D01*
X174429490Y-49776969D01*
X174399698Y-49772465D01*
X174374925Y-49765920D01*
X174351388Y-49756236D01*
X174311524Y-49733337D01*
X174275279Y-49704247D01*
X174244272Y-49670356D01*
X174220122Y-49633054D01*
X174209006Y-49610089D01*
X174197510Y-49578293D01*
X174191256Y-49546199D01*
X174189366Y-49510302D01*
X174189728Y-49493750D01*
X174193889Y-49457528D01*
X174203372Y-49424222D01*
X174219009Y-49390470D01*
X174221985Y-49385216D01*
X174229322Y-49372513D01*
X174240650Y-49353019D01*
X174255744Y-49327119D01*
X174274377Y-49295198D01*
X174296326Y-49257640D01*
X174321365Y-49214830D01*
X174349268Y-49167153D01*
X174379810Y-49114994D01*
X174412766Y-49058738D01*
X174447911Y-48998769D01*
X174485019Y-48935472D01*
X174523865Y-48869233D01*
X174564224Y-48800435D01*
X174605871Y-48729464D01*
X174648580Y-48656704D01*
X174680289Y-48602691D01*
X174727903Y-48521577D01*
X174771402Y-48447457D01*
X174810967Y-48380007D01*
X174846782Y-48318905D01*
X174879030Y-48263830D01*
X174907894Y-48214458D01*
X174933558Y-48170468D01*
X174956204Y-48131537D01*
X174976016Y-48097343D01*
X174993176Y-48067564D01*
X175007868Y-48041877D01*
X175020274Y-48019960D01*
X175030579Y-48001491D01*
X175038964Y-47986148D01*
X175045613Y-47973608D01*
X175050710Y-47963549D01*
X175054436Y-47955649D01*
X175056976Y-47949585D01*
X175058512Y-47945036D01*
X175059228Y-47941678D01*
X175059306Y-47939190D01*
X175058930Y-47937250D01*
X175058282Y-47935534D01*
X175044682Y-47900804D01*
X175031879Y-47859895D01*
X175022331Y-47817205D01*
X175015155Y-47769332D01*
X175015098Y-47768862D01*
X175013464Y-47754755D01*
X175012052Y-47740760D01*
X175010844Y-47726142D01*
X175009824Y-47710164D01*
X175008975Y-47692091D01*
X175008281Y-47671189D01*
X175007723Y-47646720D01*
X175007286Y-47617950D01*
X175006952Y-47584143D01*
X175006705Y-47544563D01*
X175006528Y-47498475D01*
X175006403Y-47445143D01*
X175006315Y-47383831D01*
X175006220Y-47330009D01*
X175006030Y-47263235D01*
X175005762Y-47192680D01*
X175005427Y-47120129D01*
X175005034Y-47047366D01*
X175004593Y-46976178D01*
X175004113Y-46908349D01*
X175003604Y-46845665D01*
X175003076Y-46789911D01*
X175003005Y-46783090D01*
X175002408Y-46727515D01*
X175001847Y-46679984D01*
X175001300Y-46639894D01*
X175000747Y-46606641D01*
X175000167Y-46579624D01*
X174999540Y-46558239D01*
X174998844Y-46541882D01*
X174998060Y-46529952D01*
X174997166Y-46521846D01*
X174996142Y-46516960D01*
X174994968Y-46514691D01*
X174993621Y-46514437D01*
X174993190Y-46514650D01*
X174986907Y-46518203D01*
X174973670Y-46525878D01*
X174953914Y-46537418D01*
X174928074Y-46552566D01*
X174896586Y-46571063D01*
X174859885Y-46592653D01*
X174818406Y-46617078D01*
X174772584Y-46644081D01*
X174722855Y-46673404D01*
X174669655Y-46704790D01*
X174613417Y-46737982D01*
X174554578Y-46772722D01*
X174493573Y-46808753D01*
X174430837Y-46845818D01*
X174366805Y-46883658D01*
X174301913Y-46922017D01*
X174236596Y-46960638D01*
X174171289Y-46999262D01*
X174106428Y-47037633D01*
X174042447Y-47075493D01*
X173979783Y-47112584D01*
X173918869Y-47148650D01*
X173860143Y-47183433D01*
X173804038Y-47216675D01*
X173750990Y-47248119D01*
X173701435Y-47277508D01*
X173655808Y-47304585D01*
X173614543Y-47329091D01*
X173578077Y-47350770D01*
X173546844Y-47369364D01*
X173521280Y-47384616D01*
X173501820Y-47396268D01*
X173488899Y-47404063D01*
X173482954Y-47407744D01*
X173468740Y-47416271D01*
X173449480Y-47426373D01*
X173430544Y-47435103D01*
X173384228Y-47451233D01*
X173337136Y-47460933D01*
X173291420Y-47463818D01*
X173247856Y-47460083D01*
X173207219Y-47449925D01*
X173170284Y-47433539D01*
X173137828Y-47411120D01*
X173110625Y-47382866D01*
X173089453Y-47348971D01*
X173078165Y-47320200D01*
X173070568Y-47281024D01*
X173070744Y-47240718D01*
X173078377Y-47200095D01*
X173093151Y-47159963D01*
X173114750Y-47121133D01*
X173142859Y-47084417D01*
X173177163Y-47050625D01*
X173217344Y-47020568D01*
X173218886Y-47019602D01*
X173227900Y-47014154D01*
X173243942Y-47004575D01*
X173266663Y-46991073D01*
X173295714Y-46973852D01*
X173330748Y-46953119D01*
X173371414Y-46929079D01*
X173417366Y-46901938D01*
X173468253Y-46871901D01*
X173523727Y-46839175D01*
X173583440Y-46803964D01*
X173647043Y-46766475D01*
X173714188Y-46726914D01*
X173784525Y-46685485D01*
X173857706Y-46642396D01*
X173933383Y-46597850D01*
X174011206Y-46552055D01*
X174090828Y-46505216D01*
X174124960Y-46485138D01*
X174203582Y-46438882D01*
X174280139Y-46393828D01*
X174354293Y-46350177D01*
X174425701Y-46308129D01*
X174494024Y-46267886D01*
X174558921Y-46229648D01*
X174620052Y-46193616D01*
X174677075Y-46159991D01*
X174729650Y-46128975D01*
X174777437Y-46100767D01*
X174820095Y-46075569D01*
X174857284Y-46053583D01*
X174888662Y-46035008D01*
X174913889Y-46020045D01*
X174932625Y-46008896D01*
X174944529Y-46001762D01*
X174949260Y-45998843D01*
X174950697Y-45997852D01*
X174963535Y-45990629D01*
X174982085Y-45981818D01*
X175004131Y-45972339D01*
X175027457Y-45963110D01*
X175049849Y-45955053D01*
X175069092Y-45949087D01*
X175079286Y-45946725D01*
X175100727Y-45943111D01*
X175125287Y-45940151D01*
X175149513Y-45938306D01*
X175199432Y-45935839D01*
X175278858Y-45863570D01*
X175295801Y-45848106D01*
X175315867Y-45829653D01*
X175332895Y-45813834D01*
X175346030Y-45801452D01*
X175350348Y-45797258D01*
X175789097Y-45797258D01*
X175789295Y-45798513D01*
X175793343Y-45810047D01*
X175801273Y-45826004D01*
X175811804Y-45844268D01*
X175823655Y-45862719D01*
X175835545Y-45879239D01*
X175846195Y-45891710D01*
X175855361Y-45900622D01*
X175863734Y-45907909D01*
X175868039Y-45910532D01*
X175869371Y-45909742D01*
X175875959Y-45904220D01*
X175886419Y-45894621D01*
X175899200Y-45882347D01*
X175900170Y-45881412D01*
X175908311Y-45873853D01*
X175922453Y-45860956D01*
X175942182Y-45843091D01*
X175967085Y-45820630D01*
X175996746Y-45793946D01*
X176030752Y-45763409D01*
X176068688Y-45729391D01*
X176110140Y-45692263D01*
X176154695Y-45652396D01*
X176201938Y-45610163D01*
X176251454Y-45565935D01*
X176302829Y-45520083D01*
X176355650Y-45472979D01*
X176372715Y-45457765D01*
X176424399Y-45411645D01*
X176474133Y-45367211D01*
X176521537Y-45324803D01*
X176566231Y-45284764D01*
X176607834Y-45247437D01*
X176645966Y-45213163D01*
X176680247Y-45182286D01*
X176710297Y-45155146D01*
X176735736Y-45132087D01*
X176756184Y-45113451D01*
X176771260Y-45099580D01*
X176780584Y-45090817D01*
X176783777Y-45087503D01*
X176783765Y-45087340D01*
X176780275Y-45081917D01*
X176771500Y-45072263D01*
X176758780Y-45059634D01*
X176743456Y-45045289D01*
X176726870Y-45030484D01*
X176710363Y-45016477D01*
X176695276Y-45004526D01*
X176690369Y-45000717D01*
X176674534Y-44987623D01*
X176655265Y-44970881D01*
X176634559Y-44952246D01*
X176614411Y-44933470D01*
X176604677Y-44924238D01*
X176571832Y-44893529D01*
X176540805Y-44865355D01*
X176508684Y-44837102D01*
X176472559Y-44806158D01*
X176466087Y-44800707D01*
X176454291Y-44791206D01*
X176447561Y-44786826D01*
X176444923Y-44787032D01*
X176445402Y-44791290D01*
X176447102Y-44801568D01*
X176448608Y-44819259D01*
X176449829Y-44842515D01*
X176450743Y-44869731D01*
X176451328Y-44899305D01*
X176451563Y-44929633D01*
X176451427Y-44959111D01*
X176450896Y-44986136D01*
X176449951Y-45009104D01*
X176448569Y-45026411D01*
X176437389Y-45098392D01*
X176416541Y-45182954D01*
X176388020Y-45264005D01*
X176352141Y-45341158D01*
X176309221Y-45414028D01*
X176259576Y-45482229D01*
X176203522Y-45545373D01*
X176141376Y-45603076D01*
X176073454Y-45654950D01*
X176000072Y-45700609D01*
X175921547Y-45739667D01*
X175838195Y-45771738D01*
X175835019Y-45772795D01*
X175814630Y-45779804D01*
X175801137Y-45785083D01*
X175793245Y-45789304D01*
X175789662Y-45793138D01*
X175789097Y-45797258D01*
X175350348Y-45797258D01*
X175354415Y-45793308D01*
X175357191Y-45790207D01*
X175354539Y-45789174D01*
X175345007Y-45786072D01*
X175330251Y-45781503D01*
X175312053Y-45776028D01*
X175236083Y-45749579D01*
X175158668Y-45714038D01*
X175085660Y-45671456D01*
X175017439Y-45622283D01*
X174954387Y-45566964D01*
X174896884Y-45505946D01*
X174845310Y-45439678D01*
X174800047Y-45368606D01*
X174761476Y-45293178D01*
X174729977Y-45213840D01*
X174705931Y-45131039D01*
X174689719Y-45045224D01*
X174687718Y-45027668D01*
X174685515Y-44995056D01*
X174684397Y-44957996D01*
X174684330Y-44918673D01*
X174685279Y-44879275D01*
X174687210Y-44841988D01*
X174690088Y-44808998D01*
X174693879Y-44782493D01*
X174695578Y-44773675D01*
X176426460Y-44773675D01*
X176426638Y-44774869D01*
X176431075Y-44778033D01*
X176432651Y-44777691D01*
X176432996Y-44773675D01*
X176432102Y-44772371D01*
X176428382Y-44769318D01*
X176427947Y-44769431D01*
X176426460Y-44773675D01*
X174695578Y-44773675D01*
X174695610Y-44773510D01*
X174711546Y-44705240D01*
X174731754Y-44639177D01*
X174755529Y-44577400D01*
X174782167Y-44521987D01*
X174787353Y-44512174D01*
X174794601Y-44496892D01*
X174797367Y-44487794D01*
X174795908Y-44484175D01*
X174788260Y-44482389D01*
X174770661Y-44479893D01*
X174746459Y-44477570D01*
X174716905Y-44475491D01*
X174683248Y-44473730D01*
X174646738Y-44472359D01*
X174608624Y-44471450D01*
X174570156Y-44471076D01*
X174560098Y-44471059D01*
X174519604Y-44471126D01*
X174485886Y-44471506D01*
X174457357Y-44472301D01*
X174432430Y-44473614D01*
X174409520Y-44475546D01*
X174387040Y-44478199D01*
X174363405Y-44481676D01*
X174337028Y-44486078D01*
X174321029Y-44488851D01*
X174291772Y-44493926D01*
X174262216Y-44499057D01*
X174236805Y-44503472D01*
X174223100Y-44505902D01*
X174198834Y-44510385D01*
X174176076Y-44514787D01*
X174158370Y-44518431D01*
X174148938Y-44520303D01*
X174124108Y-44524333D01*
X174091990Y-44528673D01*
X174053526Y-44533209D01*
X174009658Y-44537824D01*
X173961327Y-44542407D01*
X173943129Y-44544320D01*
X173922000Y-44547564D01*
X173900779Y-44552274D01*
X173876807Y-44559057D01*
X173847425Y-44568523D01*
X173834591Y-44572779D01*
X173811641Y-44580106D01*
X173791513Y-44585920D01*
X173772292Y-44590618D01*
X173752061Y-44594601D01*
X173728906Y-44598265D01*
X173700911Y-44602010D01*
X173666160Y-44606234D01*
X173660369Y-44606908D01*
X173617645Y-44610824D01*
X173582284Y-44611875D01*
X173553479Y-44609962D01*
X173530423Y-44604984D01*
X173512310Y-44596841D01*
X173498331Y-44585433D01*
X173495238Y-44581389D01*
X173490117Y-44566325D01*
X173490892Y-44548761D01*
X173497603Y-44531654D01*
X173502955Y-44524449D01*
X173516967Y-44509776D01*
X173537769Y-44490886D01*
X173565033Y-44468074D01*
X173598428Y-44441633D01*
X173613228Y-44430021D01*
X173631707Y-44414670D01*
X173645091Y-44401896D01*
X173654670Y-44390265D01*
X173661734Y-44378341D01*
X173667574Y-44364689D01*
X173669441Y-44359876D01*
X173681966Y-44334093D01*
X173695899Y-44316304D01*
X173711676Y-44305927D01*
X173712890Y-44305442D01*
X173727770Y-44300296D01*
X173749598Y-44293656D01*
X173776978Y-44285887D01*
X173808515Y-44277353D01*
X173842814Y-44268419D01*
X173878478Y-44259448D01*
X173914113Y-44250806D01*
X173948322Y-44242855D01*
X173979711Y-44235961D01*
X174005675Y-44230434D01*
X174056507Y-44219363D01*
X174100366Y-44209404D01*
X174138357Y-44200286D01*
X174171583Y-44191741D01*
X174201149Y-44183499D01*
X174228159Y-44175290D01*
X174241703Y-44171057D01*
X174270065Y-44162462D01*
X174299733Y-44153742D01*
X174326134Y-44146252D01*
X174337413Y-44143120D01*
X174381462Y-44130532D01*
X174418265Y-44119338D01*
X174448865Y-44109196D01*
X174474300Y-44099766D01*
X174495612Y-44090705D01*
X174499178Y-44089073D01*
X174519813Y-44079888D01*
X174537480Y-44072747D01*
X174554488Y-44066922D01*
X174573143Y-44061687D01*
X174595753Y-44056316D01*
X174624625Y-44050083D01*
X174649256Y-44044686D01*
X174684462Y-44035938D01*
X174713130Y-44027207D01*
X174736607Y-44018065D01*
X174756240Y-44008082D01*
X174761805Y-44004646D01*
X174773671Y-43994071D01*
X174778469Y-43981668D01*
X174777370Y-43965059D01*
X174777208Y-43964242D01*
X174773580Y-43954405D01*
X174766289Y-43945128D01*
X174754213Y-43935502D01*
X174736228Y-43924620D01*
X174711210Y-43911572D01*
X174708644Y-43910265D01*
X174687578Y-43898085D01*
X174665937Y-43883540D01*
X174648026Y-43869497D01*
X174647065Y-43868657D01*
X174629664Y-43854428D01*
X174610704Y-43840338D01*
X174594122Y-43829319D01*
X174564786Y-43811207D01*
X174528444Y-43787942D01*
X174489674Y-43762398D01*
X174449707Y-43735432D01*
X174409771Y-43707903D01*
X174371098Y-43680668D01*
X174334917Y-43654585D01*
X174302457Y-43630513D01*
X174274950Y-43609309D01*
X174253625Y-43591830D01*
X174247337Y-43586444D01*
X174232825Y-43574079D01*
X174213784Y-43557904D01*
X174191516Y-43539025D01*
X174167323Y-43518546D01*
X174142509Y-43497572D01*
X174133167Y-43489660D01*
X174082224Y-43445588D01*
X174038411Y-43405950D01*
X174001524Y-43370556D01*
X173971362Y-43339212D01*
X173947723Y-43311726D01*
X173940233Y-43302485D01*
X173925962Y-43285240D01*
X173908615Y-43264560D01*
X173889729Y-43242276D01*
X173870842Y-43220218D01*
X173862059Y-43210008D01*
X173845899Y-43191107D01*
X173831580Y-43174121D01*
X173818087Y-43157785D01*
X173804404Y-43140833D01*
X173789514Y-43121999D01*
X173772404Y-43100020D01*
X173752056Y-43073629D01*
X173727457Y-43041560D01*
X173706759Y-43014304D01*
X173680410Y-42978538D01*
X173659378Y-42948258D01*
X173643387Y-42922838D01*
X173632165Y-42901653D01*
X173625437Y-42884077D01*
X173622929Y-42869486D01*
X173624368Y-42857254D01*
X173629479Y-42846756D01*
X173637988Y-42837366D01*
X173638597Y-42836829D01*
X173650040Y-42829346D01*
X173663404Y-42825868D01*
X173679760Y-42826554D01*
X173700177Y-42831565D01*
X173725727Y-42841059D01*
X173757478Y-42855197D01*
X173781993Y-42866430D01*
X173812229Y-42879804D01*
X173842389Y-42892730D01*
X173868594Y-42903521D01*
X173881610Y-42908805D01*
X173908056Y-42919854D01*
X173937977Y-42932651D01*
X173968598Y-42946002D01*
X173997141Y-42958716D01*
X174038937Y-42977424D01*
X174093510Y-43001257D01*
X174141127Y-43021262D01*
X174182214Y-43037614D01*
X174217196Y-43050492D01*
X174239649Y-43058628D01*
X174283107Y-43075614D01*
X174332778Y-43096349D01*
X174387816Y-43120458D01*
X174447378Y-43147569D01*
X174510618Y-43177309D01*
X174576692Y-43209305D01*
X174587303Y-43214454D01*
X174618274Y-43228976D01*
X174651584Y-43244010D01*
X174683872Y-43258053D01*
X174711775Y-43269606D01*
X174722279Y-43273854D01*
X174747345Y-43284409D01*
X174771078Y-43294928D01*
X174791207Y-43304390D01*
X174805462Y-43311773D01*
X174811543Y-43315202D01*
X174853152Y-43337495D01*
X174897151Y-43359296D01*
X174940374Y-43379085D01*
X174979658Y-43395346D01*
X174999487Y-43403070D01*
X175018911Y-43410781D01*
X175034611Y-43417162D01*
X175044377Y-43421327D01*
X175054135Y-43425206D01*
X175060606Y-43425173D01*
X175066792Y-43420774D01*
X175068957Y-43418692D01*
X175072196Y-43413404D01*
X175072160Y-43405906D01*
X175069104Y-43393173D01*
X175066777Y-43385297D01*
X175058881Y-43362307D01*
X175048052Y-43333996D01*
X175035013Y-43302065D01*
X175020486Y-43268215D01*
X175005194Y-43234148D01*
X174989859Y-43201564D01*
X174975205Y-43172166D01*
X174966443Y-43155057D01*
X174953999Y-43130289D01*
X174942697Y-43107271D01*
X174933508Y-43087991D01*
X174927405Y-43074436D01*
X174925601Y-43070248D01*
X174919270Y-43055980D01*
X174910077Y-43035598D01*
X174898579Y-43010324D01*
X174885334Y-42981380D01*
X174870898Y-42949988D01*
X174855828Y-42917370D01*
X174851420Y-42907851D01*
X174835298Y-42873008D01*
X174819175Y-42838127D01*
X174803783Y-42804797D01*
X174789857Y-42774605D01*
X174778130Y-42749142D01*
X174769336Y-42729997D01*
X174764490Y-42719522D01*
X174751415Y-42691875D01*
X174736481Y-42660933D01*
X174721175Y-42629768D01*
X174706989Y-42601450D01*
X174701208Y-42589897D01*
X174686488Y-42559321D01*
X174671470Y-42526754D01*
X174657624Y-42495420D01*
X174646420Y-42468546D01*
X174644315Y-42463309D01*
X174632963Y-42436223D01*
X174620602Y-42408268D01*
X174608589Y-42382452D01*
X174598281Y-42361786D01*
X174592824Y-42351095D01*
X174580603Y-42325292D01*
X174568850Y-42298357D01*
X174559500Y-42274636D01*
X174554741Y-42261783D01*
X174544720Y-42235676D01*
X174533817Y-42208171D01*
X174523671Y-42183443D01*
X174511999Y-42153133D01*
X174503602Y-42123014D01*
X174500761Y-42096977D01*
X174503495Y-42073593D01*
X174511824Y-42051432D01*
X174525766Y-42029063D01*
X174538659Y-42016186D01*
X174556867Y-42006081D01*
X174575699Y-42002291D01*
X174579088Y-42002413D01*
X174584637Y-42003306D01*
X174590627Y-42005421D01*
X174597462Y-42009170D01*
X174605546Y-42014967D01*
X174615283Y-42023224D01*
X174627079Y-42034356D01*
X174641337Y-42048776D01*
X174658463Y-42066896D01*
X174678860Y-42089131D01*
X174702934Y-42115892D01*
X174731088Y-42147594D01*
X174763728Y-42184650D01*
X174801257Y-42227473D01*
X174844081Y-42276476D01*
X174846851Y-42279664D01*
X174873497Y-42311615D01*
X174903505Y-42349615D01*
X174935907Y-42392364D01*
X174969733Y-42438563D01*
X175004013Y-42486912D01*
X175037777Y-42536110D01*
X175054407Y-42560591D01*
X175075753Y-42591705D01*
X175099547Y-42626145D01*
X175124443Y-42661969D01*
X175149095Y-42697234D01*
X175172156Y-42729997D01*
X175183399Y-42745977D01*
X175206541Y-42779227D01*
X175232119Y-42816358D01*
X175259392Y-42856269D01*
X175287618Y-42897854D01*
X175316056Y-42940011D01*
X175343965Y-42981636D01*
X175370604Y-43021624D01*
X175395231Y-43058873D01*
X175417105Y-43092278D01*
X175435486Y-43120737D01*
X175449631Y-43143144D01*
X175453137Y-43148733D01*
X175466576Y-43169264D01*
X175480645Y-43189682D01*
X175492816Y-43206291D01*
X175504676Y-43222173D01*
X175518415Y-43241458D01*
X175529851Y-43258380D01*
X175543563Y-43276886D01*
X175555807Y-43287784D01*
X175566134Y-43290614D01*
X175574290Y-43285225D01*
X175575301Y-43283388D01*
X175578900Y-43272606D01*
X175583638Y-43253737D01*
X175589440Y-43227172D01*
X175596230Y-43193306D01*
X175603933Y-43152535D01*
X175612475Y-43105250D01*
X175621779Y-43051848D01*
X175631771Y-42992721D01*
X175642376Y-42928264D01*
X175645822Y-42907566D01*
X175651574Y-42874604D01*
X175657615Y-42841522D01*
X175663411Y-42811232D01*
X175668426Y-42786645D01*
X175673074Y-42763404D01*
X175678868Y-42730856D01*
X175684096Y-42697907D01*
X175688019Y-42668992D01*
X175691079Y-42646154D01*
X175696090Y-42614478D01*
X175701784Y-42582894D01*
X175707426Y-42555696D01*
X175712450Y-42533111D01*
X175717032Y-42511534D01*
X175720631Y-42493555D01*
X175722744Y-42481618D01*
X175724056Y-42473769D01*
X175727596Y-42455292D01*
X175732565Y-42431120D01*
X175738580Y-42402966D01*
X175745259Y-42372541D01*
X175752220Y-42341559D01*
X175759081Y-42311732D01*
X175765459Y-42284774D01*
X175770973Y-42262396D01*
X175775241Y-42246312D01*
X175776980Y-42240049D01*
X175783100Y-42216356D01*
X175789343Y-42190171D01*
X175794596Y-42166107D01*
X175797016Y-42154634D01*
X175800487Y-42140355D01*
X175804560Y-42127334D01*
X175809902Y-42114129D01*
X175817181Y-42099297D01*
X175827066Y-42081396D01*
X175840223Y-42058982D01*
X175857321Y-42030615D01*
X175857435Y-42030425D01*
X175870323Y-42009663D01*
X175880325Y-41995031D01*
X175888711Y-41985012D01*
X175896746Y-41978092D01*
X175905698Y-41972754D01*
X175918079Y-41967412D01*
X175933221Y-41965530D01*
X175945993Y-41971261D01*
X175958133Y-41985014D01*
X175966757Y-41999129D01*
X175978227Y-42027692D01*
X175984224Y-42060560D01*
X175984876Y-42098658D01*
X175980313Y-42142910D01*
X175977650Y-42159271D01*
X175972159Y-42188782D01*
X175965346Y-42222045D01*
X175957679Y-42257005D01*
X175949629Y-42291605D01*
X175941665Y-42323789D01*
X175934256Y-42351499D01*
X175927871Y-42372680D01*
X175923591Y-42385941D01*
X175908309Y-42439224D01*
X175893892Y-42498612D01*
X175880771Y-42562061D01*
X175869379Y-42627524D01*
X175860148Y-42692958D01*
X175858894Y-42703040D01*
X175854824Y-42735171D01*
X175850448Y-42769020D01*
X175846214Y-42801129D01*
X175842574Y-42828041D01*
X175841539Y-42835648D01*
X175834100Y-42897503D01*
X175828434Y-42958499D01*
X175824620Y-43017121D01*
X175822736Y-43071851D01*
X175822862Y-43121173D01*
X175825077Y-43163570D01*
X175825545Y-43169141D01*
X175827311Y-43192445D01*
X175828619Y-43213400D01*
X175829348Y-43229897D01*
X175829381Y-43239827D01*
X175828709Y-43252211D01*
X175828261Y-43270170D01*
X175829064Y-43282161D01*
X175831301Y-43289949D01*
X175835155Y-43295303D01*
X175838143Y-43297949D01*
X175842555Y-43299604D01*
X175848988Y-43298514D01*
X175859348Y-43294259D01*
X175875541Y-43286420D01*
X175877705Y-43285340D01*
X175895054Y-43276311D01*
X175916916Y-43264480D01*
X175940710Y-43251257D01*
X175963858Y-43238056D01*
X175981094Y-43228308D01*
X176011324Y-43211878D01*
X176046783Y-43193189D01*
X176085883Y-43173040D01*
X176127039Y-43152232D01*
X176168663Y-43131565D01*
X176209169Y-43111838D01*
X176246972Y-43093851D01*
X176280483Y-43078405D01*
X176281410Y-43077986D01*
X176309480Y-43064851D01*
X176340795Y-43049493D01*
X176371598Y-43033791D01*
X176398136Y-43019619D01*
X176424840Y-43004912D01*
X176462478Y-42984349D01*
X176494064Y-42967351D01*
X176520530Y-42953442D01*
X176542808Y-42942142D01*
X176561827Y-42932974D01*
X176578519Y-42925461D01*
X176593814Y-42919122D01*
X176600055Y-42916616D01*
X176621367Y-42907674D01*
X176641949Y-42898553D01*
X176658088Y-42890882D01*
X176692142Y-42874553D01*
X176732809Y-42856543D01*
X176776520Y-42838413D01*
X176820559Y-42821287D01*
X176862212Y-42806289D01*
X176869240Y-42803845D01*
X176898532Y-42793072D01*
X176929264Y-42781001D01*
X176958185Y-42768937D01*
X176982044Y-42758185D01*
X177058506Y-42724362D01*
X177130965Y-42697822D01*
X177199041Y-42678740D01*
X177262706Y-42667125D01*
X177321931Y-42662984D01*
X177334417Y-42662924D01*
X177350487Y-42663282D01*
X177362916Y-42664800D01*
X177374566Y-42668152D01*
X177388302Y-42674015D01*
X177406986Y-42683065D01*
X177412853Y-42685982D01*
X177437622Y-42699436D01*
X177455103Y-42711490D01*
X177466193Y-42723032D01*
X177471788Y-42734946D01*
X177472782Y-42748117D01*
X177470356Y-42755253D01*
X177461091Y-42768903D01*
X177445168Y-42787105D01*
X177422847Y-42809584D01*
X177394391Y-42836069D01*
X177360058Y-42866285D01*
X177352658Y-42872658D01*
X177330602Y-42891728D01*
X177310265Y-42909416D01*
X177292872Y-42924652D01*
X177279648Y-42936363D01*
X177271820Y-42943477D01*
X177268328Y-42946716D01*
X177255002Y-42958627D01*
X177237650Y-42973731D01*
X177218261Y-42990331D01*
X177198828Y-43006730D01*
X177181341Y-43021231D01*
X177167790Y-43032138D01*
X177162311Y-43036328D01*
X177148092Y-43046866D01*
X177128546Y-43061101D01*
X177104630Y-43078356D01*
X177077296Y-43097956D01*
X177047498Y-43119225D01*
X177016192Y-43141488D01*
X176984329Y-43164069D01*
X176952866Y-43186292D01*
X176922754Y-43207482D01*
X176894950Y-43226963D01*
X176870405Y-43244060D01*
X176850076Y-43258096D01*
X176834914Y-43268397D01*
X176825875Y-43274287D01*
X176821187Y-43277147D01*
X176809478Y-43284316D01*
X176800462Y-43290093D01*
X176792614Y-43295685D01*
X176784407Y-43302299D01*
X176774316Y-43311142D01*
X176760816Y-43323421D01*
X176742381Y-43340342D01*
X176725412Y-43355678D01*
X176701351Y-43376899D01*
X176677031Y-43397878D01*
X176655749Y-43415745D01*
X176653258Y-43417799D01*
X176632643Y-43435073D01*
X176608726Y-43455479D01*
X176584276Y-43476638D01*
X176562062Y-43496173D01*
X176558710Y-43499137D01*
X176534770Y-43519683D01*
X176507386Y-43542351D01*
X176479683Y-43564588D01*
X176454784Y-43583843D01*
X176452442Y-43585611D01*
X176425280Y-43606839D01*
X176401722Y-43626572D01*
X176382485Y-43644124D01*
X176368285Y-43658807D01*
X176359839Y-43669934D01*
X176357863Y-43676817D01*
X176362851Y-43680308D01*
X176376343Y-43682550D01*
X176398082Y-43683183D01*
X176427902Y-43682206D01*
X176465638Y-43679622D01*
X176511125Y-43675432D01*
X176520853Y-43674442D01*
X176555892Y-43670750D01*
X176583927Y-43667531D01*
X176606308Y-43664595D01*
X176624387Y-43661754D01*
X176639518Y-43658819D01*
X176653051Y-43655600D01*
X176654967Y-43655115D01*
X176677861Y-43650482D01*
X176706566Y-43646231D01*
X176738448Y-43642664D01*
X176770873Y-43640077D01*
X176801207Y-43638772D01*
X176801396Y-43638768D01*
X176827526Y-43637612D01*
X176858371Y-43635287D01*
X176890094Y-43632128D01*
X176918860Y-43628471D01*
X176936095Y-43626169D01*
X176966425Y-43622736D01*
X177000366Y-43619445D01*
X177034902Y-43616583D01*
X177067016Y-43614435D01*
X177113818Y-43611517D01*
X177186743Y-43606117D01*
X177266682Y-43599300D01*
X177352720Y-43591147D01*
X177443942Y-43581735D01*
X177445321Y-43581588D01*
X177483584Y-43577887D01*
X177526925Y-43574294D01*
X177571912Y-43571056D01*
X177615115Y-43568421D01*
X177653103Y-43566637D01*
X177668478Y-43566038D01*
X177720941Y-43563492D01*
X177767418Y-43560276D01*
X177810052Y-43556158D01*
X177850988Y-43550907D01*
X177892370Y-43544292D01*
X177936342Y-43536080D01*
X177942465Y-43534884D01*
X177988674Y-43526932D01*
X178026898Y-43522458D01*
X178057144Y-43521461D01*
X178079417Y-43523941D01*
X178093725Y-43529898D01*
X178095982Y-43531670D01*
X178107004Y-43545572D01*
X178109832Y-43562305D01*
X178104498Y-43582023D01*
X178099352Y-43591807D01*
X178090692Y-43602536D01*
X178078242Y-43612476D01*
X178060500Y-43622778D01*
X178035963Y-43634595D01*
X178030712Y-43637036D01*
X178015356Y-43644755D01*
X178003597Y-43651518D01*
X177997644Y-43656087D01*
X177993307Y-43660307D01*
X177981199Y-43668981D01*
X177963748Y-43679718D01*
X177942529Y-43691642D01*
X177919117Y-43703881D01*
X177895088Y-43715559D01*
X177872015Y-43725803D01*
X177859395Y-43731092D01*
X177820314Y-43747539D01*
X177773828Y-43767188D01*
X177720371Y-43789856D01*
X177660376Y-43815358D01*
X177594276Y-43843511D01*
X177586067Y-43847001D01*
X177558171Y-43858736D01*
X177531613Y-43869730D01*
X177508059Y-43879303D01*
X177489174Y-43886777D01*
X177476623Y-43891472D01*
X177471229Y-43893394D01*
X177454185Y-43899706D01*
X177432290Y-43908030D01*
X177407792Y-43917508D01*
X177382936Y-43927280D01*
X177371316Y-43931864D01*
X177347075Y-43941279D01*
X177324651Y-43949806D01*
X177306132Y-43956654D01*
X177293607Y-43961036D01*
X177286003Y-43963616D01*
X177268928Y-43969724D01*
X177247361Y-43977680D01*
X177222884Y-43986876D01*
X177197083Y-43996705D01*
X177171539Y-44006557D01*
X177147837Y-44015824D01*
X177127560Y-44023899D01*
X177112292Y-44030171D01*
X177103616Y-44034034D01*
X177103296Y-44034192D01*
X177093250Y-44038260D01*
X177076232Y-44044222D01*
X177053598Y-44051671D01*
X177026704Y-44060201D01*
X176996904Y-44069408D01*
X176965555Y-44078885D01*
X176934011Y-44088226D01*
X176903629Y-44097026D01*
X176875762Y-44104878D01*
X176851768Y-44111378D01*
X176833001Y-44116119D01*
X176820816Y-44118696D01*
X176819834Y-44118870D01*
X176809616Y-44121216D01*
X176793406Y-44125414D01*
X176773224Y-44130927D01*
X176751096Y-44137217D01*
X176734356Y-44142042D01*
X176699401Y-44151953D01*
X176666348Y-44161115D01*
X176636489Y-44169181D01*
X176611113Y-44175806D01*
X176591511Y-44180644D01*
X176578973Y-44183349D01*
X176571511Y-44185028D01*
X176556366Y-44189084D01*
X176537260Y-44194633D01*
X176516626Y-44200985D01*
X176500218Y-44206028D01*
X176475581Y-44212444D01*
X176456753Y-44214982D01*
X176442317Y-44213374D01*
X176430857Y-44207350D01*
X176420957Y-44196642D01*
X176411199Y-44180982D01*
X176408863Y-44176865D01*
X176400760Y-44164570D01*
X176393534Y-44158104D01*
X176385318Y-44155639D01*
X176385246Y-44155630D01*
X176370210Y-44157210D01*
X176356843Y-44164198D01*
X176346858Y-44174782D01*
X176341967Y-44187149D01*
X176343882Y-44199489D01*
X176348182Y-44205561D01*
X176358289Y-44217073D01*
X176372692Y-44232191D01*
X176390179Y-44249751D01*
X176409534Y-44268591D01*
X176429543Y-44287545D01*
X176448991Y-44305451D01*
X176466663Y-44321144D01*
X176481345Y-44333461D01*
X176491823Y-44341238D01*
X176510985Y-44354220D01*
X176548846Y-44383139D01*
X176588745Y-44417356D01*
X176629129Y-44455442D01*
X176668444Y-44495968D01*
X176705139Y-44537506D01*
X176712697Y-44545823D01*
X176727801Y-44560705D01*
X176745703Y-44576980D01*
X176763952Y-44592365D01*
X176777259Y-44603523D01*
X176795935Y-44619862D01*
X176818344Y-44639938D01*
X176843191Y-44662580D01*
X176869182Y-44686618D01*
X176895023Y-44710881D01*
X176895435Y-44711271D01*
X176920792Y-44735201D01*
X176945782Y-44758646D01*
X176961896Y-44773675D01*
X176969216Y-44780502D01*
G37*
G04 #@! TD.AperFunction*
D12*
X171782000Y-30230000D03*
D13*
X175962000Y-30230000D03*
D12*
X171782000Y-21590000D03*
D13*
X175962000Y-21590000D03*
D14*
X173240700Y-40868600D03*
D15*
X175183800Y-34721800D03*
X175183800Y-33451800D03*
X173913800Y-34721800D03*
X173913800Y-33451800D03*
X172643800Y-34721800D03*
X172643800Y-33451800D03*
D14*
X176326800Y-38658800D03*
X175298100Y-40868600D03*
X158140400Y-40284400D03*
X172212000Y-38658800D03*
X174269400Y-38658800D03*
X160159700Y-40284400D03*
X162179000Y-40284400D03*
D16*
X142556400Y-28831656D03*
X172718400Y-44729400D03*
X132920550Y-35184312D03*
X107224950Y-38360640D03*
X123284700Y-22462900D03*
X100584000Y-35179000D03*
X104013000Y-28831656D03*
X139344450Y-41536968D03*
X110436900Y-22462900D03*
X159654300Y-20345400D03*
X120072750Y-38360640D03*
X148980300Y-32007984D03*
X148980300Y-22462900D03*
X145768350Y-22462900D03*
X107224950Y-32007984D03*
X132920550Y-41536968D03*
X126496650Y-44713300D03*
X139344450Y-22462900D03*
X107224950Y-28831656D03*
X161544000Y-43662600D03*
X163296600Y-33197800D03*
X154914600Y-41427400D03*
X139344450Y-35184312D03*
X166903400Y-27152600D03*
X129708600Y-22462900D03*
X104013000Y-25655328D03*
X120072750Y-41536968D03*
X120072750Y-44713300D03*
X167690800Y-23291800D03*
X116860800Y-22462900D03*
X113648850Y-28831656D03*
X139344450Y-44713300D03*
X132920550Y-44713300D03*
X139344450Y-25655328D03*
X132920550Y-32007984D03*
X126496650Y-28831656D03*
X120072750Y-32007984D03*
X110436900Y-35184312D03*
X163348700Y-40309800D03*
X126496650Y-41536968D03*
X107224950Y-22462900D03*
X148980300Y-35184312D03*
X116860800Y-44713300D03*
X126496650Y-32007984D03*
X113648850Y-22462900D03*
X123284700Y-35184312D03*
X129708600Y-44713300D03*
X142556400Y-41536968D03*
X142556400Y-35184312D03*
X145768350Y-25655328D03*
X120072750Y-22462900D03*
X104013000Y-35184312D03*
X145768350Y-32007984D03*
X157303200Y-27267000D03*
X142556400Y-44713300D03*
X154914600Y-38252400D03*
X113648850Y-32007984D03*
X116860800Y-25655328D03*
X104013000Y-41536968D03*
X157022800Y-19024600D03*
X110436900Y-28831656D03*
X145768350Y-28831656D03*
X160959800Y-30886400D03*
X126496650Y-35184312D03*
X160959800Y-28549600D03*
X142556400Y-38360640D03*
X100584000Y-44704000D03*
X136132500Y-25655328D03*
X132920550Y-28831656D03*
X132920550Y-38360640D03*
X165633400Y-33197800D03*
X165633400Y-28549600D03*
X154914600Y-47498000D03*
X113648850Y-38360640D03*
X104013000Y-44713300D03*
X116860800Y-32007984D03*
X148980300Y-44713300D03*
X123284700Y-32007984D03*
X113648850Y-35184312D03*
X145768350Y-38360640D03*
X107224950Y-41536968D03*
X116860800Y-35184312D03*
X136132500Y-22462900D03*
X136132500Y-44713300D03*
X129708600Y-25655328D03*
X107224950Y-25655328D03*
X107224950Y-35184312D03*
X100584000Y-38354000D03*
X139344450Y-38360640D03*
X160959800Y-33197800D03*
X154914600Y-25527000D03*
X126496650Y-38360640D03*
X100584000Y-28829000D03*
X104013000Y-32007984D03*
X113648850Y-44713300D03*
X123284700Y-41536968D03*
X169265600Y-38531800D03*
X142556400Y-22462900D03*
X132920550Y-25655328D03*
X132920550Y-22462900D03*
X123284700Y-25655328D03*
X100584000Y-32004000D03*
X116860800Y-38360640D03*
X120072750Y-35184312D03*
X110436900Y-25655328D03*
X169082600Y-35204400D03*
X148980300Y-25655328D03*
X123284700Y-38360640D03*
X123284700Y-28831656D03*
X142556400Y-32007984D03*
X139344450Y-32007984D03*
X104013000Y-22462900D03*
X136132500Y-28831656D03*
X116860800Y-41536968D03*
X157403800Y-36626800D03*
X129708600Y-38360640D03*
X116860800Y-28831656D03*
X154914600Y-35052000D03*
X159654300Y-21996400D03*
X136132500Y-38360640D03*
X100584000Y-25654000D03*
X110436900Y-32007984D03*
X142556400Y-25655328D03*
X148980300Y-41536968D03*
X126496650Y-22462900D03*
X123284700Y-44713300D03*
X104013000Y-38360640D03*
X139344450Y-28831656D03*
X145768350Y-35184312D03*
X120072750Y-28831656D03*
X110436900Y-44713300D03*
X110436900Y-41536968D03*
X136132500Y-35184312D03*
X148980300Y-28831656D03*
X154914600Y-44577000D03*
X136132500Y-32007984D03*
X155168600Y-19024600D03*
X129708600Y-41536968D03*
X107224950Y-44713300D03*
X145768350Y-44713300D03*
X129708600Y-35184312D03*
X100584000Y-41529000D03*
X113648850Y-25655328D03*
X110436900Y-38360640D03*
X165252400Y-21463000D03*
X148980300Y-38360640D03*
X129708600Y-28831656D03*
X154914600Y-31902400D03*
X153365200Y-19024600D03*
X154914600Y-28727400D03*
X126496650Y-25655328D03*
X129708600Y-32007984D03*
X166141400Y-26314400D03*
X171069000Y-39598600D03*
X100584000Y-22479000D03*
X136132500Y-41536968D03*
X113648850Y-41536968D03*
X145768350Y-41536968D03*
X161542400Y-45770800D03*
X165633400Y-30886400D03*
X120072750Y-25655328D03*
X164897125Y-36804600D03*
X162179000Y-23914000D03*
X168122600Y-30073600D03*
X163865505Y-25789916D03*
X169968400Y-39886400D03*
X166768353Y-39886047D03*
X175971200Y-35509200D03*
X163860600Y-36804600D03*
X163617521Y-23143044D03*
X158800800Y-41986200D03*
X158445200Y-27317800D03*
X170042000Y-28310000D03*
X153346200Y-40951200D03*
X170027600Y-23460000D03*
X156147683Y-32664400D03*
X100774000Y-23981700D03*
X156147683Y-33782000D03*
X100774000Y-36693049D03*
X100774000Y-27156700D03*
X151727243Y-22481700D03*
X100774000Y-30335483D03*
X151727243Y-25660483D03*
X100774000Y-33514266D03*
X151727243Y-28839266D03*
X151727243Y-35196832D03*
X100774000Y-39871832D03*
X151727243Y-41554398D03*
X100774000Y-46229398D03*
X166946153Y-36804600D03*
X166946153Y-35673253D03*
X165938200Y-36804600D03*
X157673797Y-30200600D03*
X158673800Y-30200600D03*
X151727243Y-38375615D03*
X100774000Y-43050615D03*
D17*
X162179000Y-23914000D02*
X162184800Y-23919800D01*
X162184800Y-23919800D02*
X162184800Y-34092275D01*
X162179000Y-23914000D02*
X162180301Y-23915301D01*
D18*
X164897125Y-36804600D02*
X164896475Y-36805250D01*
D17*
X162180301Y-23915301D02*
X162180301Y-23915657D01*
X162184800Y-34092275D02*
X164896475Y-36803950D01*
D18*
X164896475Y-36805250D02*
X164896475Y-36905875D01*
D17*
X164896475Y-36803950D02*
X164896475Y-36905875D01*
D19*
X160904275Y-23806389D02*
X161709800Y-24611914D01*
D17*
X169968047Y-39886047D02*
X166768353Y-39886047D01*
D20*
X163617521Y-23143044D02*
X163617521Y-23130344D01*
D19*
X161709800Y-24611914D02*
X161709800Y-34653800D01*
D20*
X158445200Y-27317800D02*
X158445200Y-26265463D01*
X158458000Y-27317800D02*
X158470600Y-27330400D01*
D17*
X175971200Y-35509200D02*
X175183800Y-34721800D01*
D19*
X160159700Y-40601900D02*
X158800800Y-41960800D01*
D20*
X158445200Y-27317800D02*
X158458000Y-27317800D01*
X168122600Y-24917400D02*
X168122600Y-30073600D01*
D17*
X161596663Y-23114000D02*
X161455300Y-23255363D01*
D19*
X161709800Y-34653800D02*
X163860600Y-36804600D01*
X160159700Y-40284400D02*
X160159700Y-40601900D01*
D20*
X163588477Y-23114000D02*
X163617521Y-23143044D01*
X163617521Y-23130344D02*
X163601177Y-23114000D01*
X161596663Y-23114000D02*
X163588477Y-23114000D01*
X163617521Y-23143044D02*
X166348244Y-23143044D01*
X166348244Y-23143044D02*
X168122600Y-24917400D01*
D19*
X161455300Y-23255363D02*
X160904275Y-23806389D01*
X166768353Y-39886047D02*
X163860600Y-36978294D01*
X163860600Y-36978294D02*
X163860600Y-36804600D01*
D20*
X158445200Y-26265463D02*
X161596663Y-23114000D01*
D18*
X163860600Y-36804600D02*
X163860600Y-36906475D01*
D17*
X163865505Y-24673505D02*
X163617521Y-24425521D01*
D19*
X158800800Y-41960800D02*
X158800800Y-41986200D01*
D17*
X169968400Y-39886400D02*
X169968047Y-39886047D01*
X163865505Y-25789916D02*
X163865505Y-24673505D01*
X163617521Y-24425521D02*
X163617521Y-23143044D01*
D19*
X153346200Y-40951200D02*
X153987600Y-40309800D01*
D21*
X170053000Y-28299000D02*
X170053000Y-23485400D01*
X170053000Y-23485400D02*
X170027600Y-23460000D01*
D19*
X153987600Y-40309800D02*
X158115000Y-40309800D01*
X158115000Y-40309800D02*
X158140400Y-40284400D01*
D21*
X170042000Y-28310000D02*
X170053000Y-28299000D01*
D18*
X156147683Y-32664400D02*
X156147683Y-32738686D01*
D17*
X156147683Y-32664400D02*
X156159200Y-32652883D01*
X156159200Y-22326600D02*
X154787600Y-20955000D01*
X103800700Y-20955000D02*
X100774000Y-23981700D01*
X100752700Y-23981700D02*
X100752700Y-23922700D01*
D18*
X100752700Y-23960400D02*
X100774000Y-23981700D01*
X156147683Y-32738686D02*
X156101958Y-32784411D01*
D17*
X156159200Y-32652883D02*
X156159200Y-22326600D01*
X154787600Y-20955000D02*
X103800700Y-20955000D01*
D18*
X100752700Y-23922700D02*
X100752700Y-23960400D01*
D17*
X151021367Y-33763633D02*
X149885400Y-34899600D01*
D18*
X156147683Y-33782000D02*
X156129316Y-33763633D01*
D17*
X149885400Y-34899600D02*
X149885400Y-35393549D01*
X148590000Y-36688949D02*
X100778100Y-36688949D01*
X149885400Y-35393549D02*
X148590000Y-36688949D01*
X156129316Y-33763633D02*
X151021367Y-33763633D01*
X149885400Y-25857200D02*
X149885400Y-25044400D01*
X100778100Y-27152600D02*
X148590000Y-27152600D01*
X151727243Y-23202557D02*
X151727243Y-22481700D01*
X148590000Y-27152600D02*
X149885400Y-25857200D01*
D18*
X100774000Y-27156700D02*
X100778100Y-27152600D01*
D17*
X149885400Y-25044400D02*
X151727243Y-23202557D01*
X151727243Y-26381340D02*
X151727243Y-25660483D01*
X148590000Y-30331383D02*
X149885400Y-29035983D01*
X149885400Y-28223183D02*
X151727243Y-26381340D01*
X100778100Y-30331383D02*
X148590000Y-30331383D01*
X149885400Y-29035983D02*
X149885400Y-28223183D01*
X100778100Y-33510166D02*
X148590000Y-33510166D01*
X149885400Y-31401966D02*
X151727243Y-29560123D01*
X151727243Y-29560123D02*
X151727243Y-28839266D01*
X148590000Y-33510166D02*
X149885400Y-32214766D01*
X149885400Y-32214766D02*
X149885400Y-31401966D01*
X151727243Y-35917689D02*
X151727243Y-35196832D01*
X100778100Y-39867732D02*
X148590000Y-39867732D01*
X149885400Y-37759532D02*
X151727243Y-35917689D01*
X148590000Y-39867732D02*
X149885400Y-38572332D01*
X149885400Y-38572332D02*
X149885400Y-37759532D01*
X151727243Y-42275255D02*
X151727243Y-41554398D01*
X149885400Y-44929898D02*
X149885400Y-44117098D01*
X149885400Y-44117098D02*
X151727243Y-42275255D01*
X100778100Y-46225298D02*
X148590000Y-46225298D01*
X148590000Y-46225298D02*
X149885400Y-44929898D01*
X176961800Y-39522400D02*
X175133000Y-39522400D01*
X166946153Y-36673203D02*
X167077550Y-36804600D01*
X172389800Y-36804600D02*
X174244000Y-38658800D01*
X177520600Y-33655000D02*
X177520600Y-38963600D01*
X175183800Y-33451800D02*
X175539400Y-33096200D01*
X172389800Y-36804600D02*
X166946153Y-36804600D01*
D18*
X174269400Y-38658800D02*
X174244000Y-38658800D01*
D17*
X177520600Y-38963600D02*
X176961800Y-39522400D01*
X175539400Y-33096200D02*
X176961800Y-33096200D01*
X176961800Y-33096200D02*
X177520600Y-33655000D01*
X175133000Y-39522400D02*
X174269400Y-38658800D01*
X173913800Y-35650400D02*
X173913800Y-34721800D01*
X175938706Y-38658800D02*
X176326800Y-38658800D01*
X166956429Y-35683529D02*
X167415047Y-36142147D01*
X166956429Y-35673253D02*
X166956429Y-35683529D01*
X173422053Y-36142147D02*
X173616100Y-35948100D01*
X173422053Y-36142147D02*
X175938706Y-38658800D01*
X173616100Y-35948100D02*
X173913800Y-35650400D01*
X167415047Y-36142147D02*
X173422053Y-36142147D01*
X177152615Y-32639000D02*
X174726600Y-32639000D01*
X177970600Y-33456985D02*
X177152615Y-32639000D01*
X171109354Y-37556154D02*
X172212000Y-38658800D01*
X166556956Y-37556154D02*
X171109354Y-37556154D01*
X165938200Y-36804600D02*
X165938200Y-36937398D01*
X165938200Y-36937398D02*
X166556956Y-37556154D01*
X174726600Y-32639000D02*
X173913800Y-33451800D01*
X173525600Y-39972400D02*
X177172200Y-39972400D01*
X177172200Y-39972400D02*
X177970600Y-39174000D01*
X177970600Y-39174000D02*
X177970600Y-33456985D01*
X172212000Y-38658800D02*
X173525600Y-39972400D01*
X166624000Y-41732200D02*
X173558200Y-41732200D01*
X157673797Y-32781997D02*
X166624000Y-41732200D01*
X173558200Y-41732200D02*
X174345600Y-40944800D01*
X174345600Y-40944800D02*
X175298100Y-40944800D01*
X157673797Y-30200600D02*
X157673797Y-32781997D01*
X158673800Y-30200600D02*
X158673800Y-32816800D01*
X166801800Y-40944800D02*
X173240700Y-40944800D01*
X158673800Y-32816800D02*
X166801800Y-40944800D01*
X149885400Y-41751115D02*
X149885400Y-40938315D01*
X151727243Y-39096472D02*
X151727243Y-38375615D01*
X149885400Y-40938315D02*
X151727243Y-39096472D01*
X100778100Y-43046515D02*
X148590000Y-43046515D01*
X148590000Y-43046515D02*
X149885400Y-41751115D01*
G04 #@! TA.AperFunction,Conductor*
G36*
X165467851Y-37259431D02*
G01*
X165483309Y-37270662D01*
X165565960Y-37343883D01*
X165705835Y-37417296D01*
X165859215Y-37455100D01*
X165883857Y-37455100D01*
X165942048Y-37474007D01*
X165953861Y-37484096D01*
X166256481Y-37786716D01*
X166256480Y-37786716D01*
X166326394Y-37856629D01*
X166412014Y-37906062D01*
X166412018Y-37906064D01*
X166459768Y-37918859D01*
X166459769Y-37918859D01*
X166507520Y-37931654D01*
X166507521Y-37931654D01*
X170912809Y-37931654D01*
X170971000Y-37950561D01*
X170982813Y-37960650D01*
X171445744Y-38423581D01*
X171473521Y-38478098D01*
X171474117Y-38504670D01*
X171456751Y-38658795D01*
X171456751Y-38658804D01*
X171475685Y-38826853D01*
X171475688Y-38826865D01*
X171531544Y-38986490D01*
X171531544Y-38986491D01*
X171621520Y-39129686D01*
X171621523Y-39129690D01*
X171741110Y-39249277D01*
X171741112Y-39249278D01*
X171741113Y-39249279D01*
X171873637Y-39332550D01*
X171884310Y-39339256D01*
X171948232Y-39361623D01*
X172043934Y-39395111D01*
X172043938Y-39395112D01*
X172043941Y-39395113D01*
X172043942Y-39395113D01*
X172043946Y-39395114D01*
X172211996Y-39414049D01*
X172212000Y-39414049D01*
X172212004Y-39414049D01*
X172280815Y-39406295D01*
X172366130Y-39396682D01*
X172426071Y-39408954D01*
X172447218Y-39425055D01*
X173021833Y-39999670D01*
X173049610Y-40054187D01*
X173040039Y-40114619D01*
X172996774Y-40157884D01*
X172984528Y-40163118D01*
X172913007Y-40188145D01*
X172769813Y-40278120D01*
X172650220Y-40397713D01*
X172585388Y-40500893D01*
X172571918Y-40522332D01*
X172571516Y-40522971D01*
X172524547Y-40562183D01*
X172487690Y-40569300D01*
X170439572Y-40569300D01*
X170381381Y-40550393D01*
X170345417Y-40500893D01*
X170345417Y-40439707D01*
X170373923Y-40396197D01*
X170388307Y-40383454D01*
X170458883Y-40320930D01*
X170548620Y-40190923D01*
X170604637Y-40043218D01*
X170617675Y-39935836D01*
X170623678Y-39886401D01*
X170623678Y-39886398D01*
X170604637Y-39729583D01*
X170604637Y-39729582D01*
X170548620Y-39581877D01*
X170469870Y-39467787D01*
X170458884Y-39451871D01*
X170458485Y-39451517D01*
X170340640Y-39347117D01*
X170270702Y-39310410D01*
X170200764Y-39273703D01*
X170047387Y-39235900D01*
X170047385Y-39235900D01*
X169889415Y-39235900D01*
X169889412Y-39235900D01*
X169736035Y-39273703D01*
X169596158Y-39347118D01*
X169480626Y-39449470D01*
X169477917Y-39451870D01*
X169466929Y-39467788D01*
X169418314Y-39504935D01*
X169385456Y-39510547D01*
X167351541Y-39510547D01*
X167293350Y-39491640D01*
X167270065Y-39467785D01*
X167258837Y-39451518D01*
X167242792Y-39437303D01*
X167140593Y-39346764D01*
X167001391Y-39273704D01*
X167000717Y-39273350D01*
X166847340Y-39235547D01*
X166847338Y-39235547D01*
X166725254Y-39235547D01*
X166667063Y-39216640D01*
X166655250Y-39206551D01*
X165042217Y-37593518D01*
X165014440Y-37539001D01*
X165024011Y-37478569D01*
X165067276Y-37435304D01*
X165088520Y-37427393D01*
X165129490Y-37417296D01*
X165269365Y-37343883D01*
X165269367Y-37343880D01*
X165269369Y-37343880D01*
X165352013Y-37270664D01*
X165408107Y-37246228D01*
X165467851Y-37259431D01*
G37*
G04 #@! TD.AperFunction*
G04 #@! TA.AperFunction,Conductor*
G36*
X176562818Y-18288004D02*
G01*
X176698934Y-18290332D01*
X176711352Y-18291329D01*
X176981565Y-18330262D01*
X176995379Y-18333274D01*
X177256468Y-18410107D01*
X177269720Y-18415061D01*
X177517184Y-18528343D01*
X177529593Y-18535136D01*
X177758366Y-18682548D01*
X177769683Y-18691044D01*
X177975091Y-18869571D01*
X177985084Y-18879597D01*
X178162934Y-19085595D01*
X178171392Y-19096940D01*
X178318044Y-19326192D01*
X178324800Y-19338630D01*
X178437261Y-19586457D01*
X178442174Y-19599732D01*
X178518143Y-19861067D01*
X178521112Y-19874907D01*
X178559151Y-20145234D01*
X178560108Y-20157662D01*
X178561990Y-20293948D01*
X178561999Y-20295315D01*
X178561999Y-48286455D01*
X178561950Y-48289561D01*
X178557650Y-48426567D01*
X178556487Y-48438902D01*
X178513386Y-48711863D01*
X178510194Y-48725622D01*
X178428940Y-48988848D01*
X178423821Y-49002014D01*
X178305934Y-49250993D01*
X178298994Y-49263295D01*
X178146878Y-49492958D01*
X178138258Y-49504147D01*
X177955002Y-49709831D01*
X177944877Y-49719681D01*
X177734219Y-49897186D01*
X177722796Y-49905494D01*
X177489016Y-50051217D01*
X177476526Y-50057815D01*
X177224389Y-50168782D01*
X177211088Y-50173535D01*
X176945720Y-50247493D01*
X176931878Y-50250304D01*
X176657817Y-50285857D01*
X176645481Y-50286679D01*
X176507079Y-50287238D01*
X176506685Y-50287239D01*
X100543298Y-50291800D01*
X100540869Y-50291770D01*
X100405938Y-50288467D01*
X100393628Y-50287395D01*
X100125171Y-50246995D01*
X100111389Y-50243902D01*
X99852267Y-50165965D01*
X99839066Y-50160942D01*
X99593673Y-50046924D01*
X99581321Y-50040073D01*
X99565251Y-50029596D01*
X99354658Y-49892297D01*
X99343409Y-49883761D01*
X99334868Y-49876262D01*
X99151343Y-49715118D01*
X99140077Y-49705226D01*
X99130155Y-49695173D01*
X99082002Y-49638861D01*
X98954294Y-49489512D01*
X98945920Y-49478172D01*
X98801112Y-49249572D01*
X98794429Y-49237140D01*
X98776908Y-49198100D01*
X98683627Y-48990258D01*
X98678787Y-48977015D01*
X98604250Y-48716887D01*
X98601338Y-48703066D01*
X98575069Y-48511491D01*
X98564459Y-48434116D01*
X98563548Y-48421787D01*
X98562015Y-48286119D01*
X98562009Y-48285000D01*
X98562009Y-47279898D01*
X172815069Y-47279898D01*
X172819741Y-47329664D01*
X172819743Y-47329680D01*
X172827334Y-47368825D01*
X172827343Y-47368860D01*
X172840311Y-47413505D01*
X172840313Y-47413512D01*
X172851599Y-47442279D01*
X172851601Y-47442283D01*
X172872753Y-47484328D01*
X172886515Y-47506360D01*
X172893926Y-47518224D01*
X172926568Y-47560076D01*
X172926575Y-47560083D01*
X172953280Y-47587821D01*
X172953771Y-47588330D01*
X172961501Y-47594900D01*
X172990109Y-47619213D01*
X172992616Y-47621343D01*
X173025072Y-47643762D01*
X173066672Y-47667087D01*
X173103607Y-47683473D01*
X173103610Y-47683474D01*
X173145239Y-47697792D01*
X173145253Y-47697796D01*
X173145258Y-47697798D01*
X173145260Y-47697798D01*
X173145265Y-47697800D01*
X173153394Y-47699831D01*
X173185895Y-47707956D01*
X173226031Y-47714649D01*
X173269595Y-47718384D01*
X173307512Y-47718811D01*
X173353228Y-47715926D01*
X173388682Y-47711179D01*
X173435774Y-47701479D01*
X173468258Y-47692519D01*
X173514574Y-47676389D01*
X173537515Y-47667132D01*
X173556451Y-47658402D01*
X173568158Y-47652638D01*
X173587418Y-47642536D01*
X173600178Y-47635370D01*
X173614392Y-47626843D01*
X173617458Y-47624974D01*
X173619242Y-47623869D01*
X173621695Y-47622351D01*
X173622666Y-47621757D01*
X173623357Y-47621340D01*
X173633292Y-47615346D01*
X173652535Y-47603825D01*
X173652534Y-47603824D01*
X173652870Y-47603623D01*
X173653133Y-47603466D01*
X173653195Y-47603430D01*
X173679361Y-47587821D01*
X173679436Y-47587776D01*
X173687455Y-47583001D01*
X173707331Y-47571168D01*
X173708640Y-47570390D01*
X173708641Y-47570391D01*
X173745107Y-47548712D01*
X173745106Y-47548711D01*
X173746382Y-47547952D01*
X173783950Y-47525642D01*
X173786200Y-47524307D01*
X173786201Y-47524308D01*
X173831828Y-47497231D01*
X173831827Y-47497230D01*
X173833682Y-47496129D01*
X173853583Y-47484328D01*
X173888608Y-47463558D01*
X173888626Y-47463547D01*
X173934277Y-47436489D01*
X173934278Y-47436492D01*
X173934286Y-47436483D01*
X173990382Y-47403247D01*
X173990381Y-47403246D01*
X173993615Y-47401330D01*
X174004873Y-47394662D01*
X174049041Y-47368504D01*
X174049041Y-47368505D01*
X174049046Y-47368500D01*
X174109954Y-47332438D01*
X174109953Y-47332437D01*
X174114638Y-47329664D01*
X174172555Y-47295384D01*
X174172562Y-47295382D01*
X174172562Y-47295381D01*
X174246384Y-47251697D01*
X174246388Y-47251694D01*
X174301346Y-47219183D01*
X174301353Y-47219181D01*
X174301352Y-47219180D01*
X174325733Y-47204760D01*
X174366660Y-47180555D01*
X174366659Y-47180554D01*
X174371745Y-47177546D01*
X174386864Y-47168607D01*
X174431921Y-47141968D01*
X174431928Y-47141963D01*
X174496793Y-47103620D01*
X174496794Y-47103622D01*
X174496800Y-47103615D01*
X174560825Y-47065780D01*
X174560824Y-47065779D01*
X174564488Y-47063614D01*
X174600604Y-47042277D01*
X174660320Y-47028959D01*
X174716462Y-47053285D01*
X174747583Y-47105964D01*
X174749956Y-47127057D01*
X174750261Y-47193147D01*
X174750264Y-47193649D01*
X174750264Y-47193650D01*
X174750531Y-47263961D01*
X174750531Y-47263962D01*
X174750670Y-47312790D01*
X174750720Y-47330459D01*
X174750720Y-47330565D01*
X174750815Y-47384282D01*
X174750815Y-47384315D01*
X174750902Y-47445560D01*
X174750904Y-47445742D01*
X174751029Y-47499088D01*
X174751029Y-47499103D01*
X174751030Y-47499559D01*
X174751206Y-47545435D01*
X174751207Y-47545435D01*
X174751207Y-47545544D01*
X174751210Y-47546157D01*
X174751210Y-47546167D01*
X174751372Y-47572225D01*
X174751457Y-47585737D01*
X174751464Y-47586667D01*
X174751485Y-47588779D01*
X174751798Y-47620585D01*
X174751813Y-47621698D01*
X174752254Y-47650775D01*
X174752288Y-47652547D01*
X174752845Y-47676971D01*
X174752924Y-47679779D01*
X174753610Y-47700426D01*
X174753616Y-47700570D01*
X174753756Y-47704080D01*
X174754409Y-47717994D01*
X174754605Y-47722157D01*
X174754841Y-47726414D01*
X174755867Y-47742481D01*
X174756211Y-47747187D01*
X174757414Y-47761738D01*
X174757845Y-47766432D01*
X174759259Y-47780448D01*
X174759655Y-47784103D01*
X174759661Y-47784153D01*
X174761295Y-47798260D01*
X174761456Y-47799623D01*
X174761469Y-47799727D01*
X174761516Y-47800128D01*
X174762474Y-47807184D01*
X174769654Y-47855087D01*
X174772989Y-47872967D01*
X174775042Y-47882145D01*
X174769288Y-47943059D01*
X174764209Y-47953172D01*
X174754996Y-47969160D01*
X174754943Y-47969252D01*
X174735437Y-48002919D01*
X174735351Y-48003067D01*
X174712932Y-48041608D01*
X174712869Y-48041717D01*
X174687368Y-48085428D01*
X174687322Y-48085507D01*
X174662601Y-48127793D01*
X174658545Y-48134730D01*
X174626357Y-48189703D01*
X174590584Y-48250734D01*
X174551058Y-48318118D01*
X174551046Y-48318138D01*
X174507563Y-48392228D01*
X174507560Y-48392235D01*
X174459952Y-48473339D01*
X174428243Y-48527352D01*
X174428235Y-48527365D01*
X174402937Y-48570464D01*
X174385234Y-48600623D01*
X174385181Y-48600710D01*
X174344131Y-48670667D01*
X174343933Y-48671003D01*
X174343888Y-48671079D01*
X174303478Y-48739965D01*
X174303469Y-48739979D01*
X174303469Y-48739981D01*
X174264623Y-48806220D01*
X174264604Y-48806253D01*
X174227496Y-48869550D01*
X174227477Y-48869583D01*
X174192332Y-48929552D01*
X174192310Y-48929590D01*
X174159354Y-48985846D01*
X174159328Y-48985890D01*
X174128786Y-49038049D01*
X174128757Y-49038099D01*
X174128746Y-49038118D01*
X174128745Y-49038117D01*
X174101018Y-49085494D01*
X174100842Y-49085795D01*
X174100783Y-49085895D01*
X174083229Y-49115909D01*
X174075780Y-49128645D01*
X174075733Y-49128725D01*
X174056543Y-49161563D01*
X174053709Y-49166412D01*
X174053708Y-49166411D01*
X174035822Y-49197055D01*
X174035086Y-49198316D01*
X174034995Y-49198471D01*
X174019901Y-49224371D01*
X174019872Y-49224421D01*
X174019871Y-49224420D01*
X174019742Y-49224642D01*
X174019740Y-49224648D01*
X174008412Y-49244142D01*
X174008075Y-49244725D01*
X174000738Y-49257428D01*
X174000641Y-49257596D01*
X173999726Y-49259194D01*
X173996692Y-49264550D01*
X173987180Y-49283065D01*
X173971542Y-49316819D01*
X173971542Y-49316820D01*
X173957643Y-49354240D01*
X173957639Y-49354250D01*
X173957638Y-49354256D01*
X173948278Y-49387130D01*
X173948155Y-49387563D01*
X173940057Y-49428371D01*
X173935897Y-49464584D01*
X173935897Y-49464591D01*
X173934599Y-49483626D01*
X173934289Y-49488167D01*
X173934288Y-49488187D01*
X173933926Y-49504717D01*
X173934218Y-49523729D01*
X173936108Y-49559624D01*
X173940473Y-49595071D01*
X173940474Y-49595073D01*
X173946728Y-49627169D01*
X173957235Y-49665174D01*
X173968721Y-49696944D01*
X173968731Y-49696968D01*
X173979017Y-49721375D01*
X173979032Y-49721409D01*
X173990146Y-49744370D01*
X173990147Y-49744371D01*
X174005647Y-49771909D01*
X174029797Y-49809211D01*
X174029798Y-49809212D01*
X174055754Y-49842811D01*
X174055768Y-49842828D01*
X174068977Y-49857265D01*
X174086771Y-49876714D01*
X174115355Y-49903507D01*
X174151600Y-49932597D01*
X174156078Y-49935653D01*
X174184173Y-49954827D01*
X174184260Y-49954886D01*
X174224124Y-49977785D01*
X174254173Y-49992518D01*
X174277710Y-50002202D01*
X174309661Y-50012944D01*
X174309669Y-50012946D01*
X174334421Y-50019486D01*
X174334428Y-50019487D01*
X174334434Y-50019489D01*
X174361505Y-50025094D01*
X174381058Y-50028050D01*
X174391282Y-50029596D01*
X174391288Y-50029596D01*
X174391297Y-50029598D01*
X174411072Y-50031804D01*
X174442909Y-50034105D01*
X174461889Y-50034769D01*
X174492803Y-50034701D01*
X174516716Y-50033527D01*
X174543733Y-50030927D01*
X174570310Y-50026950D01*
X174580804Y-50024810D01*
X174616629Y-50014738D01*
X174657387Y-50000001D01*
X174699801Y-49980097D01*
X174738990Y-49957105D01*
X174772079Y-49933997D01*
X174805641Y-49906370D01*
X174823821Y-49889878D01*
X174838308Y-49875408D01*
X174847402Y-49865843D01*
X174859848Y-49852056D01*
X174871585Y-49838081D01*
X174880287Y-49826935D01*
X174899324Y-49798899D01*
X174902084Y-49794190D01*
X174906762Y-49785855D01*
X174907716Y-49784075D01*
X174908855Y-49782014D01*
X174913406Y-49774024D01*
X174923914Y-49755853D01*
X174938008Y-49731664D01*
X174955796Y-49701262D01*
X174955798Y-49701263D01*
X174955838Y-49701189D01*
X174976802Y-49665461D01*
X174976801Y-49665460D01*
X175000369Y-49625378D01*
X175000414Y-49625338D01*
X175000398Y-49625329D01*
X175026654Y-49580740D01*
X175055172Y-49532366D01*
X175084837Y-49482096D01*
X175085691Y-49480650D01*
X175085692Y-49480651D01*
X175117977Y-49425989D01*
X175117976Y-49425988D01*
X175119644Y-49423166D01*
X175119663Y-49423135D01*
X175154213Y-49364688D01*
X175154225Y-49364667D01*
X175182524Y-49316820D01*
X175186519Y-49310066D01*
X175222323Y-49249567D01*
X175222324Y-49249568D01*
X175258808Y-49187957D01*
X175258807Y-49187956D01*
X175287290Y-49139882D01*
X175299784Y-49118797D01*
X175332555Y-49063519D01*
X175369342Y-49001496D01*
X175405737Y-48940168D01*
X175405736Y-48940167D01*
X175441361Y-48880172D01*
X175441373Y-48880162D01*
X175441369Y-48880160D01*
X175445574Y-48873082D01*
X175445579Y-48873073D01*
X175491554Y-48832704D01*
X175552479Y-48827066D01*
X175605082Y-48858316D01*
X175610756Y-48865410D01*
X175616310Y-48873047D01*
X175616321Y-48873082D01*
X175616331Y-48873076D01*
X175657282Y-48929433D01*
X175657281Y-48929433D01*
X175657283Y-48929434D01*
X175660929Y-48934455D01*
X175696477Y-48983406D01*
X175696494Y-48983429D01*
X175743774Y-49048575D01*
X175783501Y-49103344D01*
X175783501Y-49103345D01*
X175824165Y-49159440D01*
X175825254Y-49160944D01*
X175825636Y-49161470D01*
X175825703Y-49161563D01*
X175865745Y-49216833D01*
X175865762Y-49216856D01*
X175889446Y-49249567D01*
X175908385Y-49275725D01*
X175908549Y-49275950D01*
X175948238Y-49330804D01*
X175949219Y-49332160D01*
X175949239Y-49332188D01*
X175985096Y-49381783D01*
X175985117Y-49381812D01*
X176021950Y-49432796D01*
X176021977Y-49432833D01*
X176023361Y-49434750D01*
X176058117Y-49482909D01*
X176058133Y-49482959D01*
X176058147Y-49482950D01*
X176091070Y-49528617D01*
X176091110Y-49528673D01*
X176119653Y-49568322D01*
X176119700Y-49568387D01*
X176147031Y-49606418D01*
X176147093Y-49606505D01*
X176170179Y-49638702D01*
X176170230Y-49638861D01*
X176170272Y-49638832D01*
X176189997Y-49666435D01*
X176203711Y-49685723D01*
X176205871Y-49688761D01*
X176206106Y-49689094D01*
X176216616Y-49704006D01*
X176217156Y-49704780D01*
X176238642Y-49735891D01*
X176239490Y-49736343D01*
X176246443Y-49744375D01*
X176264610Y-49767793D01*
X176288559Y-49794190D01*
X176291013Y-49796895D01*
X176326827Y-49830733D01*
X176360052Y-49857259D01*
X176399422Y-49883645D01*
X176417716Y-49893671D01*
X176439282Y-49905491D01*
X176439284Y-49905492D01*
X176439288Y-49905494D01*
X176481680Y-49924034D01*
X176514008Y-49935652D01*
X176533875Y-49941316D01*
X176567517Y-49948499D01*
X176611470Y-49954827D01*
X176653918Y-49957364D01*
X176700024Y-49956274D01*
X176738600Y-49952420D01*
X176784945Y-49944201D01*
X176821960Y-49934735D01*
X176866627Y-49919675D01*
X176897329Y-49907047D01*
X176924677Y-49893660D01*
X176954816Y-49876269D01*
X176973253Y-49863884D01*
X176993608Y-49848690D01*
X177014633Y-49831303D01*
X177027567Y-49819849D01*
X177048865Y-49799663D01*
X177060530Y-49787865D01*
X177079784Y-49767083D01*
X177094140Y-49750170D01*
X177109034Y-49730995D01*
X177119478Y-49716534D01*
X177120141Y-49715545D01*
X177132248Y-49695568D01*
X177152390Y-49658620D01*
X177168820Y-49621849D01*
X177183214Y-49581327D01*
X177193283Y-49544426D01*
X177201390Y-49502603D01*
X177205934Y-49461983D01*
X177207214Y-49421129D01*
X177206012Y-49387125D01*
X177204246Y-49369863D01*
X177204243Y-49369841D01*
X177200191Y-49343703D01*
X177200187Y-49343682D01*
X177195507Y-49321251D01*
X177190155Y-49300141D01*
X177182911Y-49275950D01*
X177177221Y-49259105D01*
X177168358Y-49235598D01*
X177160697Y-49217435D01*
X177160415Y-49216833D01*
X177151166Y-49197068D01*
X177151159Y-49197055D01*
X177136340Y-49169829D01*
X177127539Y-49155763D01*
X177126620Y-49152087D01*
X177107122Y-49127476D01*
X177105787Y-49125752D01*
X177099818Y-49117857D01*
X177095904Y-49112611D01*
X177087473Y-49101309D01*
X177087298Y-49101074D01*
X177070459Y-49078362D01*
X177070358Y-49078226D01*
X177049310Y-49049735D01*
X177049324Y-49049724D01*
X177049241Y-49049642D01*
X177048469Y-49048595D01*
X177024816Y-49016499D01*
X176997181Y-48978937D01*
X176997182Y-48978937D01*
X176966451Y-48937110D01*
X176966450Y-48937110D01*
X176933251Y-48891877D01*
X176933239Y-48891839D01*
X176933229Y-48891847D01*
X176897742Y-48843455D01*
X176897745Y-48843452D01*
X176897725Y-48843432D01*
X176860319Y-48792387D01*
X176860311Y-48792360D01*
X176860304Y-48792366D01*
X176821231Y-48739011D01*
X176821216Y-48738990D01*
X176780835Y-48683818D01*
X176739429Y-48627215D01*
X176737279Y-48624276D01*
X176737266Y-48624258D01*
X176697934Y-48570464D01*
X176697921Y-48570446D01*
X176697360Y-48569679D01*
X176697361Y-48569679D01*
X176654850Y-48511509D01*
X176654844Y-48511491D01*
X176654840Y-48511495D01*
X176612280Y-48453231D01*
X176612266Y-48453212D01*
X176592812Y-48426567D01*
X176569964Y-48395272D01*
X176528209Y-48338056D01*
X176528201Y-48338032D01*
X176528195Y-48338037D01*
X176487295Y-48281964D01*
X176487280Y-48281943D01*
X176447572Y-48227475D01*
X176447556Y-48227452D01*
X176409341Y-48175000D01*
X176409334Y-48174991D01*
X176373820Y-48126214D01*
X176337357Y-48076091D01*
X176306752Y-48033984D01*
X176306735Y-48033933D01*
X176306722Y-48033943D01*
X176293098Y-48015178D01*
X176274212Y-47956982D01*
X176277134Y-47935073D01*
X176276705Y-47934976D01*
X176281242Y-47914928D01*
X176285404Y-47892789D01*
X176287565Y-47879328D01*
X176290688Y-47855901D01*
X176291231Y-47851063D01*
X176305386Y-47810077D01*
X176307214Y-47807116D01*
X176307217Y-47807114D01*
X176317329Y-47790743D01*
X176332998Y-47761214D01*
X176333598Y-47759879D01*
X176340001Y-47744274D01*
X176342265Y-47738192D01*
X176350029Y-47713606D01*
X176352057Y-47705839D01*
X176356227Y-47686978D01*
X176358029Y-47677063D01*
X176360115Y-47663538D01*
X176361704Y-47651015D01*
X176362731Y-47641489D01*
X176364118Y-47625895D01*
X176364626Y-47619191D01*
X176365821Y-47600064D01*
X176366072Y-47595348D01*
X176366512Y-47585320D01*
X176367089Y-47572219D01*
X176367213Y-47568868D01*
X176367214Y-47568852D01*
X176367874Y-47547373D01*
X176368064Y-47541184D01*
X176368119Y-47539015D01*
X176368123Y-47538860D01*
X176368814Y-47506360D01*
X176368846Y-47504605D01*
X176369391Y-47466724D01*
X176369406Y-47465450D01*
X176369817Y-47421725D01*
X176369824Y-47420799D01*
X176369866Y-47413505D01*
X176370114Y-47370699D01*
X176370114Y-47370428D01*
X176370116Y-47370087D01*
X176370293Y-47313288D01*
X176370294Y-47312799D01*
X176370371Y-47248769D01*
X176370371Y-47248423D01*
X176370360Y-47176701D01*
X176370360Y-47176455D01*
X176370271Y-47096578D01*
X176370271Y-47096467D01*
X176370243Y-47078409D01*
X176370243Y-47078319D01*
X176370110Y-47008454D01*
X176370110Y-47008324D01*
X176370109Y-47008233D01*
X176369939Y-46946675D01*
X176369937Y-46946289D01*
X176369937Y-46946175D01*
X176369718Y-46891784D01*
X176369718Y-46891741D01*
X176369717Y-46891408D01*
X176369439Y-46843910D01*
X176369433Y-46843127D01*
X176369433Y-46843126D01*
X176369086Y-46801931D01*
X176369077Y-46801028D01*
X176369010Y-46795438D01*
X176368648Y-46765150D01*
X176368630Y-46763901D01*
X176368110Y-46733044D01*
X176368076Y-46731369D01*
X176367454Y-46704799D01*
X176367393Y-46702588D01*
X176366658Y-46679672D01*
X176366552Y-46676853D01*
X176365694Y-46656960D01*
X176365521Y-46653498D01*
X176364528Y-46635995D01*
X176364273Y-46632051D01*
X176363338Y-46619114D01*
X176363141Y-46616380D01*
X176363135Y-46616304D01*
X176362805Y-46612197D01*
X176361511Y-46597575D01*
X176361316Y-46595471D01*
X176361218Y-46594459D01*
X176361195Y-46594217D01*
X176357028Y-46551610D01*
X176356998Y-46551311D01*
X176357027Y-46551177D01*
X176356986Y-46551182D01*
X176353534Y-46516498D01*
X176353534Y-46516499D01*
X176353526Y-46516418D01*
X176353425Y-46515413D01*
X176352213Y-46503707D01*
X176365028Y-46443881D01*
X176385252Y-46419223D01*
X176401612Y-46404814D01*
X176412195Y-46394655D01*
X176412779Y-46394101D01*
X176414582Y-46392411D01*
X176415441Y-46391617D01*
X176424219Y-46383613D01*
X176439823Y-46369491D01*
X176439992Y-46369415D01*
X176439955Y-46369374D01*
X176458580Y-46352580D01*
X176458655Y-46352516D01*
X176461441Y-46350000D01*
X176461466Y-46350028D01*
X176461593Y-46349862D01*
X176487358Y-46326681D01*
X176487357Y-46326680D01*
X176488687Y-46325485D01*
X176516783Y-46300241D01*
X176517417Y-46299673D01*
X176517418Y-46299674D01*
X176551447Y-46269133D01*
X176551446Y-46269132D01*
X176552562Y-46268131D01*
X176588685Y-46235739D01*
X176588684Y-46235738D01*
X176591052Y-46233615D01*
X176628779Y-46199805D01*
X176628778Y-46199804D01*
X176630406Y-46198344D01*
X176666806Y-46165741D01*
X176671219Y-46161791D01*
X176715699Y-46121968D01*
X176715698Y-46121967D01*
X176721173Y-46117067D01*
X176721189Y-46117053D01*
X176761595Y-46080893D01*
X176761596Y-46080894D01*
X176761603Y-46080884D01*
X176804849Y-46042196D01*
X176808578Y-46038861D01*
X176808579Y-46038862D01*
X176856190Y-45996284D01*
X176856189Y-45996283D01*
X176859451Y-45993366D01*
X176903912Y-45953622D01*
X176903911Y-45953621D01*
X176907398Y-45950504D01*
X176945656Y-45916316D01*
X176997981Y-45869577D01*
X176997985Y-45869572D01*
X177043493Y-45828935D01*
X177043492Y-45828934D01*
X177087317Y-45789820D01*
X177087316Y-45789819D01*
X177089710Y-45787682D01*
X177128993Y-45752638D01*
X177168229Y-45717655D01*
X177168228Y-45717654D01*
X177171100Y-45715095D01*
X177171119Y-45715078D01*
X177171743Y-45714522D01*
X177179151Y-45707921D01*
X177235171Y-45683324D01*
X177271023Y-45686312D01*
X177273857Y-45687083D01*
X177273858Y-45687084D01*
X177276735Y-45687915D01*
X177286592Y-45690923D01*
X177289653Y-45691912D01*
X177298238Y-45694842D01*
X177312098Y-45699137D01*
X177336608Y-45705975D01*
X177384459Y-45714524D01*
X177406156Y-45716297D01*
X177475942Y-45712408D01*
X177493099Y-45709057D01*
X177565734Y-45682996D01*
X177571120Y-45680081D01*
X177584261Y-45672456D01*
X177657075Y-45604364D01*
X177664384Y-45594181D01*
X177673985Y-45579801D01*
X177708965Y-45486448D01*
X177711586Y-45470427D01*
X177713670Y-45403750D01*
X177711633Y-45383382D01*
X177702991Y-45338340D01*
X177697369Y-45318746D01*
X177699493Y-45257600D01*
X177726577Y-45217609D01*
X177735233Y-45209878D01*
X177735254Y-45209859D01*
X177743705Y-45202308D01*
X177743892Y-45202139D01*
X177744049Y-45202070D01*
X177744014Y-45202031D01*
X177786210Y-45164205D01*
X177787099Y-45163403D01*
X177823052Y-45130854D01*
X177823132Y-45130782D01*
X177824685Y-45129364D01*
X177855353Y-45101137D01*
X177857766Y-45098888D01*
X177883604Y-45074483D01*
X177887166Y-45071053D01*
X177908765Y-45049846D01*
X177913768Y-45044795D01*
X177931717Y-45026163D01*
X177938303Y-45019062D01*
X177953194Y-45002383D01*
X177961202Y-44992964D01*
X177973625Y-44977615D01*
X177982357Y-44966182D01*
X177992902Y-44951539D01*
X178001166Y-44939337D01*
X178010424Y-44924779D01*
X178017083Y-44913698D01*
X178025644Y-44898600D01*
X178029195Y-44892121D01*
X178033226Y-44884507D01*
X178039687Y-44871412D01*
X178058147Y-44831134D01*
X178069753Y-44800877D01*
X178081599Y-44762962D01*
X178090216Y-44725862D01*
X178096100Y-44687861D01*
X178098901Y-44659078D01*
X178099840Y-44635831D01*
X178099254Y-44605387D01*
X178095852Y-44562345D01*
X178087421Y-44514441D01*
X178076930Y-44476466D01*
X178056003Y-44424093D01*
X178038413Y-44391173D01*
X178030148Y-44379293D01*
X178004318Y-44342164D01*
X178004316Y-44342161D01*
X177996767Y-44333639D01*
X177979630Y-44314293D01*
X177979623Y-44314286D01*
X177965722Y-44301737D01*
X177937413Y-44276180D01*
X177905604Y-44253335D01*
X177902189Y-44251311D01*
X177875865Y-44235708D01*
X177867068Y-44230494D01*
X177867061Y-44230490D01*
X177867051Y-44230485D01*
X177836545Y-44215852D01*
X177818745Y-44208436D01*
X177772302Y-44168603D01*
X177758143Y-44109079D01*
X177781675Y-44052599D01*
X177818083Y-44025945D01*
X177820037Y-44025115D01*
X177820127Y-44025107D01*
X177820117Y-44025082D01*
X177875042Y-44001792D01*
X177875094Y-44001769D01*
X177919650Y-43982937D01*
X177919808Y-43982924D01*
X177919789Y-43982879D01*
X177958321Y-43966663D01*
X177958323Y-43966667D01*
X177958450Y-43966608D01*
X177970772Y-43961445D01*
X177975693Y-43959322D01*
X177998766Y-43949078D01*
X178006769Y-43945358D01*
X178030798Y-43933680D01*
X178037485Y-43930308D01*
X178060897Y-43918069D01*
X178067698Y-43914382D01*
X178088917Y-43902458D01*
X178097636Y-43897328D01*
X178115087Y-43886591D01*
X178129994Y-43876683D01*
X178129994Y-43876682D01*
X178130003Y-43876677D01*
X178139147Y-43870126D01*
X178153850Y-43861407D01*
X178171360Y-43852974D01*
X178171362Y-43852973D01*
X178188797Y-43843731D01*
X178206539Y-43833429D01*
X178237656Y-43812144D01*
X178250106Y-43802204D01*
X178289508Y-43763012D01*
X178298168Y-43752283D01*
X178325482Y-43710742D01*
X178328835Y-43704366D01*
X178330621Y-43700972D01*
X178330625Y-43700963D01*
X178330628Y-43700958D01*
X178351133Y-43648741D01*
X178356467Y-43629023D01*
X178358876Y-43619377D01*
X178361759Y-43519727D01*
X178358931Y-43502994D01*
X178352718Y-43475538D01*
X178307214Y-43386839D01*
X178296192Y-43372937D01*
X178296191Y-43372936D01*
X178296188Y-43372932D01*
X178253758Y-43330704D01*
X178253755Y-43330702D01*
X178251507Y-43328937D01*
X178248957Y-43327443D01*
X178191929Y-43294025D01*
X178177621Y-43288068D01*
X178107695Y-43270011D01*
X178107694Y-43270010D01*
X178085409Y-43267529D01*
X178048735Y-43266100D01*
X178048702Y-43266100D01*
X178018491Y-43267096D01*
X177997191Y-43268690D01*
X177958961Y-43273164D01*
X177945359Y-43275130D01*
X177899117Y-43283088D01*
X177893500Y-43284119D01*
X177888850Y-43285027D01*
X177888065Y-43285177D01*
X177849998Y-43292286D01*
X177847452Y-43292727D01*
X177816063Y-43297745D01*
X177813033Y-43298181D01*
X177789072Y-43301255D01*
X177783038Y-43302028D01*
X177779964Y-43302375D01*
X177747671Y-43305493D01*
X177744990Y-43305715D01*
X177706951Y-43308347D01*
X177704917Y-43308467D01*
X177657680Y-43310760D01*
X177656740Y-43310801D01*
X177643174Y-43311330D01*
X177642100Y-43311376D01*
X177641117Y-43311418D01*
X177641064Y-43311420D01*
X177641052Y-43311421D01*
X177621027Y-43312361D01*
X177603129Y-43313202D01*
X177602840Y-43313217D01*
X177599494Y-43313398D01*
X177556509Y-43316020D01*
X177553407Y-43316225D01*
X177508643Y-43319448D01*
X177505839Y-43319665D01*
X177501147Y-43320054D01*
X177441594Y-43306016D01*
X177401665Y-43259655D01*
X177396613Y-43198679D01*
X177426999Y-43147578D01*
X177438597Y-43137212D01*
X177442080Y-43134040D01*
X177444207Y-43132066D01*
X177444916Y-43131415D01*
X177446427Y-43130042D01*
X177449905Y-43126880D01*
X177450661Y-43126202D01*
X177461680Y-43116444D01*
X177478326Y-43101863D01*
X177498179Y-43084596D01*
X177519389Y-43066258D01*
X177526789Y-43059885D01*
X177528858Y-43058084D01*
X177563191Y-43027868D01*
X177568463Y-43023096D01*
X177596919Y-42996611D01*
X177604149Y-42989611D01*
X177626470Y-42967132D01*
X177637471Y-42955330D01*
X177637472Y-42955327D01*
X177637483Y-42955317D01*
X177644130Y-42947717D01*
X177653394Y-42937128D01*
X177672493Y-42912393D01*
X177681758Y-42898743D01*
X177712259Y-42837492D01*
X177714685Y-42830356D01*
X177715522Y-42827851D01*
X177727557Y-42728889D01*
X177726563Y-42715718D01*
X177703056Y-42626339D01*
X177697461Y-42614425D01*
X177650430Y-42546010D01*
X177642314Y-42537563D01*
X177639340Y-42534467D01*
X177639335Y-42534463D01*
X177600155Y-42501157D01*
X177600151Y-42501154D01*
X177598791Y-42500216D01*
X177582663Y-42489095D01*
X177559575Y-42474919D01*
X177559562Y-42474912D01*
X177559559Y-42474910D01*
X177545462Y-42467253D01*
X177534806Y-42461465D01*
X177527963Y-42457907D01*
X177526573Y-42457184D01*
X177520912Y-42454370D01*
X177520826Y-42454328D01*
X177520734Y-42454282D01*
X177519423Y-42453638D01*
X177518199Y-42453037D01*
X177499717Y-42444086D01*
X177499701Y-42444079D01*
X177499681Y-42444069D01*
X177488603Y-42439026D01*
X177488579Y-42439015D01*
X177474887Y-42433171D01*
X177474875Y-42433166D01*
X177474867Y-42433163D01*
X177445214Y-42422613D01*
X177445199Y-42422608D01*
X177445191Y-42422606D01*
X177433557Y-42419258D01*
X177393901Y-42411186D01*
X177385305Y-42410136D01*
X177381462Y-42409667D01*
X177381460Y-42409666D01*
X177381453Y-42409666D01*
X177356191Y-42407846D01*
X177356190Y-42407845D01*
X177356177Y-42407845D01*
X177356171Y-42407844D01*
X177356139Y-42407843D01*
X177340124Y-42407487D01*
X177333214Y-42407427D01*
X177333197Y-42407427D01*
X177333189Y-42407427D01*
X177324270Y-42407469D01*
X177320693Y-42407487D01*
X177304118Y-42408105D01*
X177244879Y-42412247D01*
X177216842Y-42415775D01*
X177153191Y-42427387D01*
X177153158Y-42427394D01*
X177130087Y-42432720D01*
X177062010Y-42451802D01*
X177043097Y-42457907D01*
X177043091Y-42457909D01*
X177017580Y-42467253D01*
X176970626Y-42484451D01*
X176955145Y-42490702D01*
X176878693Y-42524520D01*
X176876927Y-42525310D01*
X176857777Y-42533938D01*
X176855225Y-42535045D01*
X176834308Y-42543771D01*
X176832385Y-42544550D01*
X176808730Y-42553841D01*
X176806710Y-42554609D01*
X176783974Y-42562971D01*
X176782342Y-42563555D01*
X176778374Y-42564935D01*
X176775578Y-42565924D01*
X176734011Y-42580891D01*
X176727966Y-42583154D01*
X176683934Y-42600277D01*
X176680060Y-42601833D01*
X176678632Y-42602408D01*
X176678609Y-42602417D01*
X176678573Y-42602432D01*
X176634985Y-42620510D01*
X176630463Y-42622449D01*
X176629366Y-42622920D01*
X176629333Y-42622934D01*
X176588672Y-42640941D01*
X176581694Y-42644158D01*
X176556916Y-42656039D01*
X176547965Y-42660331D01*
X176539227Y-42664484D01*
X176536547Y-42665758D01*
X176534164Y-42666852D01*
X176521045Y-42672666D01*
X176519231Y-42673448D01*
X176503694Y-42679966D01*
X176502308Y-42680535D01*
X176498603Y-42682023D01*
X176496103Y-42683043D01*
X176480676Y-42689437D01*
X176473676Y-42692462D01*
X176456953Y-42699989D01*
X176450879Y-42702820D01*
X176437727Y-42709159D01*
X176432260Y-42711796D01*
X176431824Y-42712006D01*
X176427283Y-42714251D01*
X176427259Y-42714262D01*
X176427229Y-42714278D01*
X176424057Y-42715887D01*
X176404933Y-42725587D01*
X176401675Y-42727270D01*
X176375144Y-42741213D01*
X176372998Y-42742353D01*
X176341497Y-42759306D01*
X176341060Y-42759543D01*
X176339979Y-42760130D01*
X176302341Y-42780693D01*
X176302281Y-42780725D01*
X176301575Y-42781112D01*
X176276791Y-42794761D01*
X176275707Y-42795348D01*
X176269796Y-42798506D01*
X176261600Y-42802882D01*
X176201363Y-42813611D01*
X176146323Y-42786886D01*
X176117504Y-42732912D01*
X176116941Y-42701721D01*
X176117082Y-42700726D01*
X176120930Y-42673448D01*
X176121581Y-42668831D01*
X176122071Y-42665719D01*
X176131536Y-42611329D01*
X176132101Y-42608360D01*
X176142872Y-42556276D01*
X176143598Y-42553043D01*
X176154885Y-42506546D01*
X176155911Y-42502671D01*
X176167590Y-42461951D01*
X176168530Y-42458869D01*
X176168840Y-42457909D01*
X176171020Y-42451157D01*
X176172498Y-42446423D01*
X176178883Y-42425242D01*
X176181085Y-42417495D01*
X176188494Y-42389785D01*
X176189684Y-42385162D01*
X176197648Y-42352978D01*
X176198483Y-42349503D01*
X176206533Y-42314903D01*
X176207248Y-42311737D01*
X176214915Y-42276777D01*
X176215650Y-42273313D01*
X176222463Y-42240050D01*
X176223348Y-42235520D01*
X176228839Y-42206009D01*
X176229831Y-42200317D01*
X176232494Y-42183956D01*
X176234465Y-42169117D01*
X176239028Y-42124865D01*
X176240339Y-42094286D01*
X176239687Y-42056188D01*
X176239178Y-42051058D01*
X176237240Y-42031507D01*
X176235574Y-42014699D01*
X176233179Y-42001570D01*
X176229579Y-41981839D01*
X176229533Y-41981678D01*
X176215324Y-41932481D01*
X176203854Y-41903918D01*
X176184783Y-41865919D01*
X176176159Y-41851804D01*
X176149682Y-41815931D01*
X176149676Y-41815924D01*
X176149673Y-41815920D01*
X176149671Y-41815917D01*
X176137563Y-41802202D01*
X176137542Y-41802178D01*
X176131837Y-41795926D01*
X176050592Y-41738153D01*
X176037820Y-41732422D01*
X176037815Y-41732420D01*
X176037808Y-41732417D01*
X176037804Y-41732416D01*
X176001135Y-41719221D01*
X175901707Y-41711981D01*
X175901706Y-41711981D01*
X175901705Y-41711981D01*
X175901704Y-41711981D01*
X175886569Y-41713862D01*
X175886557Y-41713864D01*
X175816862Y-41732815D01*
X175804482Y-41738157D01*
X175804473Y-41738161D01*
X175774840Y-41753307D01*
X175774838Y-41753308D01*
X175765888Y-41758645D01*
X175765885Y-41758647D01*
X175730027Y-41784483D01*
X175729995Y-41784508D01*
X175721982Y-41791409D01*
X175692781Y-41821024D01*
X175692775Y-41821031D01*
X175684395Y-41831043D01*
X175684394Y-41831043D01*
X175669402Y-41850836D01*
X175669397Y-41850843D01*
X175659409Y-41865453D01*
X175653231Y-41874934D01*
X175651807Y-41877229D01*
X175650959Y-41878042D01*
X175621470Y-41926968D01*
X175619813Y-41929752D01*
X175606756Y-41951996D01*
X175603393Y-41957902D01*
X175593513Y-41975794D01*
X175587816Y-41986728D01*
X175580532Y-42001570D01*
X175573046Y-42018316D01*
X175567710Y-42031507D01*
X175560708Y-42051065D01*
X175556637Y-42064079D01*
X175552214Y-42080012D01*
X175548747Y-42094274D01*
X175547027Y-42101853D01*
X175544845Y-42112195D01*
X175544720Y-42112774D01*
X175542120Y-42124684D01*
X175540443Y-42132368D01*
X175540022Y-42134213D01*
X175535341Y-42153846D01*
X175534895Y-42155641D01*
X175530388Y-42173093D01*
X175529927Y-42174815D01*
X175529041Y-42178004D01*
X175528840Y-42178746D01*
X175528288Y-42180781D01*
X175526978Y-42185715D01*
X175524028Y-42196833D01*
X175522880Y-42201318D01*
X175517360Y-42223719D01*
X175516875Y-42225732D01*
X175516823Y-42225949D01*
X175513162Y-42241425D01*
X175510406Y-42253071D01*
X175510115Y-42254314D01*
X175510116Y-42254315D01*
X175503195Y-42284406D01*
X175502903Y-42285690D01*
X175498837Y-42303790D01*
X175495974Y-42316532D01*
X175495701Y-42317757D01*
X175490306Y-42342337D01*
X175488988Y-42348339D01*
X175488689Y-42349722D01*
X175482738Y-42377572D01*
X175482739Y-42377573D01*
X175482254Y-42379883D01*
X175477338Y-42403797D01*
X175476660Y-42407214D01*
X175473809Y-42422095D01*
X175444288Y-42475688D01*
X175388905Y-42501694D01*
X175328812Y-42490179D01*
X175295127Y-42459738D01*
X175294527Y-42458869D01*
X175286150Y-42446744D01*
X175265468Y-42416599D01*
X175265333Y-42416400D01*
X175249176Y-42392615D01*
X175249176Y-42392616D01*
X175249125Y-42392541D01*
X175248439Y-42391535D01*
X175247230Y-42389774D01*
X175214735Y-42342424D01*
X175214716Y-42342397D01*
X175214675Y-42342337D01*
X175212441Y-42339134D01*
X175212392Y-42339065D01*
X175212360Y-42339019D01*
X175178218Y-42290865D01*
X175178200Y-42290840D01*
X175178161Y-42290785D01*
X175175883Y-42287624D01*
X175142057Y-42241425D01*
X175141757Y-42241023D01*
X175139540Y-42238047D01*
X175115256Y-42206009D01*
X175107124Y-42195280D01*
X175104022Y-42191270D01*
X175086528Y-42169117D01*
X175074030Y-42153290D01*
X175074014Y-42153270D01*
X175069717Y-42147975D01*
X175043071Y-42116024D01*
X175039718Y-42112085D01*
X175036948Y-42108897D01*
X175036914Y-42108857D01*
X175036452Y-42108328D01*
X175036452Y-42108327D01*
X174993582Y-42059272D01*
X174993582Y-42059271D01*
X174993391Y-42059054D01*
X174993385Y-42059048D01*
X174955880Y-42016252D01*
X174955819Y-42016182D01*
X174955454Y-42015768D01*
X174955454Y-42015767D01*
X174922885Y-41978792D01*
X174922217Y-41978036D01*
X174922128Y-41977935D01*
X174893974Y-41946233D01*
X174892884Y-41945014D01*
X174868810Y-41918253D01*
X174867140Y-41916415D01*
X174846743Y-41894180D01*
X174845988Y-41893369D01*
X174844199Y-41891447D01*
X174844150Y-41891395D01*
X174827024Y-41873275D01*
X174823020Y-41869134D01*
X174808762Y-41854714D01*
X174808754Y-41854706D01*
X174808738Y-41854690D01*
X174802476Y-41848571D01*
X174790631Y-41837393D01*
X174780532Y-41828358D01*
X174770792Y-41820098D01*
X174754440Y-41807335D01*
X174746369Y-41801548D01*
X174746354Y-41801537D01*
X174720334Y-41785155D01*
X174720329Y-41785152D01*
X174720319Y-41785146D01*
X174715816Y-41782677D01*
X174713499Y-41781406D01*
X174689456Y-41770653D01*
X174675688Y-41764495D01*
X174675685Y-41764494D01*
X174669726Y-41762390D01*
X174669714Y-41762386D01*
X174669704Y-41762383D01*
X174638937Y-41754544D01*
X174625229Y-41751051D01*
X174619695Y-41750161D01*
X174619698Y-41750161D01*
X174619683Y-41750159D01*
X174619674Y-41750158D01*
X174619659Y-41750156D01*
X174588291Y-41747079D01*
X174588284Y-41747078D01*
X174588280Y-41747078D01*
X174588278Y-41747077D01*
X174588256Y-41747076D01*
X174584895Y-41746956D01*
X174584885Y-41746956D01*
X174525284Y-41751813D01*
X174506462Y-41755601D01*
X174506457Y-41755602D01*
X174432886Y-41782677D01*
X174414673Y-41792785D01*
X174358112Y-41835402D01*
X174358097Y-41835414D01*
X174345215Y-41848281D01*
X174308933Y-41893918D01*
X174294995Y-41916282D01*
X174294992Y-41916287D01*
X174294949Y-41916375D01*
X174272660Y-41961538D01*
X174272653Y-41961555D01*
X174264332Y-41983695D01*
X174264330Y-41983700D01*
X174264329Y-41983705D01*
X174259998Y-42001564D01*
X174249722Y-42043931D01*
X174246989Y-42067302D01*
X174246989Y-42067314D01*
X174246768Y-42124684D01*
X174246768Y-42124689D01*
X174249608Y-42150719D01*
X174249611Y-42150736D01*
X174257486Y-42191619D01*
X174257490Y-42191638D01*
X174265886Y-42221753D01*
X174265890Y-42221765D01*
X174270433Y-42235484D01*
X174273567Y-42244950D01*
X174277228Y-42254456D01*
X174285253Y-42275297D01*
X174287308Y-42280465D01*
X174296638Y-42303204D01*
X174297080Y-42304299D01*
X174306488Y-42328031D01*
X174306882Y-42329041D01*
X174315456Y-42351380D01*
X174315868Y-42352471D01*
X174319897Y-42363352D01*
X174319918Y-42363408D01*
X174319921Y-42363415D01*
X174321780Y-42368283D01*
X174331151Y-42392057D01*
X174334677Y-42400549D01*
X174346437Y-42427502D01*
X174349670Y-42434608D01*
X174349687Y-42434645D01*
X174349693Y-42434657D01*
X174361914Y-42460460D01*
X174365255Y-42467253D01*
X174369168Y-42474919D01*
X174369942Y-42476434D01*
X174370359Y-42477261D01*
X174377812Y-42492205D01*
X174378976Y-42494621D01*
X174387517Y-42512975D01*
X174388303Y-42514707D01*
X174397897Y-42536404D01*
X174398642Y-42538134D01*
X174407655Y-42559637D01*
X174408195Y-42560954D01*
X174409310Y-42563727D01*
X174409817Y-42564965D01*
X174410594Y-42566864D01*
X174421798Y-42593738D01*
X174423924Y-42598689D01*
X174434663Y-42622992D01*
X174437810Y-42630113D01*
X174439416Y-42633672D01*
X174444252Y-42644158D01*
X174454469Y-42666314D01*
X174456277Y-42670150D01*
X174463396Y-42684938D01*
X174465009Y-42688287D01*
X174473214Y-42748920D01*
X174444213Y-42802796D01*
X174389083Y-42829336D01*
X174339770Y-42823438D01*
X174332641Y-42820651D01*
X174326736Y-42818427D01*
X174316543Y-42814734D01*
X174304798Y-42810478D01*
X174274762Y-42799420D01*
X174272376Y-42798506D01*
X174238758Y-42785127D01*
X174237018Y-42784415D01*
X174194697Y-42766634D01*
X174193461Y-42766105D01*
X174142677Y-42743927D01*
X174141919Y-42743591D01*
X174101616Y-42725551D01*
X174101616Y-42725552D01*
X174101613Y-42725551D01*
X174101113Y-42725328D01*
X174101115Y-42725328D01*
X174101102Y-42725323D01*
X174079539Y-42715718D01*
X174072517Y-42712590D01*
X174071706Y-42712233D01*
X174070714Y-42711796D01*
X174040093Y-42698445D01*
X174039935Y-42698376D01*
X174039935Y-42698375D01*
X174038611Y-42697804D01*
X174019047Y-42689437D01*
X174008528Y-42684938D01*
X174008436Y-42684899D01*
X174006756Y-42684188D01*
X174006697Y-42684163D01*
X174006552Y-42684102D01*
X173985221Y-42675190D01*
X173980030Y-42673021D01*
X173977770Y-42672091D01*
X173972117Y-42669796D01*
X173965552Y-42667130D01*
X173965151Y-42666966D01*
X173941992Y-42657430D01*
X173940687Y-42656882D01*
X173914825Y-42645798D01*
X173913777Y-42645342D01*
X173894237Y-42636699D01*
X173887394Y-42633672D01*
X173886315Y-42633186D01*
X173864086Y-42623001D01*
X173863831Y-42622884D01*
X173861318Y-42621748D01*
X173829662Y-42607653D01*
X173814737Y-42601564D01*
X173789169Y-42592064D01*
X173761089Y-42583432D01*
X173761082Y-42583430D01*
X173761078Y-42583429D01*
X173740661Y-42578418D01*
X173740658Y-42578417D01*
X173740652Y-42578416D01*
X173690475Y-42571278D01*
X173690465Y-42571277D01*
X173674116Y-42570592D01*
X173674114Y-42570592D01*
X173674111Y-42570592D01*
X173620498Y-42576314D01*
X173599051Y-42578604D01*
X173599049Y-42578604D01*
X173585691Y-42582081D01*
X173585684Y-42582083D01*
X173510205Y-42615507D01*
X173501845Y-42620974D01*
X173498761Y-42622992D01*
X173498756Y-42622995D01*
X173498748Y-42623001D01*
X173469629Y-42645178D01*
X173469617Y-42645188D01*
X173469017Y-42645716D01*
X173469005Y-42645728D01*
X173448662Y-42665797D01*
X173448655Y-42665803D01*
X173440147Y-42675193D01*
X173440146Y-42675193D01*
X173399757Y-42734916D01*
X173394648Y-42745410D01*
X173394645Y-42745418D01*
X173370618Y-42827400D01*
X173370618Y-42827401D01*
X173369179Y-42839632D01*
X173369178Y-42839641D01*
X173371121Y-42912765D01*
X173371122Y-42912771D01*
X173373628Y-42927357D01*
X173386821Y-42975416D01*
X173393552Y-42992999D01*
X173406380Y-43021241D01*
X173406385Y-43021252D01*
X173417607Y-43042437D01*
X173417611Y-43042444D01*
X173427117Y-43058881D01*
X173427749Y-43059885D01*
X173443111Y-43084305D01*
X173449532Y-43094014D01*
X173470564Y-43124294D01*
X173474705Y-43130082D01*
X173501054Y-43165848D01*
X173501092Y-43165900D01*
X173501101Y-43165911D01*
X173503227Y-43168754D01*
X173503269Y-43168810D01*
X173503280Y-43168824D01*
X173523978Y-43196080D01*
X173524054Y-43196180D01*
X173524796Y-43197153D01*
X173549329Y-43229135D01*
X173549330Y-43229135D01*
X173549716Y-43229638D01*
X173570064Y-43256029D01*
X173570792Y-43256969D01*
X173587902Y-43278948D01*
X173587924Y-43278976D01*
X173589173Y-43280568D01*
X173603940Y-43299247D01*
X173605257Y-43300895D01*
X173605588Y-43301309D01*
X173619271Y-43318261D01*
X173621095Y-43320494D01*
X173634588Y-43336830D01*
X173636230Y-43338799D01*
X173645628Y-43349947D01*
X173650604Y-43355850D01*
X173651760Y-43357211D01*
X173667863Y-43376044D01*
X173668463Y-43376745D01*
X173677147Y-43386840D01*
X173677298Y-43387016D01*
X173694996Y-43407687D01*
X173695317Y-43408064D01*
X173713218Y-43429185D01*
X173713499Y-43429517D01*
X173729423Y-43448500D01*
X173729754Y-43448898D01*
X173742302Y-43464061D01*
X173742941Y-43464842D01*
X173749225Y-43472595D01*
X173753989Y-43478302D01*
X173775204Y-43502969D01*
X173777649Y-43505812D01*
X173787258Y-43516373D01*
X173787271Y-43516386D01*
X173787276Y-43516392D01*
X173817414Y-43547711D01*
X173824633Y-43554919D01*
X173861509Y-43590302D01*
X173866966Y-43595388D01*
X173866996Y-43595415D01*
X173866998Y-43595417D01*
X173910811Y-43635055D01*
X173914210Y-43638062D01*
X173915054Y-43638809D01*
X173966119Y-43682986D01*
X173967931Y-43684537D01*
X173968041Y-43684631D01*
X173977383Y-43692543D01*
X173977470Y-43692616D01*
X173977400Y-43692698D01*
X173977475Y-43692818D01*
X173977573Y-43692703D01*
X173977574Y-43692704D01*
X174002247Y-43713558D01*
X174002247Y-43713559D01*
X174026383Y-43733990D01*
X174026424Y-43734056D01*
X174026440Y-43734038D01*
X174047836Y-43752177D01*
X174047910Y-43752240D01*
X174048368Y-43752629D01*
X174067409Y-43768804D01*
X174081284Y-43780626D01*
X174087414Y-43785877D01*
X174088759Y-43787004D01*
X174121215Y-43838869D01*
X174116986Y-43899908D01*
X174077688Y-43946805D01*
X174048279Y-43959147D01*
X174042755Y-43960473D01*
X174041570Y-43960750D01*
X174001606Y-43969825D01*
X174000749Y-43970016D01*
X173952042Y-43980623D01*
X173951597Y-43980719D01*
X173931360Y-43985028D01*
X173926514Y-43986060D01*
X173924902Y-43986409D01*
X173924861Y-43986417D01*
X173924741Y-43986444D01*
X173893522Y-43993300D01*
X173890476Y-43993989D01*
X173856372Y-44001916D01*
X173856306Y-44001931D01*
X173856270Y-44001940D01*
X173855536Y-44002113D01*
X173853848Y-44002514D01*
X173818213Y-44011156D01*
X173816368Y-44011613D01*
X173816151Y-44011667D01*
X173780487Y-44020638D01*
X173780441Y-44020649D01*
X173780289Y-44020688D01*
X173778435Y-44021162D01*
X173744050Y-44030119D01*
X173741783Y-44030720D01*
X173710318Y-44039234D01*
X173707191Y-44040102D01*
X173679846Y-44047860D01*
X173675237Y-44049216D01*
X173653426Y-44055851D01*
X173644278Y-44058822D01*
X173629370Y-44063978D01*
X173618094Y-44068178D01*
X173616891Y-44068658D01*
X173616882Y-44068662D01*
X173571271Y-44092462D01*
X173555497Y-44102838D01*
X173555496Y-44102839D01*
X173494753Y-44158759D01*
X173494747Y-44158765D01*
X173480819Y-44176547D01*
X173450758Y-44224677D01*
X173450218Y-44224339D01*
X173427617Y-44250984D01*
X173406469Y-44267729D01*
X173401054Y-44272136D01*
X173373822Y-44294921D01*
X173366001Y-44301740D01*
X173345201Y-44320628D01*
X173332189Y-44333317D01*
X173318178Y-44347989D01*
X173297849Y-44372093D01*
X173297846Y-44372096D01*
X173292500Y-44379293D01*
X173259746Y-44438355D01*
X173253041Y-44455448D01*
X173253039Y-44455455D01*
X173235640Y-44537498D01*
X173234865Y-44555059D01*
X173234865Y-44555067D01*
X173248211Y-44648557D01*
X173253332Y-44663621D01*
X173253334Y-44663624D01*
X173292292Y-44736609D01*
X173295385Y-44740653D01*
X173336788Y-44783383D01*
X173336790Y-44783385D01*
X173341160Y-44786951D01*
X173350767Y-44794791D01*
X173407546Y-44829875D01*
X173425659Y-44838018D01*
X173425671Y-44838022D01*
X173425674Y-44838023D01*
X173428075Y-44838812D01*
X173476501Y-44854729D01*
X173499557Y-44859707D01*
X173536548Y-44864900D01*
X173565353Y-44866813D01*
X173565386Y-44866813D01*
X173565395Y-44866814D01*
X173573257Y-44866957D01*
X173589875Y-44867262D01*
X173589909Y-44867261D01*
X173589917Y-44867261D01*
X173625238Y-44866211D01*
X173630938Y-44865865D01*
X173640966Y-44865257D01*
X173683690Y-44861341D01*
X173689907Y-44860695D01*
X173695698Y-44860021D01*
X173696989Y-44859867D01*
X173731740Y-44855643D01*
X173734788Y-44855254D01*
X173762783Y-44851509D01*
X173768839Y-44850625D01*
X173791994Y-44846961D01*
X173801415Y-44845289D01*
X173807296Y-44844131D01*
X173821612Y-44841313D01*
X173821624Y-44841310D01*
X173821646Y-44841306D01*
X173832956Y-44838812D01*
X173852177Y-44834114D01*
X173862416Y-44831385D01*
X173882544Y-44825571D01*
X173889348Y-44823503D01*
X173912298Y-44816176D01*
X173915013Y-44815292D01*
X173926401Y-44811514D01*
X173927156Y-44811268D01*
X173949101Y-44804198D01*
X173952460Y-44803181D01*
X173960500Y-44800906D01*
X173972399Y-44798319D01*
X173973604Y-44798134D01*
X173978199Y-44797540D01*
X173986330Y-44796685D01*
X173987261Y-44796593D01*
X174033778Y-44792183D01*
X174035621Y-44791998D01*
X174036232Y-44791938D01*
X174036272Y-44791933D01*
X174036390Y-44791922D01*
X174080258Y-44787307D01*
X174083449Y-44786951D01*
X174121913Y-44782415D01*
X174126204Y-44781872D01*
X174158322Y-44777532D01*
X174165041Y-44776533D01*
X174165076Y-44776527D01*
X174165105Y-44776523D01*
X174189828Y-44772510D01*
X174189829Y-44772509D01*
X174189871Y-44772503D01*
X174198678Y-44770915D01*
X174208110Y-44769043D01*
X174209874Y-44768686D01*
X174225610Y-44765446D01*
X174226580Y-44765252D01*
X174246031Y-44761490D01*
X174246477Y-44761406D01*
X174268455Y-44757345D01*
X174268794Y-44757284D01*
X174280704Y-44755172D01*
X174280924Y-44755134D01*
X174295536Y-44752594D01*
X174303902Y-44751141D01*
X174305917Y-44750791D01*
X174305918Y-44750792D01*
X174315056Y-44749205D01*
X174375622Y-44757881D01*
X174419523Y-44800500D01*
X174430856Y-44851863D01*
X174430121Y-44866063D01*
X174429851Y-44873163D01*
X174428904Y-44912479D01*
X174428830Y-44919110D01*
X174428896Y-44958458D01*
X174429012Y-44965674D01*
X174430131Y-45002764D01*
X174430595Y-45012269D01*
X174432798Y-45044886D01*
X174433863Y-45056614D01*
X174435863Y-45074156D01*
X174438659Y-45092655D01*
X174454866Y-45178440D01*
X174454868Y-45178450D01*
X174454872Y-45178469D01*
X174460568Y-45202294D01*
X174460571Y-45202306D01*
X174460572Y-45202308D01*
X174460575Y-45202319D01*
X174484614Y-45285095D01*
X174492511Y-45308130D01*
X174524006Y-45387456D01*
X174533987Y-45409492D01*
X174533991Y-45409500D01*
X174572572Y-45484948D01*
X174572584Y-45484969D01*
X174584527Y-45505832D01*
X174584541Y-45505855D01*
X174629800Y-45576922D01*
X174629816Y-45576945D01*
X174643669Y-45596589D01*
X174643674Y-45596596D01*
X174643678Y-45596601D01*
X174695252Y-45662869D01*
X174710942Y-45681177D01*
X174714934Y-45685413D01*
X174724138Y-45695180D01*
X174750286Y-45750496D01*
X174738927Y-45810618D01*
X174702472Y-45848296D01*
X174690182Y-45855562D01*
X174690149Y-45855582D01*
X174647583Y-45880725D01*
X174647558Y-45880740D01*
X174599793Y-45908935D01*
X174599771Y-45908948D01*
X174547313Y-45939895D01*
X174547296Y-45939905D01*
X174490314Y-45973506D01*
X174490298Y-45973515D01*
X174429196Y-46009530D01*
X174429183Y-46009538D01*
X174364367Y-46047728D01*
X174364354Y-46047736D01*
X174296068Y-46087957D01*
X174296058Y-46087963D01*
X174224681Y-46129993D01*
X174224668Y-46130000D01*
X174150536Y-46173638D01*
X174150527Y-46173644D01*
X174074022Y-46218667D01*
X173995400Y-46264923D01*
X173995395Y-46264926D01*
X173962744Y-46284133D01*
X173962732Y-46284140D01*
X173881491Y-46331930D01*
X173881214Y-46332095D01*
X173804510Y-46377231D01*
X173804416Y-46377286D01*
X173804370Y-46377313D01*
X173793487Y-46383719D01*
X173728097Y-46422210D01*
X173728070Y-46422226D01*
X173680292Y-46450358D01*
X173654925Y-46465294D01*
X173654760Y-46465391D01*
X173654702Y-46465425D01*
X173584638Y-46506691D01*
X173584583Y-46506725D01*
X173517326Y-46546352D01*
X173517284Y-46546377D01*
X173453369Y-46584050D01*
X173453350Y-46584061D01*
X173394214Y-46618932D01*
X173394177Y-46618954D01*
X173393906Y-46619114D01*
X173352468Y-46643560D01*
X173338356Y-46651885D01*
X173287700Y-46681785D01*
X173287513Y-46681895D01*
X173287450Y-46681932D01*
X173241683Y-46708964D01*
X173241572Y-46709029D01*
X173241478Y-46709086D01*
X173241393Y-46709136D01*
X173200727Y-46733176D01*
X173200623Y-46733238D01*
X173200582Y-46733261D01*
X173165657Y-46753928D01*
X173165658Y-46753929D01*
X173165518Y-46754012D01*
X173165514Y-46754014D01*
X173136463Y-46771234D01*
X173136464Y-46771235D01*
X173136105Y-46771449D01*
X173135990Y-46771517D01*
X173113463Y-46784904D01*
X173113366Y-46784962D01*
X173112926Y-46785222D01*
X173096899Y-46794793D01*
X173095825Y-46795438D01*
X173095741Y-46795490D01*
X173086727Y-46800938D01*
X173086691Y-46800959D01*
X173086678Y-46800968D01*
X173083255Y-46803074D01*
X173081709Y-46804042D01*
X173064285Y-46815987D01*
X173024127Y-46846027D01*
X172997866Y-46868600D01*
X172997860Y-46868606D01*
X172963554Y-46902401D01*
X172939982Y-46929105D01*
X172911873Y-46965822D01*
X172911871Y-46965825D01*
X172891465Y-46996939D01*
X172891463Y-46996941D01*
X172869867Y-47035766D01*
X172869865Y-47035770D01*
X172853393Y-47071668D01*
X172853381Y-47071699D01*
X172838609Y-47111822D01*
X172838609Y-47111823D01*
X172827266Y-47152931D01*
X172819638Y-47193529D01*
X172815246Y-47239594D01*
X172815246Y-47239606D01*
X172815069Y-47279898D01*
X98562009Y-47279898D01*
X98562009Y-46229399D01*
X100118722Y-46229399D01*
X100137762Y-46386214D01*
X100137763Y-46386216D01*
X100176237Y-46487663D01*
X100193780Y-46533921D01*
X100283515Y-46663926D01*
X100283516Y-46663927D01*
X100283517Y-46663928D01*
X100401760Y-46768681D01*
X100541635Y-46842094D01*
X100695015Y-46879898D01*
X100695018Y-46879898D01*
X100852982Y-46879898D01*
X100852985Y-46879898D01*
X101006365Y-46842094D01*
X101146240Y-46768681D01*
X101264483Y-46663928D01*
X101278542Y-46643560D01*
X101327158Y-46606410D01*
X101360018Y-46600798D01*
X148639435Y-46600798D01*
X148639436Y-46600798D01*
X148702581Y-46583878D01*
X148734938Y-46575208D01*
X148820562Y-46525773D01*
X148890475Y-46455860D01*
X150185874Y-45160461D01*
X150185875Y-45160460D01*
X150235310Y-45074836D01*
X150260900Y-44979333D01*
X150260900Y-44313643D01*
X150279807Y-44255452D01*
X150289896Y-44243639D01*
X152027717Y-42505818D01*
X152027718Y-42505818D01*
X152068802Y-42434657D01*
X152077153Y-42420193D01*
X152096448Y-42348182D01*
X152102743Y-42324691D01*
X152102743Y-42225819D01*
X152102743Y-42135348D01*
X152121650Y-42077157D01*
X152136088Y-42061250D01*
X152217726Y-41988928D01*
X152219608Y-41986201D01*
X158145522Y-41986201D01*
X158164562Y-42143016D01*
X158164563Y-42143018D01*
X158194421Y-42221748D01*
X158220580Y-42290723D01*
X158310315Y-42420728D01*
X158310316Y-42420729D01*
X158310317Y-42420730D01*
X158428560Y-42525483D01*
X158568435Y-42598896D01*
X158721815Y-42636700D01*
X158721818Y-42636700D01*
X158879782Y-42636700D01*
X158879785Y-42636700D01*
X159033165Y-42598896D01*
X159173040Y-42525483D01*
X159291283Y-42420730D01*
X159381020Y-42290723D01*
X159437037Y-42143018D01*
X159454212Y-42001570D01*
X159456078Y-41986201D01*
X159456078Y-41986200D01*
X159453083Y-41961538D01*
X159449513Y-41932140D01*
X159461267Y-41872098D01*
X159477783Y-41850208D01*
X160281057Y-41046934D01*
X160322944Y-41023791D01*
X160322510Y-41022550D01*
X160361085Y-41009051D01*
X160487390Y-40964856D01*
X160630590Y-40874877D01*
X160750177Y-40755290D01*
X160840156Y-40612090D01*
X160867341Y-40534400D01*
X161209839Y-40534400D01*
X161250651Y-40668938D01*
X161250652Y-40668940D01*
X161343502Y-40842652D01*
X161343506Y-40842658D01*
X161468468Y-40994923D01*
X161468476Y-40994931D01*
X161620741Y-41119893D01*
X161620747Y-41119897D01*
X161794459Y-41212747D01*
X161794464Y-41212749D01*
X161928999Y-41253560D01*
X161929000Y-41253560D01*
X162429000Y-41253560D01*
X162563535Y-41212749D01*
X162563540Y-41212747D01*
X162737252Y-41119897D01*
X162737258Y-41119893D01*
X162889523Y-40994931D01*
X162889531Y-40994923D01*
X163014493Y-40842658D01*
X163014497Y-40842652D01*
X163107347Y-40668940D01*
X163107348Y-40668938D01*
X163148161Y-40534400D01*
X162429001Y-40534400D01*
X162429000Y-40534401D01*
X162429000Y-41253560D01*
X161929000Y-41253560D01*
X161929000Y-40534401D01*
X161928999Y-40534400D01*
X161209839Y-40534400D01*
X160867341Y-40534400D01*
X160896013Y-40452459D01*
X160899070Y-40425330D01*
X160914949Y-40284404D01*
X160914949Y-40284395D01*
X160896014Y-40116346D01*
X160896011Y-40116334D01*
X160867341Y-40034400D01*
X161209839Y-40034400D01*
X161928999Y-40034400D01*
X161929000Y-40034399D01*
X161929000Y-39315238D01*
X162429000Y-39315238D01*
X162429000Y-40034399D01*
X162429001Y-40034400D01*
X163148161Y-40034400D01*
X163107348Y-39899861D01*
X163107347Y-39899859D01*
X163014497Y-39726147D01*
X163014493Y-39726141D01*
X162889531Y-39573876D01*
X162889523Y-39573868D01*
X162737258Y-39448906D01*
X162737252Y-39448902D01*
X162563540Y-39356052D01*
X162563538Y-39356051D01*
X162429000Y-39315238D01*
X161929000Y-39315238D01*
X161794461Y-39356051D01*
X161794459Y-39356052D01*
X161620747Y-39448902D01*
X161620741Y-39448906D01*
X161468476Y-39573868D01*
X161468468Y-39573876D01*
X161343506Y-39726141D01*
X161343502Y-39726147D01*
X161250652Y-39899859D01*
X161250651Y-39899861D01*
X161209839Y-40034400D01*
X160867341Y-40034400D01*
X160855188Y-39999670D01*
X160840156Y-39956710D01*
X160786823Y-39871832D01*
X160750179Y-39813513D01*
X160750178Y-39813512D01*
X160750177Y-39813510D01*
X160630590Y-39693923D01*
X160630587Y-39693921D01*
X160630586Y-39693920D01*
X160487391Y-39603944D01*
X160327765Y-39548088D01*
X160327753Y-39548085D01*
X160159704Y-39529151D01*
X160159696Y-39529151D01*
X159991646Y-39548085D01*
X159991634Y-39548088D01*
X159832009Y-39603944D01*
X159832008Y-39603944D01*
X159688813Y-39693920D01*
X159569220Y-39813513D01*
X159479244Y-39956708D01*
X159479244Y-39956709D01*
X159423388Y-40116334D01*
X159423385Y-40116346D01*
X159404451Y-40284395D01*
X159404451Y-40284404D01*
X159423385Y-40452453D01*
X159423388Y-40452465D01*
X159479244Y-40612090D01*
X159481659Y-40617106D01*
X159479608Y-40618093D01*
X159492269Y-40668383D01*
X159469478Y-40725165D01*
X159463499Y-40731705D01*
X158888503Y-41306703D01*
X158833986Y-41334481D01*
X158818499Y-41335700D01*
X158721812Y-41335700D01*
X158568435Y-41373503D01*
X158428558Y-41446918D01*
X158310315Y-41551671D01*
X158220580Y-41681676D01*
X158164563Y-41829382D01*
X158164562Y-41829383D01*
X158145522Y-41986198D01*
X158145522Y-41986201D01*
X152219608Y-41986201D01*
X152307463Y-41858921D01*
X152363480Y-41711216D01*
X152382521Y-41554398D01*
X152381872Y-41549056D01*
X152363480Y-41397581D01*
X152363480Y-41397580D01*
X152307463Y-41249875D01*
X152217746Y-41119897D01*
X152217727Y-41119869D01*
X152155630Y-41064856D01*
X152099483Y-41015115D01*
X151977707Y-40951201D01*
X152690922Y-40951201D01*
X152709962Y-41108016D01*
X152709963Y-41108018D01*
X152749681Y-41212747D01*
X152765980Y-41255723D01*
X152855715Y-41385728D01*
X152855716Y-41385729D01*
X152855717Y-41385730D01*
X152973960Y-41490483D01*
X153113835Y-41563896D01*
X153267215Y-41601700D01*
X153267218Y-41601700D01*
X153425182Y-41601700D01*
X153425185Y-41601700D01*
X153578565Y-41563896D01*
X153718440Y-41490483D01*
X153836683Y-41385730D01*
X153926420Y-41255723D01*
X153982437Y-41108018D01*
X154001478Y-40951200D01*
X153997663Y-40919788D01*
X154009417Y-40859747D01*
X154025934Y-40837856D01*
X154124496Y-40739296D01*
X154179013Y-40711519D01*
X154194499Y-40710300D01*
X157466938Y-40710300D01*
X157525129Y-40729207D01*
X157545876Y-40751400D01*
X157546454Y-40750940D01*
X157549920Y-40755286D01*
X157549923Y-40755290D01*
X157669510Y-40874877D01*
X157669512Y-40874878D01*
X157669513Y-40874879D01*
X157790976Y-40951200D01*
X157812710Y-40964856D01*
X157876632Y-40987223D01*
X157972334Y-41020711D01*
X157972338Y-41020712D01*
X157972341Y-41020713D01*
X157972342Y-41020713D01*
X157972346Y-41020714D01*
X158140396Y-41039649D01*
X158140400Y-41039649D01*
X158140404Y-41039649D01*
X158308453Y-41020714D01*
X158308455Y-41020713D01*
X158308459Y-41020713D01*
X158468090Y-40964856D01*
X158611290Y-40874877D01*
X158730877Y-40755290D01*
X158820856Y-40612090D01*
X158876713Y-40452459D01*
X158879770Y-40425330D01*
X158895649Y-40284404D01*
X158895649Y-40284395D01*
X158876714Y-40116346D01*
X158876711Y-40116334D01*
X158835888Y-39999670D01*
X158820856Y-39956710D01*
X158767523Y-39871832D01*
X158730879Y-39813513D01*
X158730878Y-39813512D01*
X158730877Y-39813510D01*
X158611290Y-39693923D01*
X158611287Y-39693921D01*
X158611286Y-39693920D01*
X158468091Y-39603944D01*
X158308465Y-39548088D01*
X158308453Y-39548085D01*
X158140404Y-39529151D01*
X158140396Y-39529151D01*
X157972346Y-39548085D01*
X157972334Y-39548088D01*
X157812709Y-39603944D01*
X157812708Y-39603944D01*
X157669513Y-39693920D01*
X157549918Y-39813515D01*
X157518843Y-39862972D01*
X157471875Y-39902184D01*
X157435018Y-39909300D01*
X154046406Y-39909300D01*
X154046390Y-39909299D01*
X154040327Y-39909299D01*
X153934873Y-39909299D01*
X153934870Y-39909299D01*
X153835838Y-39935836D01*
X153833968Y-39936337D01*
X153833008Y-39936594D01*
X153741687Y-39989319D01*
X153667119Y-40063886D01*
X153667120Y-40063887D01*
X153667118Y-40063889D01*
X153459301Y-40271704D01*
X153404786Y-40299481D01*
X153389299Y-40300700D01*
X153267212Y-40300700D01*
X153113835Y-40338503D01*
X152973958Y-40411918D01*
X152855715Y-40516671D01*
X152765980Y-40646676D01*
X152709963Y-40794382D01*
X152709962Y-40794383D01*
X152690922Y-40951198D01*
X152690922Y-40951201D01*
X151977707Y-40951201D01*
X151977705Y-40951200D01*
X151959607Y-40941701D01*
X151806230Y-40903898D01*
X151806228Y-40903898D01*
X151648258Y-40903898D01*
X151648255Y-40903898D01*
X151494878Y-40941701D01*
X151355001Y-41015116D01*
X151236758Y-41119869D01*
X151147023Y-41249874D01*
X151091006Y-41397580D01*
X151091005Y-41397581D01*
X151071965Y-41554396D01*
X151071965Y-41554399D01*
X151091005Y-41711214D01*
X151091006Y-41711216D01*
X151147023Y-41858921D01*
X151236758Y-41988926D01*
X151236759Y-41988927D01*
X151236760Y-41988928D01*
X151288359Y-42034639D01*
X151319377Y-42087378D01*
X151313473Y-42148278D01*
X151292714Y-42178746D01*
X149654838Y-43816623D01*
X149654837Y-43816622D01*
X149584924Y-43886536D01*
X149535491Y-43972157D01*
X149535488Y-43972163D01*
X149527517Y-44001916D01*
X149527360Y-44002503D01*
X149513066Y-44055851D01*
X149513065Y-44055853D01*
X149513064Y-44055856D01*
X149509900Y-44067662D01*
X149509900Y-44733353D01*
X149490993Y-44791544D01*
X149480904Y-44803357D01*
X148463459Y-45820802D01*
X148408942Y-45848579D01*
X148393455Y-45849798D01*
X101354358Y-45849798D01*
X101296167Y-45830891D01*
X101272882Y-45807036D01*
X101264484Y-45794869D01*
X101251577Y-45783434D01*
X101146240Y-45690115D01*
X101076302Y-45653408D01*
X101006364Y-45616701D01*
X100852987Y-45578898D01*
X100852985Y-45578898D01*
X100695015Y-45578898D01*
X100695012Y-45578898D01*
X100541635Y-45616701D01*
X100401758Y-45690116D01*
X100283515Y-45794869D01*
X100193780Y-45924874D01*
X100137763Y-46072580D01*
X100137762Y-46072581D01*
X100118722Y-46229396D01*
X100118722Y-46229399D01*
X98562009Y-46229399D01*
X98562009Y-43050616D01*
X100118722Y-43050616D01*
X100137762Y-43207431D01*
X100137763Y-43207433D01*
X100183213Y-43327275D01*
X100193780Y-43355138D01*
X100283515Y-43485143D01*
X100283516Y-43485144D01*
X100283517Y-43485145D01*
X100401760Y-43589898D01*
X100541635Y-43663311D01*
X100695015Y-43701115D01*
X100695018Y-43701115D01*
X100852982Y-43701115D01*
X100852985Y-43701115D01*
X101006365Y-43663311D01*
X101146240Y-43589898D01*
X101264483Y-43485145D01*
X101278542Y-43464777D01*
X101327158Y-43427627D01*
X101360018Y-43422015D01*
X148639436Y-43422015D01*
X148692146Y-43407891D01*
X148692147Y-43407891D01*
X148734934Y-43396426D01*
X148734933Y-43396426D01*
X148734938Y-43396425D01*
X148820562Y-43346990D01*
X148890475Y-43277077D01*
X150185874Y-41981678D01*
X150185875Y-41981677D01*
X150235310Y-41896053D01*
X150251560Y-41835408D01*
X150260900Y-41800551D01*
X150260900Y-41701679D01*
X150260900Y-41134860D01*
X150279807Y-41076669D01*
X150289896Y-41064856D01*
X151151790Y-40202962D01*
X152027717Y-39327035D01*
X152032392Y-39318938D01*
X152034529Y-39315238D01*
X152077151Y-39241414D01*
X152077151Y-39241412D01*
X152077153Y-39241410D01*
X152102743Y-39145907D01*
X152102743Y-38956565D01*
X152121650Y-38898374D01*
X152136088Y-38882467D01*
X152217726Y-38810145D01*
X152307463Y-38680138D01*
X152363480Y-38532433D01*
X152382521Y-38375615D01*
X152363480Y-38218797D01*
X152307463Y-38071092D01*
X152217726Y-37941085D01*
X152099483Y-37836332D01*
X152004949Y-37786716D01*
X151959607Y-37762918D01*
X151806230Y-37725115D01*
X151806228Y-37725115D01*
X151648258Y-37725115D01*
X151648255Y-37725115D01*
X151494878Y-37762918D01*
X151355001Y-37836333D01*
X151236758Y-37941086D01*
X151147023Y-38071091D01*
X151091006Y-38218797D01*
X151091005Y-38218798D01*
X151071965Y-38375613D01*
X151071965Y-38375616D01*
X151091005Y-38532431D01*
X151091006Y-38532432D01*
X151147023Y-38680138D01*
X151236758Y-38810143D01*
X151236759Y-38810144D01*
X151236760Y-38810145D01*
X151288359Y-38855856D01*
X151319377Y-38908595D01*
X151313473Y-38969495D01*
X151292714Y-38999963D01*
X149654838Y-40637840D01*
X149654837Y-40637839D01*
X149584924Y-40707753D01*
X149535491Y-40793372D01*
X149509900Y-40888881D01*
X149509900Y-41554570D01*
X149490993Y-41612761D01*
X149480904Y-41624574D01*
X148463459Y-42642019D01*
X148408942Y-42669796D01*
X148393455Y-42671015D01*
X101354358Y-42671015D01*
X101296167Y-42652108D01*
X101272882Y-42628253D01*
X101264484Y-42616086D01*
X101263831Y-42615507D01*
X101146240Y-42511332D01*
X101052228Y-42461990D01*
X101006364Y-42437918D01*
X100852987Y-42400115D01*
X100852985Y-42400115D01*
X100695015Y-42400115D01*
X100695012Y-42400115D01*
X100541635Y-42437918D01*
X100401758Y-42511333D01*
X100283515Y-42616086D01*
X100193780Y-42746091D01*
X100137763Y-42893797D01*
X100137762Y-42893798D01*
X100118722Y-43050613D01*
X100118722Y-43050616D01*
X98562009Y-43050616D01*
X98562009Y-41306703D01*
X98562009Y-39871833D01*
X100118722Y-39871833D01*
X100137762Y-40028648D01*
X100137763Y-40028650D01*
X100170367Y-40114619D01*
X100193780Y-40176355D01*
X100283515Y-40306360D01*
X100283516Y-40306361D01*
X100283517Y-40306362D01*
X100401760Y-40411115D01*
X100541635Y-40484528D01*
X100695015Y-40522332D01*
X100695018Y-40522332D01*
X100852982Y-40522332D01*
X100852985Y-40522332D01*
X101006365Y-40484528D01*
X101146240Y-40411115D01*
X101264483Y-40306362D01*
X101278542Y-40285994D01*
X101327158Y-40248844D01*
X101360018Y-40243232D01*
X148639435Y-40243232D01*
X148639436Y-40243232D01*
X148693695Y-40228693D01*
X148734938Y-40217642D01*
X148820562Y-40168207D01*
X148890475Y-40098294D01*
X150185874Y-38802895D01*
X150185875Y-38802894D01*
X150235310Y-38717270D01*
X150260900Y-38621767D01*
X150260900Y-37956077D01*
X150279807Y-37897886D01*
X150289896Y-37886073D01*
X152027717Y-36148252D01*
X152027718Y-36148252D01*
X152077151Y-36062630D01*
X152077150Y-36062630D01*
X152077153Y-36062627D01*
X152094594Y-35997536D01*
X152102743Y-35967125D01*
X152102743Y-35868253D01*
X152102743Y-35777782D01*
X152121650Y-35719591D01*
X152136088Y-35703684D01*
X152217726Y-35631362D01*
X152307463Y-35501355D01*
X152363480Y-35353650D01*
X152379680Y-35220231D01*
X152382521Y-35196833D01*
X152382521Y-35196830D01*
X152363480Y-35040015D01*
X152363480Y-35040014D01*
X152307463Y-34892309D01*
X152246466Y-34803939D01*
X152217727Y-34762303D01*
X152206389Y-34752258D01*
X152099483Y-34657549D01*
X152026464Y-34619225D01*
X151959607Y-34584135D01*
X151806230Y-34546332D01*
X151806228Y-34546332D01*
X151648258Y-34546332D01*
X151648255Y-34546332D01*
X151494878Y-34584135D01*
X151355001Y-34657550D01*
X151236758Y-34762303D01*
X151147023Y-34892308D01*
X151091006Y-35040014D01*
X151091005Y-35040015D01*
X151071965Y-35196830D01*
X151071965Y-35196833D01*
X151091005Y-35353648D01*
X151091006Y-35353650D01*
X151095690Y-35366000D01*
X151147023Y-35501355D01*
X151236758Y-35631360D01*
X151236759Y-35631361D01*
X151236760Y-35631362D01*
X151288359Y-35677073D01*
X151319377Y-35729812D01*
X151313473Y-35790712D01*
X151292714Y-35821180D01*
X149654838Y-37459057D01*
X149654837Y-37459056D01*
X149584924Y-37528970D01*
X149535491Y-37614589D01*
X149509900Y-37710098D01*
X149509900Y-38375787D01*
X149490993Y-38433978D01*
X149480904Y-38445791D01*
X148463459Y-39463236D01*
X148408942Y-39491013D01*
X148393455Y-39492232D01*
X101354358Y-39492232D01*
X101296167Y-39473325D01*
X101272882Y-39449470D01*
X101264484Y-39437303D01*
X101205972Y-39385466D01*
X101146240Y-39332549D01*
X101034120Y-39273703D01*
X101006364Y-39259135D01*
X100852987Y-39221332D01*
X100852985Y-39221332D01*
X100695015Y-39221332D01*
X100695012Y-39221332D01*
X100541635Y-39259135D01*
X100401758Y-39332550D01*
X100283515Y-39437303D01*
X100193780Y-39567308D01*
X100137763Y-39715014D01*
X100137762Y-39715015D01*
X100118722Y-39871830D01*
X100118722Y-39871833D01*
X98562009Y-39871833D01*
X98562010Y-36693050D01*
X100118722Y-36693050D01*
X100137762Y-36849865D01*
X100137763Y-36849867D01*
X100190690Y-36989424D01*
X100193780Y-36997572D01*
X100283515Y-37127577D01*
X100283516Y-37127578D01*
X100283517Y-37127579D01*
X100401760Y-37232332D01*
X100541635Y-37305745D01*
X100695015Y-37343549D01*
X100695018Y-37343549D01*
X100852982Y-37343549D01*
X100852985Y-37343549D01*
X101006365Y-37305745D01*
X101146240Y-37232332D01*
X101264483Y-37127579D01*
X101278542Y-37107211D01*
X101327158Y-37070061D01*
X101360018Y-37064449D01*
X148639435Y-37064449D01*
X148639436Y-37064449D01*
X148691445Y-37050513D01*
X148734938Y-37038859D01*
X148820562Y-36989424D01*
X148890475Y-36919511D01*
X150185874Y-35624112D01*
X150193539Y-35610836D01*
X150235310Y-35538487D01*
X150243157Y-35509201D01*
X150257395Y-35456068D01*
X150257395Y-35456065D01*
X150260900Y-35442985D01*
X150260900Y-35344113D01*
X150260900Y-35096145D01*
X150279807Y-35037954D01*
X150289896Y-35026141D01*
X151147908Y-34168129D01*
X151202425Y-34140352D01*
X151217912Y-34139133D01*
X155551817Y-34139133D01*
X155610008Y-34158040D01*
X155633292Y-34181895D01*
X155657195Y-34216525D01*
X155657197Y-34216527D01*
X155657199Y-34216529D01*
X155657200Y-34216530D01*
X155775443Y-34321283D01*
X155915318Y-34394696D01*
X156068698Y-34432500D01*
X156068701Y-34432500D01*
X156226665Y-34432500D01*
X156226668Y-34432500D01*
X156380048Y-34394696D01*
X156519923Y-34321283D01*
X156638166Y-34216530D01*
X156727903Y-34086523D01*
X156783920Y-33938818D01*
X156802961Y-33782000D01*
X156783920Y-33625182D01*
X156727903Y-33477477D01*
X156645054Y-33357449D01*
X156638167Y-33347471D01*
X156638158Y-33347463D01*
X156581537Y-33297302D01*
X156550519Y-33244563D01*
X156556424Y-33183664D01*
X156581537Y-33149098D01*
X156638166Y-33098930D01*
X156727903Y-32968923D01*
X156783920Y-32821218D01*
X156802961Y-32664400D01*
X156783920Y-32507582D01*
X156727903Y-32359877D01*
X156638166Y-32229870D01*
X156568051Y-32167754D01*
X156537032Y-32115014D01*
X156534700Y-32093651D01*
X156534700Y-30200601D01*
X157018519Y-30200601D01*
X157037559Y-30357416D01*
X157037560Y-30357418D01*
X157080279Y-30470060D01*
X157093577Y-30505123D01*
X157183312Y-30635128D01*
X157183313Y-30635129D01*
X157183314Y-30635130D01*
X157264946Y-30707448D01*
X157295964Y-30760186D01*
X157298297Y-30781550D01*
X157298297Y-32831432D01*
X157323887Y-32926935D01*
X157367684Y-33002793D01*
X157373323Y-33012560D01*
X166323525Y-41962762D01*
X166323524Y-41962762D01*
X166393438Y-42032675D01*
X166479058Y-42082108D01*
X166479056Y-42082108D01*
X166479060Y-42082109D01*
X166479062Y-42082110D01*
X166524492Y-42094283D01*
X166574564Y-42107700D01*
X166574565Y-42107700D01*
X173607635Y-42107700D01*
X173607636Y-42107700D01*
X173657708Y-42094283D01*
X173703138Y-42082110D01*
X173788762Y-42032675D01*
X173858675Y-41962762D01*
X173858674Y-41962762D01*
X174472142Y-41349296D01*
X174526658Y-41321519D01*
X174542145Y-41320300D01*
X174647426Y-41320300D01*
X174705617Y-41339207D01*
X174717423Y-41349290D01*
X174827210Y-41459077D01*
X174970410Y-41549056D01*
X175012821Y-41563896D01*
X175130034Y-41604911D01*
X175130038Y-41604912D01*
X175130041Y-41604913D01*
X175130042Y-41604913D01*
X175130046Y-41604914D01*
X175298096Y-41623849D01*
X175298100Y-41623849D01*
X175298104Y-41623849D01*
X175466153Y-41604914D01*
X175466155Y-41604913D01*
X175466159Y-41604913D01*
X175625790Y-41549056D01*
X175768990Y-41459077D01*
X175888577Y-41339490D01*
X175978556Y-41196290D01*
X176034413Y-41036659D01*
X176036210Y-41020711D01*
X176053349Y-40868604D01*
X176053349Y-40868595D01*
X176034414Y-40700546D01*
X176034411Y-40700534D01*
X175988490Y-40569300D01*
X175978556Y-40540910D01*
X175978554Y-40540908D01*
X175978554Y-40540905D01*
X175952582Y-40499572D01*
X175937631Y-40440241D01*
X175960410Y-40383454D01*
X176012217Y-40350901D01*
X176036407Y-40347900D01*
X177221636Y-40347900D01*
X177269386Y-40335105D01*
X177269387Y-40335105D01*
X177317134Y-40322311D01*
X177317133Y-40322311D01*
X177317138Y-40322310D01*
X177402762Y-40272875D01*
X177472675Y-40202962D01*
X178271074Y-39404563D01*
X178271075Y-39404562D01*
X178304445Y-39346764D01*
X178320508Y-39318942D01*
X178320508Y-39318940D01*
X178320510Y-39318938D01*
X178346100Y-39223435D01*
X178346100Y-33407550D01*
X178346100Y-33407548D01*
X178344710Y-33402362D01*
X178344708Y-33402357D01*
X178330001Y-33347471D01*
X178320510Y-33312048D01*
X178320510Y-33312047D01*
X178320510Y-33312046D01*
X178271075Y-33226423D01*
X178201162Y-33156509D01*
X178201162Y-33156510D01*
X177383178Y-32338526D01*
X177383178Y-32338525D01*
X177297556Y-32289091D01*
X177297549Y-32289088D01*
X177249800Y-32276294D01*
X177249799Y-32276294D01*
X177202053Y-32263500D01*
X177202051Y-32263500D01*
X177202050Y-32263500D01*
X174776036Y-32263500D01*
X174677164Y-32263500D01*
X174629412Y-32276295D01*
X174581662Y-32289089D01*
X174496034Y-32338527D01*
X174055957Y-32778604D01*
X174001441Y-32806381D01*
X173985954Y-32807600D01*
X173835577Y-32807600D01*
X173683687Y-32845038D01*
X173683684Y-32845039D01*
X173545162Y-32917741D01*
X173545161Y-32917741D01*
X173428068Y-33021477D01*
X173428068Y-33021478D01*
X173360276Y-33119693D01*
X173311659Y-33156843D01*
X173250492Y-33158321D01*
X173200137Y-33123564D01*
X173197324Y-33119693D01*
X173129531Y-33021478D01*
X173129531Y-33021477D01*
X173012437Y-32917741D01*
X172873915Y-32845039D01*
X172873912Y-32845038D01*
X172722022Y-32807600D01*
X172722020Y-32807600D01*
X172565580Y-32807600D01*
X172565577Y-32807600D01*
X172413687Y-32845038D01*
X172413684Y-32845039D01*
X172275162Y-32917741D01*
X172275161Y-32917741D01*
X172258540Y-32932466D01*
X172202445Y-32956899D01*
X172142702Y-32943694D01*
X172102130Y-32897894D01*
X172095796Y-32877673D01*
X172093030Y-32863766D01*
X172090940Y-32853258D01*
X172034721Y-32717533D01*
X172034721Y-32717532D01*
X172014385Y-32687098D01*
X171953101Y-32595380D01*
X171849220Y-32491499D01*
X171727069Y-32409880D01*
X171727068Y-32409879D01*
X171727066Y-32409878D01*
X171591342Y-32353660D01*
X171447257Y-32325000D01*
X171447255Y-32325000D01*
X171300345Y-32325000D01*
X171300342Y-32325000D01*
X171156258Y-32353660D01*
X171156256Y-32353660D01*
X171020533Y-32409878D01*
X171020532Y-32409878D01*
X170898380Y-32491499D01*
X170898376Y-32491502D01*
X170794502Y-32595376D01*
X170794499Y-32595380D01*
X170712878Y-32717532D01*
X170712878Y-32717533D01*
X170656660Y-32853256D01*
X170656660Y-32853258D01*
X170628000Y-32997342D01*
X170628000Y-33144257D01*
X170656660Y-33288341D01*
X170656660Y-33288343D01*
X170712878Y-33424066D01*
X170712878Y-33424067D01*
X170753549Y-33484934D01*
X170794499Y-33546220D01*
X170898380Y-33650101D01*
X171020531Y-33731720D01*
X171156258Y-33787940D01*
X171300345Y-33816600D01*
X171300347Y-33816600D01*
X171447253Y-33816600D01*
X171447255Y-33816600D01*
X171591342Y-33787940D01*
X171727069Y-33731720D01*
X171849220Y-33650101D01*
X171872042Y-33627279D01*
X171926558Y-33599500D01*
X171986990Y-33609070D01*
X172030256Y-33652334D01*
X172034609Y-33662165D01*
X172069200Y-33753373D01*
X172143980Y-33861712D01*
X172158068Y-33882121D01*
X172167015Y-33890047D01*
X172170674Y-33893289D01*
X172174335Y-33899513D01*
X172174702Y-33899147D01*
X172614804Y-34339249D01*
X172642581Y-34393766D01*
X172643800Y-34409253D01*
X172643800Y-34721800D01*
X172758345Y-34721800D01*
X172816536Y-34740707D01*
X172852500Y-34790207D01*
X172852500Y-34851393D01*
X172828348Y-34890804D01*
X172713802Y-35005349D01*
X172659286Y-35033126D01*
X172598854Y-35023554D01*
X172573795Y-35005349D01*
X171860155Y-34291710D01*
X171822871Y-34356287D01*
X171822865Y-34356302D01*
X171820086Y-34364853D01*
X171784119Y-34414350D01*
X171725927Y-34433253D01*
X171688049Y-34425717D01*
X171591342Y-34385660D01*
X171447257Y-34357000D01*
X171447255Y-34357000D01*
X171300345Y-34357000D01*
X171300342Y-34357000D01*
X171156258Y-34385660D01*
X171156256Y-34385660D01*
X171020533Y-34441878D01*
X171020532Y-34441878D01*
X170898380Y-34523499D01*
X170898376Y-34523502D01*
X170794502Y-34627376D01*
X170794499Y-34627380D01*
X170712878Y-34749532D01*
X170712878Y-34749533D01*
X170656660Y-34885256D01*
X170656660Y-34885258D01*
X170628000Y-35029342D01*
X170628000Y-35176257D01*
X170656660Y-35320341D01*
X170656660Y-35320343D01*
X170712878Y-35456066D01*
X170712878Y-35456067D01*
X170742256Y-35500033D01*
X170794499Y-35578220D01*
X170794500Y-35578221D01*
X170794502Y-35578223D01*
X170813922Y-35597643D01*
X170841699Y-35652160D01*
X170832128Y-35712592D01*
X170788863Y-35755857D01*
X170743918Y-35766647D01*
X167700431Y-35766647D01*
X167642240Y-35747740D01*
X167606276Y-35698240D01*
X167603239Y-35679065D01*
X167602153Y-35679197D01*
X167582390Y-35516436D01*
X167582390Y-35516435D01*
X167526373Y-35368730D01*
X167448465Y-35255860D01*
X167436637Y-35238724D01*
X167415763Y-35220231D01*
X167318393Y-35133970D01*
X167205408Y-35074670D01*
X167178517Y-35060556D01*
X167025140Y-35022753D01*
X167025138Y-35022753D01*
X166867168Y-35022753D01*
X166867165Y-35022753D01*
X166713788Y-35060556D01*
X166573911Y-35133971D01*
X166455668Y-35238724D01*
X166365933Y-35368729D01*
X166309916Y-35516435D01*
X166309915Y-35516436D01*
X166290875Y-35673251D01*
X166290875Y-35673254D01*
X166309915Y-35830069D01*
X166309916Y-35830071D01*
X166361894Y-35967125D01*
X166365933Y-35977776D01*
X166455668Y-36107781D01*
X166455669Y-36107782D01*
X166455670Y-36107783D01*
X166516985Y-36162103D01*
X166520056Y-36164823D01*
X166551075Y-36217563D01*
X166545170Y-36278463D01*
X166520054Y-36313031D01*
X166507823Y-36323866D01*
X166451728Y-36348299D01*
X166391984Y-36335094D01*
X166376527Y-36323864D01*
X166325279Y-36278463D01*
X166310440Y-36265317D01*
X166219454Y-36217563D01*
X166170564Y-36191903D01*
X166017187Y-36154100D01*
X166017185Y-36154100D01*
X165859215Y-36154100D01*
X165859212Y-36154100D01*
X165705835Y-36191903D01*
X165565958Y-36265318D01*
X165483311Y-36338536D01*
X165427216Y-36362971D01*
X165367472Y-36349768D01*
X165352013Y-36338536D01*
X165323695Y-36313449D01*
X165269365Y-36265317D01*
X165178379Y-36217563D01*
X165129489Y-36191903D01*
X164976112Y-36154100D01*
X164976110Y-36154100D01*
X164818670Y-36154100D01*
X164760479Y-36135193D01*
X164748666Y-36125104D01*
X162589296Y-33965734D01*
X162561519Y-33911217D01*
X162560300Y-33895730D01*
X162560300Y-24489812D01*
X162579207Y-24431621D01*
X162593652Y-24415709D01*
X162602201Y-24408136D01*
X162669483Y-24348530D01*
X162759220Y-24218523D01*
X162815237Y-24070818D01*
X162830190Y-23947666D01*
X162834278Y-23914001D01*
X162834278Y-23913998D01*
X162815237Y-23757183D01*
X162815237Y-23757182D01*
X162793022Y-23698605D01*
X162790066Y-23637491D01*
X162823597Y-23586312D01*
X162880806Y-23564616D01*
X162885589Y-23564500D01*
X163074735Y-23564500D01*
X163132926Y-23583407D01*
X163140378Y-23589392D01*
X163208670Y-23649892D01*
X163239688Y-23702630D01*
X163242021Y-23723994D01*
X163242021Y-24474956D01*
X163254354Y-24520983D01*
X163267612Y-24570463D01*
X163308215Y-24640788D01*
X163317045Y-24656082D01*
X163461009Y-24800046D01*
X163488786Y-24854563D01*
X163490005Y-24870050D01*
X163490005Y-25208964D01*
X163471098Y-25267155D01*
X163456654Y-25283067D01*
X163375020Y-25355387D01*
X163285285Y-25485392D01*
X163229268Y-25633098D01*
X163229267Y-25633099D01*
X163210227Y-25789914D01*
X163210227Y-25789917D01*
X163229267Y-25946732D01*
X163229268Y-25946733D01*
X163285285Y-26094439D01*
X163375020Y-26224444D01*
X163375021Y-26224445D01*
X163375022Y-26224446D01*
X163493265Y-26329199D01*
X163633140Y-26402612D01*
X163786520Y-26440416D01*
X163786523Y-26440416D01*
X163944487Y-26440416D01*
X163944490Y-26440416D01*
X164097870Y-26402612D01*
X164237745Y-26329199D01*
X164355988Y-26224446D01*
X164445725Y-26094439D01*
X164501742Y-25946734D01*
X164520783Y-25789916D01*
X164501742Y-25633098D01*
X164445725Y-25485393D01*
X164400856Y-25420389D01*
X164355989Y-25355387D01*
X164274356Y-25283067D01*
X164243337Y-25230327D01*
X164241005Y-25208964D01*
X164241005Y-24624071D01*
X164241005Y-24624070D01*
X164215415Y-24528567D01*
X164215413Y-24528564D01*
X164215413Y-24528562D01*
X164165980Y-24442943D01*
X164096067Y-24373029D01*
X164096067Y-24373030D01*
X164022017Y-24298980D01*
X163994240Y-24244463D01*
X163993021Y-24228976D01*
X163993021Y-23723994D01*
X164011928Y-23665803D01*
X164026367Y-23649896D01*
X164061875Y-23618439D01*
X164117969Y-23594006D01*
X164127522Y-23593544D01*
X166120633Y-23593544D01*
X166178824Y-23612451D01*
X166190637Y-23622540D01*
X167643104Y-25075007D01*
X167670881Y-25129524D01*
X167672100Y-25145011D01*
X167672100Y-29559092D01*
X167653193Y-29617283D01*
X167638751Y-29633192D01*
X167632124Y-29639064D01*
X167632117Y-29639070D01*
X167542380Y-29769076D01*
X167486363Y-29916782D01*
X167486362Y-29916783D01*
X167467322Y-30073598D01*
X167467322Y-30073601D01*
X167486362Y-30230416D01*
X167486363Y-30230418D01*
X167526208Y-30335481D01*
X167542380Y-30378123D01*
X167632115Y-30508128D01*
X167632116Y-30508129D01*
X167632117Y-30508130D01*
X167750360Y-30612883D01*
X167890235Y-30686296D01*
X168043615Y-30724100D01*
X168043618Y-30724100D01*
X168201582Y-30724100D01*
X168201585Y-30724100D01*
X168354965Y-30686296D01*
X168494840Y-30612883D01*
X168613083Y-30508130D01*
X168632500Y-30480000D01*
X170262137Y-30480000D01*
X170270428Y-30521684D01*
X170270431Y-30521695D01*
X170345808Y-30703673D01*
X170345814Y-30703685D01*
X170455249Y-30867462D01*
X170455252Y-30867466D01*
X170594533Y-31006747D01*
X170594537Y-31006750D01*
X170758314Y-31116185D01*
X170758326Y-31116191D01*
X170940310Y-31191570D01*
X171133506Y-31229999D01*
X171133510Y-31230000D01*
X171531999Y-31230000D01*
X171532000Y-31229999D01*
X171532000Y-30530000D01*
X172032000Y-30530000D01*
X172032000Y-31229999D01*
X172032001Y-31230000D01*
X172430490Y-31230000D01*
X172430493Y-31229999D01*
X172623688Y-31191570D01*
X172623690Y-31191570D01*
X172805673Y-31116191D01*
X172805685Y-31116185D01*
X172969462Y-31006750D01*
X172969466Y-31006747D01*
X173108747Y-30867466D01*
X173108750Y-30867462D01*
X173218185Y-30703685D01*
X173218191Y-30703673D01*
X173293568Y-30521695D01*
X173293571Y-30521684D01*
X173301863Y-30480000D01*
X174592137Y-30480000D01*
X174600428Y-30521684D01*
X174600431Y-30521695D01*
X174675808Y-30703673D01*
X174675814Y-30703685D01*
X174785249Y-30867462D01*
X174785252Y-30867466D01*
X174924533Y-31006747D01*
X174924537Y-31006750D01*
X175088314Y-31116185D01*
X175088326Y-31116191D01*
X175270310Y-31191570D01*
X175463506Y-31229999D01*
X175463510Y-31230000D01*
X175711999Y-31230000D01*
X175712000Y-31229999D01*
X175712000Y-30530000D01*
X176212000Y-30530000D01*
X176212000Y-31229999D01*
X176212001Y-31230000D01*
X176460490Y-31230000D01*
X176460493Y-31229999D01*
X176653688Y-31191570D01*
X176653690Y-31191570D01*
X176835673Y-31116191D01*
X176835685Y-31116185D01*
X176999462Y-31006750D01*
X176999466Y-31006747D01*
X177138747Y-30867466D01*
X177138750Y-30867462D01*
X177248185Y-30703685D01*
X177248191Y-30703673D01*
X177323568Y-30521695D01*
X177323571Y-30521684D01*
X177331863Y-30480000D01*
X176528988Y-30480000D01*
X176546205Y-30470060D01*
X176602060Y-30414205D01*
X176641556Y-30345796D01*
X176662000Y-30269496D01*
X176662000Y-30190504D01*
X176641556Y-30114204D01*
X176602060Y-30045795D01*
X176546205Y-29989940D01*
X176528988Y-29980000D01*
X177331862Y-29980000D01*
X177323571Y-29938315D01*
X177323568Y-29938304D01*
X177248191Y-29756326D01*
X177248185Y-29756314D01*
X177138750Y-29592537D01*
X177138747Y-29592533D01*
X176999466Y-29453252D01*
X176999462Y-29453249D01*
X176835685Y-29343814D01*
X176835673Y-29343808D01*
X176653689Y-29268429D01*
X176460493Y-29230000D01*
X176212001Y-29230000D01*
X176212000Y-29230001D01*
X176212000Y-29930000D01*
X175712000Y-29930000D01*
X175712000Y-29230001D01*
X175711999Y-29230000D01*
X175463506Y-29230000D01*
X175270311Y-29268429D01*
X175270309Y-29268429D01*
X175088326Y-29343808D01*
X175088314Y-29343814D01*
X174924537Y-29453249D01*
X174924533Y-29453252D01*
X174785252Y-29592533D01*
X174785249Y-29592537D01*
X174675814Y-29756314D01*
X174675808Y-29756326D01*
X174600431Y-29938304D01*
X174600428Y-29938315D01*
X174592137Y-29980000D01*
X175395012Y-29980000D01*
X175377795Y-29989940D01*
X175321940Y-30045795D01*
X175282444Y-30114204D01*
X175262000Y-30190504D01*
X175262000Y-30269496D01*
X175282444Y-30345796D01*
X175321940Y-30414205D01*
X175377795Y-30470060D01*
X175395012Y-30480000D01*
X174592137Y-30480000D01*
X173301863Y-30480000D01*
X172498988Y-30480000D01*
X172516205Y-30470060D01*
X172572060Y-30414205D01*
X172611556Y-30345796D01*
X172632000Y-30269496D01*
X172632000Y-30190504D01*
X172611556Y-30114204D01*
X172572060Y-30045795D01*
X172516205Y-29989940D01*
X172498988Y-29980000D01*
X173301862Y-29980000D01*
X173293571Y-29938315D01*
X173293568Y-29938304D01*
X173218191Y-29756326D01*
X173218185Y-29756314D01*
X173108750Y-29592537D01*
X173108747Y-29592533D01*
X172969466Y-29453252D01*
X172969462Y-29453249D01*
X172805685Y-29343814D01*
X172805676Y-29343810D01*
X172763234Y-29326230D01*
X172716709Y-29286493D01*
X172702425Y-29226998D01*
X172725840Y-29170471D01*
X172731106Y-29164773D01*
X172742515Y-29153365D01*
X172749453Y-29141348D01*
X172818279Y-29022139D01*
X172818279Y-29022137D01*
X172818281Y-29022135D01*
X172857500Y-28875766D01*
X172857500Y-28724234D01*
X172818281Y-28577865D01*
X172818279Y-28577862D01*
X172818279Y-28577860D01*
X172742518Y-28446639D01*
X172742516Y-28446637D01*
X172742515Y-28446635D01*
X172635365Y-28339485D01*
X172635362Y-28339483D01*
X172635360Y-28339481D01*
X172504138Y-28263720D01*
X172504140Y-28263720D01*
X172447347Y-28248503D01*
X172357766Y-28224500D01*
X172206234Y-28224500D01*
X172116652Y-28248503D01*
X172059860Y-28263720D01*
X171928639Y-28339481D01*
X171821481Y-28446639D01*
X171745720Y-28577860D01*
X171723793Y-28659693D01*
X171706500Y-28724234D01*
X171706500Y-28875766D01*
X171738739Y-28996084D01*
X171745720Y-29022139D01*
X171779993Y-29081500D01*
X171792715Y-29141348D01*
X171767829Y-29197244D01*
X171714841Y-29227837D01*
X171694257Y-29230000D01*
X171133506Y-29230000D01*
X170940311Y-29268429D01*
X170940309Y-29268429D01*
X170758326Y-29343808D01*
X170758314Y-29343814D01*
X170594537Y-29453249D01*
X170594533Y-29453252D01*
X170455252Y-29592533D01*
X170455249Y-29592537D01*
X170345814Y-29756314D01*
X170345808Y-29756326D01*
X170270431Y-29938304D01*
X170270428Y-29938315D01*
X170262137Y-29980000D01*
X171065012Y-29980000D01*
X171047795Y-29989940D01*
X170991940Y-30045795D01*
X170952444Y-30114204D01*
X170932000Y-30190504D01*
X170932000Y-30269496D01*
X170952444Y-30345796D01*
X170991940Y-30414205D01*
X171047795Y-30470060D01*
X171065012Y-30480000D01*
X170262137Y-30480000D01*
X168632500Y-30480000D01*
X168702820Y-30378123D01*
X168758837Y-30230418D01*
X168777878Y-30073600D01*
X168774257Y-30043782D01*
X168762924Y-29950444D01*
X168758837Y-29916782D01*
X168702820Y-29769077D01*
X168613083Y-29639070D01*
X168606450Y-29633194D01*
X168575432Y-29580455D01*
X168573100Y-29559092D01*
X168573100Y-24858092D01*
X168573100Y-24858091D01*
X168542399Y-24743514D01*
X168499320Y-24668900D01*
X168483089Y-24640786D01*
X167302304Y-23460001D01*
X169372322Y-23460001D01*
X169391362Y-23616816D01*
X169391363Y-23616818D01*
X169447380Y-23764523D01*
X169522992Y-23874067D01*
X169534976Y-23891428D01*
X169552500Y-23947666D01*
X169552500Y-27843196D01*
X169534976Y-27899434D01*
X169461780Y-28005476D01*
X169405763Y-28153182D01*
X169405762Y-28153183D01*
X169386722Y-28309998D01*
X169386722Y-28310001D01*
X169405762Y-28466816D01*
X169405763Y-28466818D01*
X169461780Y-28614523D01*
X169551515Y-28744528D01*
X169551516Y-28744529D01*
X169551517Y-28744530D01*
X169669760Y-28849283D01*
X169809635Y-28922696D01*
X169963015Y-28960500D01*
X169963018Y-28960500D01*
X170120982Y-28960500D01*
X170120985Y-28960500D01*
X170274365Y-28922696D01*
X170414240Y-28849283D01*
X170532483Y-28744530D01*
X170622220Y-28614523D01*
X170678237Y-28466818D01*
X170697278Y-28310000D01*
X170678237Y-28153182D01*
X170622220Y-28005477D01*
X170571024Y-27931306D01*
X170553500Y-27875068D01*
X170553500Y-23874067D01*
X170571024Y-23817831D01*
X170607820Y-23764523D01*
X170663837Y-23616818D01*
X170682878Y-23460000D01*
X170663837Y-23303182D01*
X170607820Y-23155477D01*
X170552671Y-23075580D01*
X170518084Y-23025471D01*
X170426387Y-22944235D01*
X170399840Y-22920717D01*
X170329902Y-22884010D01*
X170259964Y-22847303D01*
X170106587Y-22809500D01*
X170106585Y-22809500D01*
X169948615Y-22809500D01*
X169948612Y-22809500D01*
X169795235Y-22847303D01*
X169655358Y-22920718D01*
X169537115Y-23025471D01*
X169447380Y-23155476D01*
X169391363Y-23303182D01*
X169391362Y-23303183D01*
X169372322Y-23459998D01*
X169372322Y-23460001D01*
X167302304Y-23460001D01*
X166624858Y-22782555D01*
X166624855Y-22782553D01*
X166624853Y-22782551D01*
X166522134Y-22723246D01*
X166522130Y-22723244D01*
X166497917Y-22716756D01*
X166497917Y-22716757D01*
X166407553Y-22692544D01*
X166407551Y-22692544D01*
X164127523Y-22692544D01*
X164069332Y-22673637D01*
X164061874Y-22667647D01*
X163989762Y-22603762D01*
X163989761Y-22603761D01*
X163890321Y-22551570D01*
X163849885Y-22530347D01*
X163696508Y-22492544D01*
X163696506Y-22492544D01*
X163538536Y-22492544D01*
X163538533Y-22492544D01*
X163385156Y-22530347D01*
X163245279Y-22603762D01*
X163205952Y-22638603D01*
X163149858Y-22663038D01*
X163140303Y-22663500D01*
X161537354Y-22663500D01*
X161499522Y-22673637D01*
X161446988Y-22687713D01*
X161446987Y-22687712D01*
X161422778Y-22694200D01*
X161422776Y-22694200D01*
X161422776Y-22694201D01*
X161372472Y-22723244D01*
X161320049Y-22753510D01*
X158084708Y-25988852D01*
X158084707Y-25988853D01*
X158025400Y-26091575D01*
X158025400Y-26091576D01*
X158025401Y-26091577D01*
X158000840Y-26183242D01*
X157994700Y-26206155D01*
X157994700Y-26803292D01*
X157975793Y-26861483D01*
X157961351Y-26877392D01*
X157958856Y-26879603D01*
X157954715Y-26883271D01*
X157864980Y-27013276D01*
X157808963Y-27160982D01*
X157808962Y-27160983D01*
X157789922Y-27317798D01*
X157789922Y-27317801D01*
X157808962Y-27474616D01*
X157808963Y-27474618D01*
X157853187Y-27591228D01*
X157864980Y-27622323D01*
X157954715Y-27752328D01*
X157954716Y-27752329D01*
X157954717Y-27752330D01*
X158072960Y-27857083D01*
X158212835Y-27930496D01*
X158366215Y-27968300D01*
X158366218Y-27968300D01*
X158524182Y-27968300D01*
X158524185Y-27968300D01*
X158677565Y-27930496D01*
X158817440Y-27857083D01*
X158935683Y-27752330D01*
X159025420Y-27622323D01*
X159081437Y-27474618D01*
X159100478Y-27317800D01*
X159081437Y-27160982D01*
X159025420Y-27013277D01*
X158935683Y-26883270D01*
X158929050Y-26877394D01*
X158898032Y-26824655D01*
X158895700Y-26803292D01*
X158895700Y-26493073D01*
X158914607Y-26434882D01*
X158924690Y-26423075D01*
X160869625Y-24478139D01*
X160924142Y-24450363D01*
X160984574Y-24459934D01*
X161009633Y-24478140D01*
X161280304Y-24748811D01*
X161308081Y-24803328D01*
X161309300Y-24818815D01*
X161309300Y-34682254D01*
X161290393Y-34740445D01*
X161240893Y-34776409D01*
X161179707Y-34776409D01*
X161140296Y-34752258D01*
X159078296Y-32690258D01*
X159050519Y-32635741D01*
X159049300Y-32620254D01*
X159049300Y-30781550D01*
X159068207Y-30723359D01*
X159082645Y-30707452D01*
X159164283Y-30635130D01*
X159254020Y-30505123D01*
X159310037Y-30357418D01*
X159322731Y-30252872D01*
X159329078Y-30200601D01*
X159329078Y-30200598D01*
X159313658Y-30073601D01*
X159310037Y-30043782D01*
X159254020Y-29896077D01*
X159181274Y-29790686D01*
X159164284Y-29766071D01*
X159046041Y-29661318D01*
X159046040Y-29661317D01*
X158947425Y-29609559D01*
X158906164Y-29587903D01*
X158752787Y-29550100D01*
X158752785Y-29550100D01*
X158594815Y-29550100D01*
X158594812Y-29550100D01*
X158441435Y-29587903D01*
X158301558Y-29661318D01*
X158239447Y-29716343D01*
X158183352Y-29740778D01*
X158123608Y-29727575D01*
X158108149Y-29716343D01*
X158046038Y-29661318D01*
X158046037Y-29661317D01*
X157947422Y-29609559D01*
X157906161Y-29587903D01*
X157752784Y-29550100D01*
X157752782Y-29550100D01*
X157594812Y-29550100D01*
X157594809Y-29550100D01*
X157441432Y-29587903D01*
X157301555Y-29661318D01*
X157183312Y-29766071D01*
X157093577Y-29896076D01*
X157037560Y-30043782D01*
X157037559Y-30043783D01*
X157018519Y-30200598D01*
X157018519Y-30200601D01*
X156534700Y-30200601D01*
X156534700Y-22277166D01*
X156521382Y-22227462D01*
X156509110Y-22181662D01*
X156509108Y-22181659D01*
X156509108Y-22181657D01*
X156459675Y-22096038D01*
X156389762Y-22026124D01*
X156389762Y-22026125D01*
X156203637Y-21840000D01*
X170262137Y-21840000D01*
X170270428Y-21881684D01*
X170270431Y-21881695D01*
X170345808Y-22063673D01*
X170345814Y-22063685D01*
X170455249Y-22227462D01*
X170455252Y-22227466D01*
X170594533Y-22366747D01*
X170594537Y-22366750D01*
X170758314Y-22476185D01*
X170758326Y-22476191D01*
X170940310Y-22551570D01*
X171133506Y-22589999D01*
X171133510Y-22590000D01*
X171694257Y-22590000D01*
X171752448Y-22608907D01*
X171788412Y-22658407D01*
X171788412Y-22719593D01*
X171779993Y-22738500D01*
X171745720Y-22797860D01*
X171745719Y-22797865D01*
X171706500Y-22944234D01*
X171706500Y-23095766D01*
X171741086Y-23224847D01*
X171745720Y-23242139D01*
X171821481Y-23373360D01*
X171821483Y-23373362D01*
X171821485Y-23373365D01*
X171928635Y-23480515D01*
X171928637Y-23480516D01*
X171928639Y-23480518D01*
X172059861Y-23556279D01*
X172059859Y-23556279D01*
X172059863Y-23556280D01*
X172059865Y-23556281D01*
X172206234Y-23595500D01*
X172206236Y-23595500D01*
X172357764Y-23595500D01*
X172357766Y-23595500D01*
X172504135Y-23556281D01*
X172504137Y-23556279D01*
X172504139Y-23556279D01*
X172635360Y-23480518D01*
X172635360Y-23480517D01*
X172635365Y-23480515D01*
X172742515Y-23373365D01*
X172745033Y-23369004D01*
X172818279Y-23242139D01*
X172818279Y-23242137D01*
X172818281Y-23242135D01*
X172857500Y-23095766D01*
X172857500Y-22944234D01*
X172818281Y-22797865D01*
X172818279Y-22797862D01*
X172818279Y-22797860D01*
X172742518Y-22666639D01*
X172742516Y-22666637D01*
X172742515Y-22666635D01*
X172731114Y-22655234D01*
X172703339Y-22600720D01*
X172712910Y-22540288D01*
X172756175Y-22497023D01*
X172763236Y-22493768D01*
X172805678Y-22476188D01*
X172805685Y-22476185D01*
X172969462Y-22366750D01*
X172969466Y-22366747D01*
X173108747Y-22227466D01*
X173108750Y-22227462D01*
X173218185Y-22063685D01*
X173218191Y-22063673D01*
X173293568Y-21881695D01*
X173293571Y-21881684D01*
X173301863Y-21840000D01*
X174592137Y-21840000D01*
X174600428Y-21881684D01*
X174600431Y-21881695D01*
X174675808Y-22063673D01*
X174675814Y-22063685D01*
X174785249Y-22227462D01*
X174785252Y-22227466D01*
X174924533Y-22366747D01*
X174924537Y-22366750D01*
X175088314Y-22476185D01*
X175088326Y-22476191D01*
X175270310Y-22551570D01*
X175463506Y-22589999D01*
X175463510Y-22590000D01*
X175711999Y-22590000D01*
X175712000Y-22589999D01*
X175712000Y-21890000D01*
X176212000Y-21890000D01*
X176212000Y-22589999D01*
X176212001Y-22590000D01*
X176460490Y-22590000D01*
X176460493Y-22589999D01*
X176653688Y-22551570D01*
X176653690Y-22551570D01*
X176835673Y-22476191D01*
X176835685Y-22476185D01*
X176999462Y-22366750D01*
X176999466Y-22366747D01*
X177138747Y-22227466D01*
X177138750Y-22227462D01*
X177248185Y-22063685D01*
X177248191Y-22063673D01*
X177323568Y-21881695D01*
X177323571Y-21881684D01*
X177331863Y-21840000D01*
X176528988Y-21840000D01*
X176546205Y-21830060D01*
X176602060Y-21774205D01*
X176641556Y-21705796D01*
X176662000Y-21629496D01*
X176662000Y-21550504D01*
X176641556Y-21474204D01*
X176602060Y-21405795D01*
X176546205Y-21349940D01*
X176528988Y-21340000D01*
X177331862Y-21340000D01*
X177323571Y-21298315D01*
X177323568Y-21298304D01*
X177248191Y-21116326D01*
X177248185Y-21116314D01*
X177138750Y-20952537D01*
X177138747Y-20952533D01*
X176999466Y-20813252D01*
X176999462Y-20813249D01*
X176835685Y-20703814D01*
X176835673Y-20703808D01*
X176653689Y-20628429D01*
X176460493Y-20590000D01*
X176212001Y-20590000D01*
X176212000Y-20590001D01*
X176212000Y-21290000D01*
X175712000Y-21290000D01*
X175712000Y-20590001D01*
X175711999Y-20590000D01*
X175463506Y-20590000D01*
X175270311Y-20628429D01*
X175270309Y-20628429D01*
X175088326Y-20703808D01*
X175088314Y-20703814D01*
X174924537Y-20813249D01*
X174924533Y-20813252D01*
X174785252Y-20952533D01*
X174785249Y-20952537D01*
X174675814Y-21116314D01*
X174675808Y-21116326D01*
X174600431Y-21298304D01*
X174600428Y-21298315D01*
X174592137Y-21340000D01*
X175395012Y-21340000D01*
X175377795Y-21349940D01*
X175321940Y-21405795D01*
X175282444Y-21474204D01*
X175262000Y-21550504D01*
X175262000Y-21629496D01*
X175282444Y-21705796D01*
X175321940Y-21774205D01*
X175377795Y-21830060D01*
X175395012Y-21840000D01*
X174592137Y-21840000D01*
X173301863Y-21840000D01*
X172498988Y-21840000D01*
X172516205Y-21830060D01*
X172572060Y-21774205D01*
X172611556Y-21705796D01*
X172632000Y-21629496D01*
X172632000Y-21550504D01*
X172611556Y-21474204D01*
X172572060Y-21405795D01*
X172516205Y-21349940D01*
X172498988Y-21340000D01*
X173301862Y-21340000D01*
X173293571Y-21298315D01*
X173293568Y-21298304D01*
X173218191Y-21116326D01*
X173218185Y-21116314D01*
X173108750Y-20952537D01*
X173108747Y-20952533D01*
X172969466Y-20813252D01*
X172969462Y-20813249D01*
X172805685Y-20703814D01*
X172805673Y-20703808D01*
X172623689Y-20628429D01*
X172430493Y-20590000D01*
X172032001Y-20590000D01*
X172032000Y-20590001D01*
X172032000Y-21290000D01*
X171532000Y-21290000D01*
X171532000Y-20590001D01*
X171531999Y-20590000D01*
X171133506Y-20590000D01*
X170940311Y-20628429D01*
X170940309Y-20628429D01*
X170758326Y-20703808D01*
X170758314Y-20703814D01*
X170594537Y-20813249D01*
X170594533Y-20813252D01*
X170455252Y-20952533D01*
X170455249Y-20952537D01*
X170345814Y-21116314D01*
X170345808Y-21116326D01*
X170270431Y-21298304D01*
X170270428Y-21298315D01*
X170262137Y-21340000D01*
X171065012Y-21340000D01*
X171047795Y-21349940D01*
X170991940Y-21405795D01*
X170952444Y-21474204D01*
X170932000Y-21550504D01*
X170932000Y-21629496D01*
X170952444Y-21705796D01*
X170991940Y-21774205D01*
X171047795Y-21830060D01*
X171065012Y-21840000D01*
X170262137Y-21840000D01*
X156203637Y-21840000D01*
X155018163Y-20654526D01*
X155018163Y-20654525D01*
X154932541Y-20605091D01*
X154932534Y-20605088D01*
X154884785Y-20592294D01*
X154884784Y-20592294D01*
X154837038Y-20579500D01*
X154837036Y-20579500D01*
X154837035Y-20579500D01*
X103850136Y-20579500D01*
X103751264Y-20579500D01*
X103703513Y-20592295D01*
X103703512Y-20592294D01*
X103655762Y-20605089D01*
X103655758Y-20605091D01*
X103570136Y-20654525D01*
X103570137Y-20654526D01*
X100922458Y-23302204D01*
X100867941Y-23329981D01*
X100852454Y-23331200D01*
X100695012Y-23331200D01*
X100541635Y-23369003D01*
X100401758Y-23442418D01*
X100283515Y-23547171D01*
X100193780Y-23677176D01*
X100137763Y-23824882D01*
X100137762Y-23824883D01*
X100118722Y-23981698D01*
X100118722Y-23981701D01*
X100137762Y-24138516D01*
X100137763Y-24138517D01*
X100193780Y-24286223D01*
X100283515Y-24416228D01*
X100283516Y-24416229D01*
X100283517Y-24416230D01*
X100401760Y-24520983D01*
X100541635Y-24594396D01*
X100695015Y-24632200D01*
X100695018Y-24632200D01*
X100852982Y-24632200D01*
X100852985Y-24632200D01*
X101006365Y-24594396D01*
X101146240Y-24520983D01*
X101264483Y-24416230D01*
X101354220Y-24286223D01*
X101410237Y-24138518D01*
X101429278Y-23981700D01*
X101421635Y-23918762D01*
X101433389Y-23858719D01*
X101449905Y-23836830D01*
X103927241Y-21359496D01*
X103981758Y-21331719D01*
X103997245Y-21330500D01*
X154591055Y-21330500D01*
X154649246Y-21349407D01*
X154661059Y-21359496D01*
X155754704Y-22453141D01*
X155782481Y-22507658D01*
X155783700Y-22523145D01*
X155783700Y-32073245D01*
X155764793Y-32131436D01*
X155750349Y-32147348D01*
X155657198Y-32229871D01*
X155567463Y-32359876D01*
X155511446Y-32507582D01*
X155511445Y-32507583D01*
X155492405Y-32664398D01*
X155492405Y-32664401D01*
X155511445Y-32821216D01*
X155511446Y-32821218D01*
X155548052Y-32917740D01*
X155567463Y-32968923D01*
X155657200Y-33098930D01*
X155657201Y-33098932D01*
X155713827Y-33149098D01*
X155744846Y-33201837D01*
X155738940Y-33262737D01*
X155713827Y-33297302D01*
X155657206Y-33347463D01*
X155653231Y-33351951D01*
X155651750Y-33350639D01*
X155610042Y-33382518D01*
X155577174Y-33388133D01*
X151070803Y-33388133D01*
X150971931Y-33388133D01*
X150940053Y-33396675D01*
X150940052Y-33396674D01*
X150876429Y-33413722D01*
X150876425Y-33413724D01*
X150790803Y-33463158D01*
X150790804Y-33463159D01*
X149654838Y-34599125D01*
X149654837Y-34599124D01*
X149584924Y-34669038D01*
X149535489Y-34754661D01*
X149535490Y-34754662D01*
X149535490Y-34754663D01*
X149514607Y-34832600D01*
X149513554Y-34836530D01*
X149509900Y-34850166D01*
X149509900Y-35197004D01*
X149490993Y-35255195D01*
X149480904Y-35267008D01*
X148463459Y-36284453D01*
X148408942Y-36312230D01*
X148393455Y-36313449D01*
X101354358Y-36313449D01*
X101296167Y-36294542D01*
X101272882Y-36270687D01*
X101264484Y-36258520D01*
X101212142Y-36212149D01*
X101146240Y-36153766D01*
X101038464Y-36097200D01*
X101006364Y-36080352D01*
X100852987Y-36042549D01*
X100852985Y-36042549D01*
X100695015Y-36042549D01*
X100695012Y-36042549D01*
X100541635Y-36080352D01*
X100401758Y-36153767D01*
X100283515Y-36258520D01*
X100193780Y-36388525D01*
X100137763Y-36536231D01*
X100137762Y-36536232D01*
X100118722Y-36693047D01*
X100118722Y-36693050D01*
X98562010Y-36693050D01*
X98562010Y-33514267D01*
X100118722Y-33514267D01*
X100137762Y-33671082D01*
X100137763Y-33671084D01*
X100168971Y-33753373D01*
X100193780Y-33818789D01*
X100283515Y-33948794D01*
X100283516Y-33948795D01*
X100283517Y-33948796D01*
X100401760Y-34053549D01*
X100541635Y-34126962D01*
X100695015Y-34164766D01*
X100695018Y-34164766D01*
X100852982Y-34164766D01*
X100852985Y-34164766D01*
X101006365Y-34126962D01*
X101146240Y-34053549D01*
X101264483Y-33948796D01*
X101278542Y-33928428D01*
X101327158Y-33891278D01*
X101360018Y-33885666D01*
X148639435Y-33885666D01*
X148639436Y-33885666D01*
X148728832Y-33861712D01*
X148734938Y-33860076D01*
X148820562Y-33810641D01*
X148890475Y-33740728D01*
X150185874Y-32445329D01*
X150185875Y-32445328D01*
X150235310Y-32359704D01*
X150260900Y-32264201D01*
X150260900Y-31598511D01*
X150279807Y-31540320D01*
X150289896Y-31528507D01*
X152027717Y-29790686D01*
X152027718Y-29790686D01*
X152077151Y-29705064D01*
X152077152Y-29705062D01*
X152077153Y-29705061D01*
X152094835Y-29639070D01*
X152102743Y-29609559D01*
X152102743Y-29510687D01*
X152102743Y-29420216D01*
X152121650Y-29362025D01*
X152136088Y-29346118D01*
X152217726Y-29273796D01*
X152307463Y-29143789D01*
X152363480Y-28996084D01*
X152382521Y-28839266D01*
X152363480Y-28682448D01*
X152307463Y-28534743D01*
X152260577Y-28466816D01*
X152217727Y-28404737D01*
X152155630Y-28349724D01*
X152099483Y-28299983D01*
X152029545Y-28263276D01*
X151959607Y-28226569D01*
X151806230Y-28188766D01*
X151806228Y-28188766D01*
X151648258Y-28188766D01*
X151648255Y-28188766D01*
X151494878Y-28226569D01*
X151355001Y-28299984D01*
X151236758Y-28404737D01*
X151147023Y-28534742D01*
X151091006Y-28682448D01*
X151091005Y-28682449D01*
X151071965Y-28839264D01*
X151071965Y-28839267D01*
X151091005Y-28996082D01*
X151091006Y-28996084D01*
X151123400Y-29081500D01*
X151147023Y-29143789D01*
X151236758Y-29273794D01*
X151236759Y-29273795D01*
X151236760Y-29273796D01*
X151288359Y-29319507D01*
X151319377Y-29372246D01*
X151313473Y-29433146D01*
X151292714Y-29463614D01*
X149654838Y-31101491D01*
X149654837Y-31101490D01*
X149584924Y-31171404D01*
X149535491Y-31257023D01*
X149509900Y-31352532D01*
X149509900Y-32018221D01*
X149490993Y-32076412D01*
X149480904Y-32088225D01*
X148463459Y-33105670D01*
X148408942Y-33133447D01*
X148393455Y-33134666D01*
X101354358Y-33134666D01*
X101296167Y-33115759D01*
X101272882Y-33091904D01*
X101264484Y-33079737D01*
X101261631Y-33077209D01*
X101146240Y-32974983D01*
X101054697Y-32926937D01*
X101006364Y-32901569D01*
X100852987Y-32863766D01*
X100852985Y-32863766D01*
X100695015Y-32863766D01*
X100695012Y-32863766D01*
X100541635Y-32901569D01*
X100401758Y-32974984D01*
X100283515Y-33079737D01*
X100193780Y-33209742D01*
X100137763Y-33357448D01*
X100137762Y-33357449D01*
X100118722Y-33514264D01*
X100118722Y-33514267D01*
X98562010Y-33514267D01*
X98562010Y-30335484D01*
X100118722Y-30335484D01*
X100137762Y-30492299D01*
X100137763Y-30492301D01*
X100183493Y-30612881D01*
X100193780Y-30640006D01*
X100283515Y-30770011D01*
X100283516Y-30770012D01*
X100283517Y-30770013D01*
X100401760Y-30874766D01*
X100541635Y-30948179D01*
X100695015Y-30985983D01*
X100695018Y-30985983D01*
X100852982Y-30985983D01*
X100852985Y-30985983D01*
X101006365Y-30948179D01*
X101146240Y-30874766D01*
X101264483Y-30770013D01*
X101278542Y-30749645D01*
X101327158Y-30712495D01*
X101360018Y-30706883D01*
X148639436Y-30706883D01*
X148687186Y-30694088D01*
X148687187Y-30694088D01*
X148734934Y-30681294D01*
X148734933Y-30681294D01*
X148734938Y-30681293D01*
X148820562Y-30631858D01*
X148890475Y-30561945D01*
X150185874Y-29266546D01*
X150218398Y-29210213D01*
X150235310Y-29180921D01*
X150260900Y-29085418D01*
X150260900Y-28419728D01*
X150279807Y-28361537D01*
X150289896Y-28349724D01*
X152027717Y-26611903D01*
X152077151Y-26526281D01*
X152077153Y-26526277D01*
X152100161Y-26440415D01*
X152102742Y-26430780D01*
X152102743Y-26430775D01*
X152102743Y-26241433D01*
X152121650Y-26183242D01*
X152136088Y-26167335D01*
X152217726Y-26095013D01*
X152307463Y-25965006D01*
X152363480Y-25817301D01*
X152382521Y-25660483D01*
X152363480Y-25503665D01*
X152307463Y-25355960D01*
X152217726Y-25225953D01*
X152099483Y-25121200D01*
X152011471Y-25075007D01*
X151959607Y-25047786D01*
X151806230Y-25009983D01*
X151806228Y-25009983D01*
X151648258Y-25009983D01*
X151648255Y-25009983D01*
X151494878Y-25047786D01*
X151355001Y-25121201D01*
X151236758Y-25225954D01*
X151147023Y-25355959D01*
X151091006Y-25503665D01*
X151091005Y-25503666D01*
X151071965Y-25660481D01*
X151071965Y-25660484D01*
X151091005Y-25817299D01*
X151091006Y-25817300D01*
X151147023Y-25965006D01*
X151236758Y-26095011D01*
X151236759Y-26095012D01*
X151236760Y-26095013D01*
X151288359Y-26140724D01*
X151319377Y-26193463D01*
X151313473Y-26254363D01*
X151292714Y-26284831D01*
X149654838Y-27922708D01*
X149654837Y-27922707D01*
X149584924Y-27992621D01*
X149535491Y-28078240D01*
X149535490Y-28078245D01*
X149515411Y-28153183D01*
X149509900Y-28173749D01*
X149509900Y-28839438D01*
X149490993Y-28897629D01*
X149480904Y-28909442D01*
X148463459Y-29926887D01*
X148408942Y-29954664D01*
X148393455Y-29955883D01*
X101354358Y-29955883D01*
X101296167Y-29936976D01*
X101272882Y-29913121D01*
X101264484Y-29900954D01*
X101146241Y-29796201D01*
X101146240Y-29796200D01*
X101015488Y-29727575D01*
X101006364Y-29722786D01*
X100852987Y-29684983D01*
X100852985Y-29684983D01*
X100695015Y-29684983D01*
X100695012Y-29684983D01*
X100541635Y-29722786D01*
X100401758Y-29796201D01*
X100283515Y-29900954D01*
X100193780Y-30030959D01*
X100137763Y-30178665D01*
X100137762Y-30178666D01*
X100118722Y-30335481D01*
X100118722Y-30335484D01*
X98562010Y-30335484D01*
X98562010Y-27156701D01*
X100118722Y-27156701D01*
X100137762Y-27313516D01*
X100137763Y-27313518D01*
X100190690Y-27453075D01*
X100193780Y-27461223D01*
X100283515Y-27591228D01*
X100283516Y-27591229D01*
X100283517Y-27591230D01*
X100401760Y-27695983D01*
X100541635Y-27769396D01*
X100695015Y-27807200D01*
X100695018Y-27807200D01*
X100852982Y-27807200D01*
X100852985Y-27807200D01*
X101006365Y-27769396D01*
X101146240Y-27695983D01*
X101264483Y-27591230D01*
X101278542Y-27570862D01*
X101327158Y-27533712D01*
X101360018Y-27528100D01*
X148639435Y-27528100D01*
X148639436Y-27528100D01*
X148717438Y-27507199D01*
X148734938Y-27502510D01*
X148820562Y-27453075D01*
X148890475Y-27383162D01*
X150185874Y-26087763D01*
X150193539Y-26074487D01*
X150235310Y-26002138D01*
X150248105Y-25954386D01*
X150260900Y-25906636D01*
X150260900Y-25807764D01*
X150260900Y-25240945D01*
X150279807Y-25182754D01*
X150289896Y-25170941D01*
X152027717Y-23433120D01*
X152027718Y-23433120D01*
X152077151Y-23347498D01*
X152077150Y-23347498D01*
X152077153Y-23347495D01*
X152093125Y-23287886D01*
X152102743Y-23251993D01*
X152102743Y-23153121D01*
X152102743Y-23062650D01*
X152121650Y-23004459D01*
X152136088Y-22988552D01*
X152217726Y-22916230D01*
X152307463Y-22786223D01*
X152363480Y-22638518D01*
X152379369Y-22507658D01*
X152382521Y-22481701D01*
X152382521Y-22481698D01*
X152363480Y-22324883D01*
X152363480Y-22324882D01*
X152307463Y-22177177D01*
X152251457Y-22096038D01*
X152217727Y-22047171D01*
X152099484Y-21942418D01*
X152099483Y-21942417D01*
X151999612Y-21890000D01*
X151959607Y-21869003D01*
X151806230Y-21831200D01*
X151806228Y-21831200D01*
X151648258Y-21831200D01*
X151648255Y-21831200D01*
X151494878Y-21869003D01*
X151355001Y-21942418D01*
X151236758Y-22047171D01*
X151147023Y-22177176D01*
X151091006Y-22324882D01*
X151091005Y-22324883D01*
X151071965Y-22481698D01*
X151071965Y-22481701D01*
X151091005Y-22638516D01*
X151091006Y-22638518D01*
X151112124Y-22694201D01*
X151147023Y-22786223D01*
X151236758Y-22916228D01*
X151236759Y-22916229D01*
X151236760Y-22916230D01*
X151288359Y-22961941D01*
X151319377Y-23014680D01*
X151313473Y-23075580D01*
X151292714Y-23106048D01*
X149654838Y-24743925D01*
X149654837Y-24743924D01*
X149584924Y-24813838D01*
X149535491Y-24899457D01*
X149509900Y-24994966D01*
X149509900Y-25660655D01*
X149490993Y-25718846D01*
X149480904Y-25730659D01*
X148463459Y-26748104D01*
X148408942Y-26775881D01*
X148393455Y-26777100D01*
X101354358Y-26777100D01*
X101296167Y-26758193D01*
X101272882Y-26734338D01*
X101264484Y-26722171D01*
X101146241Y-26617418D01*
X101146240Y-26617417D01*
X101076302Y-26580710D01*
X101006364Y-26544003D01*
X100852987Y-26506200D01*
X100852985Y-26506200D01*
X100695015Y-26506200D01*
X100695012Y-26506200D01*
X100541635Y-26544003D01*
X100401758Y-26617418D01*
X100283515Y-26722171D01*
X100193780Y-26852176D01*
X100137763Y-26999882D01*
X100137762Y-26999883D01*
X100118722Y-27156698D01*
X100118722Y-27156701D01*
X98562010Y-27156701D01*
X98562010Y-20295234D01*
X98562021Y-20293887D01*
X98564219Y-20157661D01*
X98565191Y-20145331D01*
X98565205Y-20145234D01*
X98603590Y-19875121D01*
X98606565Y-19861340D01*
X98682785Y-19600183D01*
X98687688Y-19586968D01*
X98800301Y-19339309D01*
X98807039Y-19326921D01*
X98953747Y-19097815D01*
X98962181Y-19086510D01*
X99139995Y-18880622D01*
X99149955Y-18870629D01*
X99355267Y-18692135D01*
X99366540Y-18683667D01*
X99418912Y-18649888D01*
X173902643Y-18649888D01*
X173902643Y-20356816D01*
X173902644Y-20356816D01*
X177163943Y-20356816D01*
X177163944Y-20356816D01*
X177163944Y-18649888D01*
X173902643Y-18649888D01*
X99418912Y-18649888D01*
X99595161Y-18536211D01*
X99607527Y-18529432D01*
X99854803Y-18416013D01*
X99868018Y-18411060D01*
X100128918Y-18333986D01*
X100142702Y-18330964D01*
X100412786Y-18291678D01*
X100425096Y-18290667D01*
X100561129Y-18288016D01*
X100562851Y-18287999D01*
X176561125Y-18287990D01*
X176562818Y-18288004D01*
G37*
G04 #@! TD.AperFunction*
M02*
